<svg width="253" height="246" viewBox="0 0 253 246" fill="none" xmlns="http://www.w3.org/2000/svg">
<g clip-path="url(#clip0_779_6401)">
<g clip-path="url(#clip1_779_6401)">
<path d="M189.592 219.074L72.5085 192.581C69.4487 191.888 67.5758 188.893 68.3251 185.89L108.673 24.2077C109.422 21.2051 112.51 19.3324 115.57 20.0246L232.653 46.5179C235.713 47.2102 237.586 50.2055 236.837 53.208L196.489 214.891C195.74 217.893 192.652 219.766 189.592 219.074Z" fill="#0A2446"/>
<path d="M71.7091 192.597C68.9674 191.593 67.3683 188.713 68.0863 185.836L108.434 24.1537C108.812 22.6389 109.769 21.3507 111.128 20.5267C112.486 19.7026 114.085 19.441 115.628 19.7903L232.712 46.2835C235.897 47.0035 237.856 50.1351 237.076 53.2622L196.728 214.945C196.35 216.459 195.393 217.748 194.035 218.572C192.676 219.396 191.077 219.657 189.534 219.308L72.45 192.815C72.1983 192.758 71.9508 192.685 71.7091 192.597ZM233.275 46.9526C233.056 46.8725 232.829 46.8054 232.595 46.7524L115.511 20.2592C114.095 19.9388 112.629 20.1787 111.383 20.9347C110.136 21.6905 109.259 22.8723 108.912 24.2619L68.5641 185.945C67.8482 188.813 69.6427 191.685 72.5672 192.346L189.651 218.839C191.067 219.16 192.533 218.92 193.78 218.164C195.026 217.408 195.903 216.226 196.25 214.837L236.598 53.1541C237.256 50.5152 235.79 47.8736 233.275 46.9526Z" fill="#0A2446"/>
<path d="M115.255 26.3619L229.947 52.312L189.913 212.743L75.2221 186.793L115.255 26.3619Z" fill="white"/>
<path d="M75.1312 187.012C75.0756 186.991 75.0298 186.952 75.0022 186.9C74.9747 186.849 74.9673 186.789 74.9815 186.732L115.016 26.3072C115.031 26.245 115.071 26.1911 115.127 26.1571C115.183 26.1234 115.25 26.1124 115.313 26.1267L230 52.0776C230.064 52.092 230.118 52.1305 230.152 52.1846C230.186 52.2386 230.196 52.3039 230.181 52.3661L190.147 212.791C190.139 212.822 190.125 212.851 190.106 212.877C190.087 212.903 190.063 212.924 190.035 212.941C190.008 212.958 189.977 212.969 189.945 212.974C189.913 212.98 189.88 212.979 189.849 212.972L75.1619 187.021C75.1514 187.018 75.1412 187.015 75.1312 187.012ZM115.435 26.6497L75.5178 186.606L189.727 212.449L229.644 52.4924L115.435 26.6497Z" fill="#0A2446"/>
<path d="M205.696 35.4773L185.33 30.8691L185.885 28.6435C187.245 23.196 183.847 17.7618 178.295 16.5056C172.744 15.2494 167.142 18.6474 165.783 24.0948L165.227 26.3204L144.862 21.7121C142.915 21.2717 140.95 22.4632 140.474 24.3734L137.338 36.9395L205.221 52.2999L208.357 39.7338C208.834 37.8235 207.642 35.9178 205.696 35.4773Z" fill="#EF6C67"/>
<path d="M137.249 37.1649C137.193 37.1445 137.147 37.1048 137.12 37.0534C137.092 37.002 137.085 36.9423 137.099 36.8854L140.235 24.3192C140.481 23.3326 141.104 22.4938 141.989 21.957C142.874 21.4203 143.915 21.25 144.92 21.4775L165.047 26.0317L165.544 24.0405C166.934 18.4725 172.68 14.9869 178.354 16.271C181.102 16.8928 183.425 18.528 184.892 20.875C186.36 23.2221 186.797 26.0004 186.124 28.6975L185.627 30.6886L205.754 35.2429C207.829 35.7121 209.104 37.7514 208.596 39.7878L205.46 52.354C205.453 52.3848 205.439 52.4139 205.42 52.4396C205.401 52.4653 205.377 52.4872 205.349 52.5039C205.321 52.5207 205.291 52.532 205.259 52.5372C205.227 52.5424 205.194 52.5414 205.163 52.5343L137.279 37.1738C137.269 37.1716 137.259 37.1686 137.249 37.1649ZM179.508 17.1145C179.097 16.9638 178.673 16.8386 178.237 16.74C172.827 15.5157 167.347 18.8393 166.022 24.1488L165.466 26.3744C165.451 26.4365 165.411 26.4905 165.355 26.5244C165.299 26.5582 165.232 26.5691 165.169 26.5548L144.803 21.9466C143.926 21.748 143.017 21.8966 142.244 22.3652C141.472 22.8338 140.928 23.5662 140.713 24.4274L137.635 36.7592L205.041 52.0115L208.118 39.6797C208.562 37.9017 207.449 36.1218 205.637 35.7117L185.271 31.1035C185.24 31.0964 185.21 31.0833 185.184 31.065C185.158 31.0467 185.136 31.0234 185.12 30.9966C185.103 30.9698 185.092 30.94 185.087 30.9088C185.082 30.8777 185.083 30.8458 185.091 30.815L185.646 28.5895C186.288 26.0175 185.871 23.3684 184.472 21.1304C183.305 19.2644 181.571 17.8701 179.508 17.1145Z" fill="#EF6C67"/>
</g>
<g clip-path="url(#clip2_779_6401)">
<path d="M150.341 60.9138C150.283 60.8925 150.235 60.85 150.208 60.795C150.181 60.74 150.177 60.6767 150.196 60.618C150.215 60.5593 150.256 60.5097 150.311 60.4793C150.366 60.4489 150.431 60.4401 150.491 60.4546L188.682 69.2561C188.745 69.2709 188.8 69.3096 188.833 69.3638C188.867 69.418 188.877 69.4833 188.861 69.5454C188.853 69.5762 188.84 69.6052 188.82 69.6309C188.801 69.6565 188.777 69.6783 188.749 69.6949C188.722 69.7116 188.691 69.7227 188.659 69.7278C188.627 69.7329 188.594 69.7318 188.563 69.7246L150.372 60.923C150.362 60.9206 150.351 60.9175 150.341 60.9138ZM148.393 68.5867C148.335 68.5654 148.287 68.5228 148.26 68.4678C148.233 68.4129 148.228 68.3495 148.248 68.2909C148.267 68.2322 148.308 68.1826 148.363 68.1522C148.418 68.1218 148.482 68.113 148.543 68.1274L202.851 80.6435C202.883 80.6504 202.913 80.6633 202.94 80.6817C202.966 80.7 202.988 80.7234 203.005 80.7504C203.022 80.7774 203.034 80.8075 203.039 80.8389C203.044 80.8704 203.042 80.9026 203.034 80.9337C203.026 80.9647 203.012 80.994 202.993 81.0199C202.973 81.0457 202.949 81.0675 202.921 81.0841C202.892 81.1007 202.861 81.1117 202.829 81.1165C202.797 81.1213 202.764 81.1198 202.732 81.112L148.424 68.5957C148.413 68.5934 148.403 68.5904 148.393 68.5867ZM141.637 95.1921C141.579 95.1708 141.531 95.1283 141.504 95.0733C141.477 95.0183 141.473 94.955 141.492 94.8963C141.511 94.8376 141.552 94.788 141.607 94.7576C141.662 94.7273 141.726 94.7184 141.787 94.7329L185.377 104.779C185.409 104.786 185.439 104.799 185.465 104.817C185.492 104.835 185.514 104.859 185.531 104.886C185.548 104.913 185.559 104.943 185.564 104.974C185.569 105.006 185.568 105.038 185.56 105.069C185.552 105.1 185.538 105.129 185.518 105.155C185.499 105.181 185.474 105.203 185.446 105.219C185.418 105.236 185.387 105.247 185.355 105.252C185.322 105.256 185.29 105.255 185.258 105.247L141.668 95.2013C141.658 95.1989 141.647 95.1959 141.637 95.1921ZM139.689 102.865C139.631 102.844 139.583 102.801 139.556 102.746C139.529 102.691 139.524 102.628 139.544 102.569C139.563 102.511 139.604 102.461 139.659 102.431C139.714 102.4 139.778 102.391 139.839 102.406L176.628 110.884C176.66 110.891 176.69 110.904 176.716 110.923C176.743 110.941 176.765 110.964 176.782 110.991C176.799 111.018 176.81 111.048 176.815 111.08C176.82 111.111 176.819 111.143 176.811 111.175C176.803 111.206 176.789 111.235 176.769 111.261C176.75 111.287 176.725 111.308 176.697 111.325C176.669 111.342 176.638 111.353 176.606 111.357C176.573 111.362 176.54 111.361 176.509 111.353L139.72 102.874C139.709 102.872 139.699 102.869 139.689 102.865ZM132.933 129.47C132.876 129.448 132.829 129.406 132.803 129.351C132.777 129.296 132.773 129.234 132.792 129.176C132.811 129.118 132.851 129.069 132.905 129.038C132.959 129.007 133.023 128.998 133.083 129.011L168.237 137.113C168.268 137.12 168.298 137.133 168.324 137.152C168.35 137.17 168.372 137.193 168.389 137.22C168.405 137.247 168.416 137.277 168.421 137.308C168.426 137.339 168.424 137.371 168.416 137.402C168.4 137.464 168.36 137.518 168.304 137.552C168.248 137.585 168.181 137.596 168.118 137.581L132.964 129.48C132.954 129.477 132.943 129.474 132.933 129.47ZM130.985 137.143C130.926 137.122 130.879 137.08 130.852 137.025C130.825 136.97 130.82 136.906 130.839 136.848C130.858 136.789 130.9 136.739 130.955 136.709C131.01 136.679 131.074 136.67 131.135 136.684L182.173 148.447C182.204 148.454 182.234 148.467 182.26 148.485C182.286 148.504 182.308 148.527 182.324 148.554C182.341 148.581 182.352 148.611 182.357 148.642C182.361 148.673 182.36 148.705 182.352 148.736C182.336 148.798 182.296 148.852 182.24 148.885C182.184 148.919 182.117 148.93 182.054 148.915L131.016 137.153C131.005 137.15 130.995 137.147 130.985 137.143ZM124.229 163.749C124.172 163.727 124.125 163.684 124.099 163.629C124.073 163.575 124.069 163.512 124.088 163.454C124.107 163.396 124.147 163.347 124.201 163.316C124.255 163.286 124.319 163.276 124.379 163.29L159.533 171.391C159.564 171.398 159.594 171.412 159.62 171.43C159.646 171.449 159.668 171.472 159.684 171.499C159.701 171.526 159.712 171.555 159.717 171.587C159.722 171.618 159.72 171.65 159.712 171.681C159.696 171.743 159.656 171.796 159.6 171.83C159.544 171.864 159.477 171.874 159.414 171.86L124.26 163.758C124.249 163.756 124.239 163.753 124.229 163.749ZM122.281 171.422C122.222 171.4 122.175 171.358 122.148 171.303C122.12 171.248 122.116 171.185 122.135 171.126C122.154 171.067 122.196 171.018 122.251 170.987C122.305 170.957 122.37 170.948 122.431 170.963L152.212 177.826C152.244 177.833 152.274 177.846 152.3 177.864C152.327 177.883 152.349 177.906 152.366 177.933C152.383 177.96 152.394 177.99 152.399 178.021C152.404 178.053 152.403 178.085 152.395 178.116C152.387 178.147 152.373 178.177 152.353 178.202C152.334 178.228 152.309 178.25 152.281 178.267C152.253 178.283 152.222 178.294 152.19 178.299C152.157 178.304 152.124 178.302 152.093 178.295L122.312 171.431C122.301 171.429 122.291 171.425 122.281 171.422Z" fill="#0A2446"/>
<path d="M122.522 48.9619L140.535 53.113L136.047 70.7906L118.034 66.6394L122.522 48.9619Z" fill="white"/>
<path d="M117.944 66.8638C117.888 66.8432 117.842 66.8034 117.815 66.7518C117.788 66.7003 117.78 66.6405 117.795 66.5836L122.283 48.9068C122.291 48.8761 122.305 48.847 122.324 48.8214C122.344 48.7957 122.368 48.7739 122.395 48.7573C122.423 48.7407 122.454 48.7295 122.486 48.7244C122.518 48.7193 122.55 48.7204 122.582 48.7276L140.594 52.8788C140.657 52.8934 140.712 52.932 140.745 52.9862C140.779 53.0405 140.789 53.1058 140.773 53.168L136.285 70.8449C136.277 70.8756 136.263 70.9047 136.244 70.9303C136.224 70.956 136.2 70.9778 136.173 70.9944C136.145 71.0111 136.114 71.0222 136.082 71.0273C136.05 71.0324 136.018 71.0313 135.986 71.0241L117.974 66.8729C117.964 66.8706 117.954 66.8675 117.944 66.8638ZM122.701 49.251L118.332 66.4594L135.867 70.5005L140.236 53.2922L122.701 49.251Z" fill="#0A2446"/>
<path d="M126.761 65.8622C126.617 65.8087 126.5 65.7039 126.432 65.5686L122.859 58.3936C122.788 58.251 122.779 58.0863 122.833 57.9355C122.887 57.7847 122.999 57.6601 123.146 57.5889C123.292 57.5176 123.46 57.5057 123.614 57.5555C123.768 57.6054 123.894 57.713 123.966 57.8549L127.183 64.3146L136.31 56.1761C136.431 56.0679 136.591 56.0107 136.754 56.017C136.917 56.0234 137.07 56.0928 137.179 56.2101C137.288 56.3273 137.344 56.4828 137.335 56.6422C137.327 56.8017 137.254 56.952 137.132 57.0603L127.397 65.7412C127.312 65.8169 127.208 65.8683 127.095 65.8897C126.983 65.911 126.867 65.9015 126.761 65.8622Z" fill="#EF6C67"/>
<path d="M113.818 83.2414L131.831 87.3926L127.343 105.07L109.33 100.919L113.818 83.2414Z" fill="white"/>
<path d="M109.239 101.142C109.184 101.122 109.138 101.082 109.111 101.03C109.083 100.979 109.076 100.919 109.09 100.862L113.579 83.1852C113.587 83.1544 113.601 83.1254 113.62 83.0997C113.639 83.0741 113.663 83.0523 113.691 83.0356C113.719 83.019 113.749 83.0078 113.781 83.0027C113.813 82.9977 113.846 82.9988 113.877 83.006L131.89 87.1572C131.953 87.1718 132.007 87.2105 132.041 87.2647C132.075 87.3189 132.085 87.3842 132.069 87.4464L127.58 105.123C127.573 105.154 127.559 105.183 127.539 105.209C127.52 105.234 127.496 105.256 127.468 105.273C127.441 105.289 127.41 105.301 127.378 105.306C127.346 105.311 127.313 105.31 127.282 105.302L109.27 101.151C109.259 101.149 109.249 101.146 109.239 101.142ZM113.997 83.5295L109.627 100.738L127.162 104.779L131.532 87.5706L113.997 83.5295Z" fill="#0A2446"/>
<path d="M118.016 100.067C117.872 100.014 117.754 99.9088 117.687 99.7734L114.113 92.5985C114.043 92.456 114.033 92.2913 114.087 92.1405C114.141 91.9897 114.253 91.865 114.4 91.7938C114.546 91.7226 114.715 91.7106 114.868 91.7605C115.022 91.8103 115.149 91.918 115.22 92.0599L118.438 98.5197L127.564 90.3812C127.686 90.273 127.845 90.2157 128.008 90.2221C128.171 90.2285 128.324 90.2979 128.433 90.4152C128.542 90.5324 128.598 90.6879 128.589 90.8473C128.581 91.0067 128.508 91.1571 128.386 91.2654L118.651 99.9463C118.566 100.022 118.462 100.073 118.35 100.095C118.237 100.116 118.122 100.106 118.016 100.067Z" fill="#EF6C67"/>
<path d="M105.115 117.521L123.128 121.672L118.639 139.35L100.626 135.199L105.115 117.521Z" fill="white"/>
<path d="M100.535 135.421C100.479 135.4 100.434 135.36 100.406 135.309C100.379 135.257 100.372 135.197 100.386 135.14L104.875 117.464C104.883 117.433 104.897 117.404 104.916 117.378C104.935 117.352 104.959 117.331 104.987 117.314C105.015 117.297 105.045 117.286 105.077 117.281C105.109 117.276 105.142 117.277 105.173 117.284L123.186 121.436C123.249 121.45 123.303 121.489 123.337 121.543C123.37 121.597 123.381 121.663 123.365 121.725L118.876 139.402C118.861 139.464 118.82 139.518 118.764 139.551C118.709 139.585 118.641 139.595 118.578 139.581L100.566 135.43C100.555 135.427 100.545 135.424 100.535 135.421ZM105.293 117.808L100.923 135.016L118.458 139.057L122.828 121.849L105.293 117.808Z" fill="#0A2446"/>
<path d="M109.311 134.345C109.167 134.292 109.05 134.187 108.982 134.052L105.409 126.877C105.339 126.734 105.329 126.57 105.383 126.419C105.437 126.268 105.549 126.143 105.696 126.072C105.842 126.001 106.011 125.989 106.164 126.039C106.318 126.089 106.444 126.196 106.516 126.338L109.734 132.798L118.86 124.66C118.981 124.551 119.141 124.494 119.304 124.5C119.467 124.507 119.62 124.576 119.729 124.693C119.838 124.811 119.894 124.966 119.885 125.126C119.877 125.285 119.804 125.435 119.682 125.544L109.947 134.225C109.862 134.3 109.758 134.352 109.646 134.373C109.533 134.394 109.418 134.385 109.311 134.345Z" fill="#EF6C67"/>
<path d="M96.4107 151.801L114.424 155.952L109.935 173.629L91.9223 169.478L96.4107 151.801Z" fill="white"/>
<path d="M91.8307 169.699C91.7751 169.678 91.7295 169.638 91.7022 169.587C91.6748 169.535 91.6678 169.475 91.6822 169.419L96.1708 151.742C96.1866 151.68 96.2268 151.626 96.2827 151.592C96.3386 151.559 96.4057 151.548 96.469 151.563L114.481 155.714C114.513 155.721 114.542 155.734 114.568 155.753C114.594 155.771 114.616 155.794 114.633 155.821C114.649 155.848 114.661 155.878 114.665 155.909C114.67 155.94 114.668 155.972 114.661 156.003L110.172 173.68C110.156 173.742 110.116 173.796 110.06 173.829C110.004 173.863 109.937 173.874 109.874 173.859L91.8614 169.708C91.851 169.706 91.8407 169.702 91.8307 169.699ZM96.5887 152.086L92.219 169.294L109.754 173.336L114.124 156.127L96.5887 152.086Z" fill="#0A2446"/>
<path d="M100.607 168.624C100.463 168.57 100.346 168.466 100.278 168.33L96.7045 161.155C96.6344 161.013 96.6252 160.848 96.679 160.697C96.7328 160.546 96.8452 160.422 96.9916 160.35C97.138 160.279 97.3064 160.267 97.4601 160.317C97.6139 160.367 97.7403 160.475 97.8118 160.617L101.03 167.076L110.156 158.938C110.277 158.83 110.437 158.772 110.6 158.779C110.763 158.785 110.916 158.855 111.025 158.972C111.134 159.089 111.19 159.244 111.181 159.404C111.173 159.563 111.099 159.714 110.978 159.822L101.243 168.503C101.158 168.579 101.054 168.63 100.942 168.651C100.829 168.673 100.714 168.663 100.607 168.624Z" fill="#EF6C67"/>
</g>
<g clip-path="url(#clip3_779_6401)">
<path d="M47.3136 219.154C55.5975 208.743 66.0861 199.224 77.3412 190.723C102.843 170.392 74.6808 133.766 47.5661 152.113C34.2873 162.117 22.7628 172.422 13.1025 183.492C20.0981 201.421 31.0608 213.829 47.3136 219.154Z" fill="white"/>
<path d="M47.2995 219.395C47.2777 219.393 47.2558 219.389 47.2345 219.382C39.2734 216.774 32.3156 212.344 26.5545 206.213C21.05 200.356 16.4466 192.74 12.8718 183.578C12.8561 183.538 12.8518 183.494 12.8593 183.451C12.8669 183.409 12.8861 183.369 12.9149 183.336C22.2083 172.686 33.4937 162.411 47.4156 151.922L47.4259 151.915C53.7767 147.618 60.6453 146.026 67.2891 147.31C73.2033 148.453 78.5622 151.81 82.3785 156.763C86.1954 161.717 88.0167 167.678 87.507 173.549C86.9347 180.142 83.4734 186.145 77.4972 190.909C65.1946 200.202 55.1068 209.753 47.5086 219.301C47.4579 219.365 47.3792 219.399 47.2995 219.395ZM13.3856 183.539C16.9306 192.584 21.4835 200.102 26.9189 205.887C32.5831 211.914 39.4147 216.282 47.2269 218.871C54.8381 209.335 64.9179 199.802 77.1904 190.533C83.0549 185.857 86.4539 179.969 87.0146 173.51C87.5139 167.757 85.727 161.913 81.9831 157.054C78.2397 152.195 72.9866 148.903 67.1914 147.783C60.6841 146.525 53.9479 148.09 47.7116 152.308C33.8672 162.738 22.6373 172.955 13.3856 183.539Z" fill="#0A2446"/>
<path d="M75.0057 192.51C75.0057 192.51 91.1922 181.633 94.0463 180.422C96.302 179.465 111.13 176.475 115.037 175.865C123.586 174.53 122.464 163.202 114.624 163.948C110.179 164.371 94.1796 165.882 90.7491 167.154C86.2361 168.828 77.4968 174.226 77.4968 174.226" fill="white"/>
<path d="M74.9918 192.751C74.9403 192.748 74.891 192.73 74.8509 192.699C74.8107 192.667 74.7817 192.624 74.7678 192.576C74.754 192.528 74.756 192.476 74.7736 192.429C74.7912 192.381 74.8236 192.341 74.8661 192.312C75.5279 191.867 91.1051 181.407 93.9484 180.201C96.1958 179.247 111.041 176.245 114.999 175.627C119.428 174.935 121.056 171.592 120.694 168.778C120.368 166.238 118.371 163.834 114.647 164.188L114.488 164.203C101.023 165.484 93.0657 166.553 90.8362 167.38C86.3984 169.026 77.7156 174.376 77.6285 174.43C77.573 174.464 77.506 174.475 77.4421 174.461C77.3782 174.447 77.3227 174.409 77.2878 174.355C77.2528 174.301 77.2414 174.236 77.2559 174.173C77.2704 174.111 77.3097 174.057 77.3651 174.022C77.4528 173.968 86.1775 168.592 90.6619 166.929C92.9324 166.087 100.933 165.008 114.441 163.724L114.6 163.708C116.416 163.536 118.012 163.982 119.217 165C120.294 165.91 120.993 167.23 121.184 168.717C121.395 170.357 120.977 171.988 120.006 173.311C118.91 174.805 117.205 175.77 115.075 176.103C111.133 176.719 96.3644 179.701 94.1439 180.643C91.3444 181.831 75.3068 192.6 75.1451 192.709C75.1002 192.739 75.0462 192.754 74.9918 192.751Z" fill="#0A2446"/>
<path d="M77.4715 176.839C77.4715 176.839 90.1359 168.705 92.5712 168.378C95.0064 168.052 109.561 167.031 113.514 166.914C122.164 166.658 121.287 155.328 113.416 155.088C108.954 154.952 91.2204 154.901 87.6253 155.612C84.0302 156.324 73.4365 163.049 73.4365 163.049" fill="white"/>
<path d="M77.4575 177.08C77.4056 177.077 77.3559 177.058 77.3156 177.027C77.2753 176.995 77.2463 176.951 77.2329 176.902C77.2194 176.853 77.2222 176.801 77.2407 176.754C77.2592 176.706 77.2926 176.666 77.3361 176.638C77.8551 176.304 90.0757 168.47 92.5382 168.14C95.0377 167.805 109.54 166.79 113.507 166.673C115.38 166.618 116.925 166.015 117.976 164.931C118.901 163.978 119.413 162.679 119.418 161.273C119.429 158.411 117.365 155.45 113.407 155.33C109.12 155.199 91.3045 155.13 87.6735 155.849C84.1655 156.543 73.6762 163.184 73.5706 163.251C73.5434 163.269 73.5128 163.281 73.4808 163.287C73.4488 163.293 73.4159 163.293 73.384 163.286C73.3521 163.28 73.3218 163.267 73.2949 163.249C73.2681 163.231 73.2451 163.208 73.2274 163.182C73.2097 163.155 73.1976 163.125 73.1917 163.094C73.1859 163.063 73.1865 163.031 73.1935 163C73.2004 162.968 73.2136 162.939 73.2323 162.913C73.2509 162.887 73.2747 162.864 73.3022 162.847C73.7364 162.572 83.9767 156.089 87.5768 155.376C91.2438 154.651 109.125 154.717 113.425 154.848C115.385 154.909 117.054 155.634 118.253 156.948C119.314 158.111 119.919 159.687 119.913 161.274C119.907 162.803 119.347 164.219 118.335 165.262C117.191 166.441 115.527 167.095 113.521 167.155C109.561 167.272 95.0955 168.283 92.604 168.617C90.7217 168.869 81.971 174.237 77.6069 177.04C77.5627 177.069 77.5103 177.083 77.4575 177.08Z" fill="#0A2446"/>
<path d="M72.0012 166.394C72.0012 166.394 84.1843 157.938 86.6412 157.906C89.0981 157.875 104.118 157.295 108.071 157.375C116.722 157.549 116.438 146.19 108.591 145.558C104.143 145.2 87.0002 144.364 83.3441 144.639C79.688 144.913 67.5776 152.89 67.5776 152.89" fill="white"/>
<path d="M71.9873 166.635C71.9361 166.632 71.8871 166.614 71.847 166.583C71.8069 166.552 71.7778 166.509 71.7636 166.461C71.7495 166.413 71.751 166.362 71.768 166.315C71.785 166.268 71.8166 166.227 71.8585 166.198C72.3585 165.851 84.1334 157.698 86.6387 157.665C87.4305 157.655 89.5162 157.589 92.1567 157.504C97.7435 157.325 105.395 157.08 108.077 157.134C109.95 157.172 111.525 156.647 112.631 155.617C113.604 154.711 114.183 153.439 114.262 152.035C114.422 149.176 112.519 146.116 108.57 145.799C103.783 145.414 86.9449 144.61 83.3624 144.879C79.8126 145.146 67.836 153.011 67.7154 153.09C67.661 153.126 67.5944 153.139 67.5301 153.127C67.4658 153.115 67.4092 153.078 67.3726 153.025C67.3545 152.999 67.3419 152.97 67.3355 152.939C67.3291 152.908 67.329 152.876 67.3353 152.845C67.3415 152.814 67.354 152.784 67.3719 152.758C67.3899 152.731 67.413 152.708 67.44 152.691C67.4703 152.671 70.5132 150.67 73.9639 148.661C78.6215 145.949 81.7714 144.515 83.3261 144.399C87.1046 144.115 104.432 144.982 108.613 145.318C110.566 145.475 112.196 146.284 113.324 147.656C114.323 148.87 114.844 150.475 114.755 152.06C114.597 154.889 112.467 157.705 108.066 157.616C105.397 157.562 97.7527 157.807 92.1715 157.986C89.5282 158.07 87.4405 158.137 86.6439 158.148C86.0972 158.155 84.3165 158.712 78.5352 162.364C75.225 164.454 72.1747 166.569 72.1442 166.59C72.0985 166.622 72.0432 166.638 71.9873 166.635Z" fill="#0A2446"/>
<path d="M67.2564 155.767C67.2564 155.767 79.8296 148.844 82.1191 147.967C84.4977 147.055 103.187 145.249 107.125 144.878C115.741 144.065 114.098 132.819 106.227 133.087C101.765 133.239 80.1796 136.15 76.5148 136.915C72.9276 137.664 47.566 152.113 47.566 152.113" fill="white"/>
<path d="M67.2425 156.008C67.1891 156.005 67.1382 155.986 67.0973 155.952C67.0565 155.919 67.0279 155.873 67.0158 155.822C67.0038 155.772 67.0089 155.718 67.0305 155.671C67.0521 155.623 67.089 155.583 67.1356 155.557C67.6496 155.274 79.7501 148.616 82.0295 147.742C84.4654 146.809 103.342 144.992 107.102 144.637C108.967 144.462 110.469 143.761 111.445 142.612C112.303 141.601 112.726 140.273 112.636 138.87C112.453 136.014 110.195 133.193 106.235 133.328C101.795 133.479 80.2591 136.379 76.5659 137.151C73.0581 137.883 47.9435 152.177 47.6902 152.321C47.6336 152.353 47.5663 152.362 47.5031 152.346C47.44 152.329 47.3861 152.289 47.3532 152.234C47.3204 152.179 47.3113 152.114 47.328 152.052C47.3446 151.99 47.3857 151.937 47.4421 151.905C48.479 151.314 72.8792 137.428 76.464 136.679C80.167 135.906 101.765 132.997 106.219 132.846C108.178 132.779 109.895 133.396 111.18 134.63C112.317 135.722 113.028 137.256 113.129 138.838C113.311 141.666 111.531 144.704 107.148 145.118C104.851 145.334 84.6337 147.262 82.2088 148.191C79.9615 149.053 67.5029 155.908 67.3773 155.977C67.3362 156 67.2895 156.01 67.2425 156.008Z" fill="#0A2446"/>
<path d="M57.7457 207.568C42.0518 204.074 22.7779 188.81 18.9794 177.086C15.0749 180.855 11.6923 184.658 7.99178 188.521C11.7902 200.246 31.6199 215.66 47.3137 219.154C50.4724 215.252 53.5971 211.685 57.7457 207.568Z" fill="white"/>
<path d="M47.2994 219.395C47.2856 219.394 47.2716 219.392 47.2578 219.389C39.7365 217.715 30.9085 213.24 23.0374 207.113C15.1493 200.972 9.57937 194.222 7.75602 188.594C7.74281 188.553 7.74097 188.51 7.75069 188.468C7.76041 188.426 7.78133 188.388 7.81132 188.357C9.00015 187.116 10.1734 185.862 11.3079 184.651C13.6894 182.107 16.152 179.476 18.8056 176.915C18.8357 176.886 18.873 176.864 18.9137 176.853C18.9545 176.842 18.9975 176.842 19.0385 176.852C19.0796 176.861 19.1173 176.881 19.1481 176.909C19.179 176.938 19.2019 176.973 19.2146 177.012C21.0158 182.572 26.4257 189.211 34.0571 195.226C41.7222 201.267 50.3765 205.68 57.801 207.333C57.8438 207.342 57.8832 207.363 57.9151 207.392C57.947 207.421 57.9703 207.459 57.9825 207.5C57.9948 207.541 57.9955 207.584 57.9847 207.626C57.9739 207.668 57.952 207.706 57.9211 207.736C54.178 211.451 51.0635 214.91 47.5069 219.303C47.4566 219.365 47.3788 219.399 47.2994 219.395ZM8.2712 188.581C12.1292 200.143 31.6762 215.355 47.2172 218.885C50.6476 214.655 53.6756 211.284 57.2622 207.705C49.8642 205.965 41.3208 201.571 33.746 195.601C26.2103 189.662 20.8139 183.101 18.869 177.532C16.3318 179.998 13.9645 182.527 11.6723 184.975C10.5685 186.154 9.42797 187.372 8.2712 188.581Z" fill="#0A2446"/>
<path d="M43.9401 186.721C51.5484 182.587 54.3721 168.58 49.4407 159.348C49.4407 159.348 50.3722 142.214 50.3597 132.395C50.3498 124.66 40.2544 124.676 39.1006 131.798C38.6862 134.355 36.599 149.333 35.1057 154.324C33.8283 158.593 33.2032 163.486 30.9607 165.626" fill="white"/>
<path d="M43.9262 186.961C43.8727 186.959 43.8216 186.939 43.7807 186.905C43.7397 186.872 43.7111 186.826 43.6992 186.775C43.6873 186.724 43.6927 186.671 43.7146 186.623C43.7364 186.575 43.7736 186.535 43.8205 186.51C51.2975 182.447 54.0737 168.543 49.2216 159.46C49.2012 159.422 49.1917 159.379 49.194 159.336C49.2033 159.165 50.1251 142.097 50.1126 132.396C50.1078 128.503 47.5714 126.937 45.4008 126.779C41.9997 126.527 39.782 129.135 39.3445 131.835C39.274 132.27 39.1521 133.085 38.9978 134.116C38.2149 139.349 36.5859 150.236 35.3428 154.391C35.0129 155.493 34.7233 156.651 34.4433 157.771C33.6211 161.06 32.8443 164.165 31.1331 165.798C31.0861 165.843 31.023 165.868 30.9575 165.867C30.8919 165.866 30.8295 165.84 30.7837 165.795C30.738 165.749 30.7128 165.688 30.7137 165.624C30.7146 165.56 30.7414 165.499 30.7883 165.454C32.3981 163.918 33.1584 160.877 33.9633 157.658C34.2447 156.533 34.5356 155.37 34.8687 154.257C36.1021 150.134 37.7277 139.269 38.509 134.048C38.6636 133.015 38.7855 132.199 38.8566 131.761C39.1446 129.983 39.9908 128.518 41.3037 127.524C42.4903 126.625 43.9613 126.189 45.4394 126.298C46.8416 126.4 48.1185 126.994 49.0347 127.971C50.0609 129.065 50.6046 130.594 50.6069 132.394C50.6188 141.802 49.7539 158.122 49.6911 159.294C52.0414 163.732 52.7502 169.449 51.6354 174.991C50.5125 180.573 47.7514 184.925 44.0601 186.931C44.0174 186.954 43.9712 186.964 43.9262 186.961Z" fill="#0A2446"/>
</g>
<g clip-path="url(#clip4_779_6401)">
<path d="M100.344 74.6652L36.9639 85.1166C34.3865 85.5416 32.6522 87.9135 33.0902 90.4144L46.8006 168.695C47.2386 171.195 49.6831 172.878 52.2605 172.453L115.641 162.002C118.218 161.577 119.952 159.205 119.514 156.704L105.804 78.4239C105.366 75.923 102.922 74.2402 100.344 74.6652Z" fill="white"/>
<path d="M51.4569 172.76C50.4333 172.76 49.4369 172.453 48.5852 171.867C47.5 171.12 46.7796 170.007 46.5567 168.735L32.8461 90.4545C32.6231 89.1817 32.9244 87.9009 33.6943 86.8479C34.4642 85.7949 35.6107 85.0959 36.9224 84.8796L100.303 74.4281C101.614 74.2118 102.934 74.5041 104.02 75.2512C105.105 75.9982 105.825 77.1106 106.048 78.3834L119.759 156.664C119.982 157.936 119.681 159.217 118.911 160.27C118.141 161.323 116.994 162.022 115.683 162.239L52.3023 172.69C52.023 172.736 51.7402 172.759 51.4569 172.76ZM101.147 74.8393C100.892 74.8394 100.637 74.8603 100.386 74.9019L37.0053 85.3535C35.824 85.5482 34.7917 86.1777 34.0982 87.1261C33.4048 88.0743 33.1335 89.2279 33.3344 90.3741L47.0449 168.654C47.2456 169.801 47.8945 170.802 48.8717 171.475C49.8491 172.148 51.038 172.411 52.2192 172.216L115.599 161.765C116.781 161.57 117.813 160.941 118.507 159.992C119.2 159.044 119.471 157.89 119.27 156.744L105.56 78.4639C105.359 77.3177 104.71 76.3158 103.733 75.6431C102.966 75.115 102.069 74.8393 101.147 74.8393H101.147Z" fill="#0A2446"/>
<path d="M40.906 92.2599L99.0554 82.671L100.813 92.7067L42.6636 102.295L40.906 92.2599Z" fill="#0A2446"/>
<path d="M42.6637 102.536C42.6052 102.536 42.5486 102.516 42.5039 102.479C42.4592 102.443 42.4294 102.392 42.4197 102.336L40.662 92.3C40.6565 92.2689 40.6574 92.237 40.6647 92.2063C40.6719 92.1755 40.6853 92.1464 40.7041 92.1207C40.723 92.0949 40.7468 92.073 40.7744 92.0562C40.8019 92.0395 40.8326 92.0281 40.8647 92.0228L99.0141 82.4339C99.0461 82.4285 99.079 82.4294 99.1107 82.4364C99.1424 82.4433 99.1724 82.4563 99.199 82.4746C99.2255 82.4929 99.2481 82.516 99.2653 82.5428C99.2826 82.5695 99.2943 82.5993 99.2996 82.6305L101.057 92.6662C101.063 92.6973 101.062 92.7292 101.055 92.76C101.047 92.7907 101.034 92.8198 101.015 92.8456C100.996 92.8713 100.972 92.8932 100.945 92.91C100.917 92.9268 100.887 92.9381 100.855 92.9434L42.7052 102.532C42.6915 102.535 42.6776 102.536 42.6637 102.536ZM41.1917 92.4564L42.8665 102.018L100.528 92.51L98.8527 82.948L41.1917 92.4564Z" fill="#0A2446"/>
<path d="M53.3857 117.251L43.6053 118.864C42.594 119.031 41.9135 119.962 42.0854 120.943L43.08 126.621C43.2518 127.603 44.211 128.263 45.2223 128.096L55.0026 126.483C56.014 126.317 56.6945 125.386 56.5226 124.405L55.528 118.726C55.3562 117.745 54.397 117.085 53.3857 117.251Z" fill="#0A2446"/>
<path d="M44.9104 128.362C43.9031 128.362 43.0104 127.657 42.8361 126.662L41.8415 120.983C41.7945 120.719 41.8019 120.448 41.8635 120.186C41.925 119.924 42.0394 119.677 42.2 119.459C42.3594 119.24 42.5621 119.053 42.7963 118.91C43.0304 118.768 43.2915 118.671 43.5642 118.627L53.3446 117.014C54.489 116.826 55.5781 117.575 55.7725 118.686L56.7671 124.364C56.8142 124.629 56.8068 124.9 56.7452 125.161C56.6837 125.423 56.5693 125.67 56.4086 125.889C56.2492 126.108 56.0466 126.294 55.8124 126.437C55.5782 126.58 55.3172 126.676 55.0444 126.72L45.2641 128.333C45.1454 128.353 45.027 128.362 44.9105 128.362L44.9104 128.362ZM53.7005 117.466C53.6099 117.466 53.5186 117.473 53.4273 117.488L43.647 119.101C42.772 119.245 42.181 120.053 42.3297 120.902L43.3243 126.581C43.4731 127.43 44.3057 128.004 45.1811 127.859L54.9613 126.247C55.3852 126.177 55.7558 125.951 56.0046 125.61C56.2533 125.27 56.3507 124.856 56.2786 124.445L55.284 118.766C55.2491 118.564 55.1733 118.37 55.0607 118.197C54.9482 118.023 54.8013 117.872 54.6285 117.754C54.3576 117.567 54.0333 117.466 53.7005 117.466Z" fill="#0A2446"/>
<path d="M70.7787 114.383L60.9984 115.996C59.9871 116.163 59.3066 117.093 59.4784 118.075L60.473 123.753C60.6449 124.735 61.6041 125.395 62.6154 125.228L72.3957 123.615C73.407 123.449 74.0875 122.518 73.9157 121.537L72.9211 115.858C72.7492 114.877 71.7901 114.216 70.7787 114.383Z" fill="#0A2446"/>
<path d="M62.3033 125.494C61.2962 125.494 60.4034 124.789 60.2292 123.794L59.2346 118.115C59.1875 117.85 59.195 117.58 59.2565 117.318C59.3181 117.056 59.4325 116.809 59.5931 116.591C59.7525 116.371 59.9552 116.185 60.1893 116.042C60.4235 115.9 60.6845 115.803 60.9573 115.759L70.7376 114.146C71.8822 113.958 72.9712 114.707 73.1656 115.818L74.1602 121.496C74.3547 122.607 73.5819 123.664 72.4375 123.852L62.6572 125.465C62.5385 125.485 62.4201 125.494 62.3034 125.494L62.3033 125.494ZM71.091 114.598C71.0017 114.598 70.9114 114.605 70.8204 114.62L61.0401 116.233C60.1652 116.377 59.5741 117.185 59.7229 118.034L60.7174 123.713C60.8663 124.562 61.6984 125.135 62.5742 124.991L72.3545 123.378C73.2296 123.234 73.8205 122.426 73.6718 121.577L72.6772 115.898C72.544 115.137 71.8612 114.598 71.091 114.598Z" fill="#0A2446"/>
<path d="M88.172 111.515L78.3917 113.128C77.3804 113.295 76.6999 114.225 76.8717 115.207L77.8663 120.885C78.0382 121.867 78.9974 122.527 80.0087 122.36L89.789 120.747C90.8003 120.581 91.4809 119.65 91.309 118.669L90.3144 112.99C90.1425 112.009 89.1834 111.348 88.172 111.515Z" fill="#0A2446"/>
<path d="M79.6929 122.626C79.2578 122.626 78.8336 122.494 78.4794 122.249C78.2534 122.094 78.0613 121.898 77.9142 121.67C77.767 121.443 77.6678 121.19 77.6223 120.925L76.6277 115.247C76.5806 114.982 76.588 114.711 76.6496 114.45C76.7111 114.188 76.8255 113.941 76.9862 113.723C77.1456 113.503 77.3483 113.317 77.5824 113.174C77.8166 113.031 78.0776 112.935 78.3504 112.891L88.1307 111.278C89.2748 111.089 90.3641 111.839 90.5587 112.95L91.5533 118.628C91.7477 119.738 90.975 120.795 89.8306 120.984L80.0502 122.597C79.9309 122.617 79.8116 122.626 79.6929 122.626V122.626ZM88.4841 111.73C88.3948 111.73 88.3044 111.737 88.2135 111.752L78.4332 113.365C78.2246 113.398 78.025 113.472 77.846 113.581C77.6669 113.69 77.5119 113.833 77.39 114.001C77.2672 114.168 77.1797 114.357 77.1327 114.557C77.0856 114.757 77.0799 114.964 77.116 115.166L78.1105 120.845C78.1826 121.256 78.4154 121.616 78.7661 121.857C79.1168 122.098 79.543 122.193 79.9672 122.123L89.7476 120.51C90.6226 120.366 91.2136 119.558 91.0649 118.708L90.0703 113.03C89.9369 112.269 89.2543 111.73 88.4841 111.73Z" fill="#0A2446"/>
<path d="M55.6921 130.419L45.9117 132.032C44.9004 132.199 44.2199 133.129 44.3918 134.111L45.3863 139.789C45.5582 140.771 46.5174 141.431 47.5287 141.264L57.309 139.651C58.3204 139.485 59.0009 138.554 58.829 137.573L57.8344 131.894C57.6626 130.913 56.7034 130.252 55.6921 130.419Z" fill="white"/>
<path d="M47.2166 141.53C46.2095 141.53 45.3167 140.824 45.1425 139.83L44.1479 134.151C43.9534 133.041 44.7262 131.984 45.8706 131.795L55.6509 130.182C56.7948 129.993 57.8843 130.743 58.0789 131.854L59.0735 137.532C59.1205 137.797 59.1131 138.068 59.0515 138.329C58.99 138.591 58.8756 138.838 58.715 139.056C58.5556 139.276 58.3529 139.462 58.1187 139.605C57.8846 139.748 57.6235 139.844 57.3508 139.888L47.5704 141.501C47.4516 141.521 47.3332 141.53 47.2166 141.53ZM56.0043 130.634C55.915 130.634 55.8246 130.641 55.7337 130.656L45.9534 132.269C45.0783 132.413 44.4874 133.221 44.6361 134.07L45.6307 139.749C45.7794 140.598 46.6119 141.171 47.4874 141.027L57.2678 139.414C58.1428 139.27 58.7338 138.462 58.5851 137.613L57.5905 131.934C57.4571 131.173 56.7745 130.634 56.0043 130.634Z" fill="#0A2446"/>
<path d="M73.0851 127.551L63.3048 129.164C62.2935 129.331 61.613 130.261 61.7848 131.243L62.7794 136.921C62.9513 137.902 63.9104 138.563 64.9218 138.396L74.7021 136.783C75.7134 136.616 76.3939 135.686 76.2221 134.704L75.2275 129.026C75.0556 128.045 74.0965 127.384 73.0851 127.551Z" fill="white"/>
<path d="M64.6096 138.662C63.6024 138.662 62.7096 137.956 62.5354 136.961L61.5408 131.283C61.4937 131.018 61.5011 130.748 61.5627 130.486C61.6242 130.224 61.7386 129.977 61.8993 129.759C62.0587 129.539 62.2613 129.353 62.4955 129.21C62.7297 129.067 62.9907 128.971 63.2635 128.927L73.0439 127.314C74.189 127.125 75.2774 127.875 75.4719 128.986L76.4665 134.664C76.5135 134.929 76.5061 135.2 76.4446 135.461C76.383 135.723 76.2686 135.97 76.108 136.188C75.9486 136.408 75.7459 136.594 75.5118 136.737C75.2776 136.88 75.0166 136.976 74.7438 137.02L64.9634 138.633C64.8446 138.653 64.7263 138.662 64.6097 138.662L64.6096 138.662ZM73.3972 127.766C73.3079 127.766 73.2176 127.773 73.1266 127.788L63.3462 129.401C62.9223 129.471 62.5518 129.696 62.3031 130.037C62.0543 130.377 61.957 130.791 62.029 131.202L63.0236 136.881C63.1725 137.73 64.005 138.303 64.8804 138.159L74.6608 136.546C75.5358 136.402 76.1268 135.594 75.9781 134.745L74.9835 129.066C74.8502 128.305 74.1674 127.766 73.3973 127.766H73.3972Z" fill="#0A2446"/>
<path d="M90.4784 124.683L80.6981 126.296C79.6868 126.463 79.0063 127.393 79.1781 128.375L80.1727 134.053C80.3446 135.034 81.3038 135.695 82.3151 135.528L92.0954 133.915C93.1067 133.748 93.7873 132.818 93.6154 131.836L92.6208 126.158C92.4489 125.177 91.4898 124.516 90.4784 124.683Z" fill="white"/>
<path d="M82.0028 135.794C80.9957 135.794 80.1029 135.088 79.9287 134.093L78.9341 128.415C78.887 128.15 78.8945 127.879 78.956 127.618C79.0175 127.356 79.1319 127.109 79.2926 126.89C79.452 126.671 79.6546 126.485 79.8888 126.342C80.123 126.199 80.384 126.103 80.6568 126.059L90.4372 124.446C91.5819 124.257 92.6706 125.007 92.8652 126.117L93.8598 131.796C94.0543 132.906 93.2815 133.963 92.1372 134.152L82.3568 135.765C82.238 135.784 82.1197 135.794 82.003 135.794L82.0028 135.794ZM90.7904 124.897C90.7012 124.897 90.6109 124.905 90.5199 124.92L80.7395 126.532C79.8645 126.677 79.2735 127.485 79.4222 128.334L80.4168 134.013C80.5656 134.862 81.3984 135.435 82.2736 135.291L92.054 133.678C92.9289 133.534 93.52 132.726 93.3713 131.876L92.3767 126.198C92.2433 125.437 91.5605 124.897 90.7904 124.897Z" fill="#0A2446"/>
<path d="M57.9985 143.587L48.2181 145.2C47.2068 145.367 46.5263 146.297 46.6982 147.279L47.6927 152.957C47.8646 153.939 48.8238 154.599 49.8351 154.432L59.6154 152.819C60.6268 152.653 61.3073 151.722 61.1354 150.741L60.1408 145.062C59.9689 144.081 59.0098 143.42 57.9985 143.587Z" fill="white"/>
<path d="M49.5194 154.698C49.0843 154.698 48.6601 154.566 48.3059 154.321C48.0799 154.166 47.8878 153.97 47.7406 153.743C47.5935 153.515 47.4942 153.262 47.4486 152.997L46.4541 147.319C46.2595 146.209 47.0322 145.152 48.1766 144.963L57.957 143.35C58.2295 143.304 58.5087 143.312 58.7783 143.371C59.0479 143.431 59.3027 143.542 59.5278 143.698C59.7538 143.853 59.9459 144.049 60.093 144.277C60.2402 144.504 60.3394 144.757 60.385 145.022L61.3796 150.7C61.5741 151.811 60.8015 152.867 59.657 153.056L49.8766 154.669C49.7574 154.689 49.638 154.698 49.5194 154.698V154.698ZM58.3131 143.801C58.2225 143.801 58.1312 143.809 58.04 143.824L48.2596 145.437C47.3845 145.581 46.7936 146.389 46.9423 147.238L47.9369 152.917C48.009 153.328 48.2418 153.688 48.5924 153.929C48.9431 154.171 49.3694 154.265 49.7937 154.195L59.5741 152.582C60.4492 152.438 61.0401 151.63 60.8914 150.781L59.8968 145.102C59.8619 144.9 59.786 144.706 59.6735 144.532C59.561 144.359 59.414 144.208 59.2412 144.09C58.9703 143.902 58.6459 143.801 58.3131 143.801Z" fill="#0A2446"/>
<path d="M75.3915 140.719L65.6112 142.332C64.5999 142.498 63.9194 143.429 64.0912 144.41L65.0858 150.089C65.2577 151.07 66.2168 151.731 67.2282 151.564L77.0085 149.951C78.0198 149.784 78.7003 148.854 78.5285 147.872L77.5339 142.194C77.362 141.212 76.4028 140.552 75.3915 140.719Z" fill="white"/>
<path d="M66.9158 151.83C65.9087 151.83 65.0159 151.124 64.8417 150.129L63.8471 144.451C63.6527 143.34 64.4254 142.284 65.5698 142.095L75.3502 140.482C75.9043 140.39 76.4621 140.514 76.9209 140.83C77.1469 140.984 77.339 141.181 77.4862 141.408C77.6333 141.636 77.7325 141.889 77.7781 142.153L78.7726 147.832C78.8197 148.097 78.8123 148.367 78.7508 148.629C78.6892 148.891 78.5748 149.138 78.4142 149.356C78.2547 149.576 78.0521 149.762 77.8179 149.905C77.5838 150.048 77.3227 150.144 77.05 150.188L67.2697 151.801C67.1509 151.82 67.0325 151.83 66.9159 151.83L66.9158 151.83ZM75.7062 140.933C75.6155 140.933 75.5243 140.941 75.433 140.956L65.6526 142.569C64.7776 142.713 64.1866 143.521 64.3353 144.37L65.3299 150.049C65.4786 150.898 66.3111 151.471 67.1867 151.327L76.967 149.714C77.1756 149.68 77.3752 149.607 77.5543 149.498C77.7333 149.388 77.8883 149.246 78.0102 149.078C78.1331 148.911 78.2205 148.722 78.2676 148.522C78.3146 148.322 78.3203 148.115 78.2843 147.913L77.2897 142.234C77.2548 142.031 77.1789 141.838 77.0664 141.664C76.9539 141.49 76.8069 141.34 76.6341 141.222C76.3633 141.034 76.0389 140.933 75.7062 140.933Z" fill="#0A2446"/>
<path d="M92.7846 137.851L83.0043 139.464C81.9929 139.63 81.3124 140.561 81.4843 141.542L82.4789 147.221C82.6507 148.202 83.6099 148.863 84.6212 148.696L94.4016 147.083C95.4129 146.916 96.0934 145.986 95.9215 145.004L94.9269 139.326C94.7551 138.344 93.7959 137.684 92.7846 137.851Z" fill="white"/>
<path d="M84.3091 148.962C83.3019 148.962 82.4091 148.256 82.2348 147.261L81.2403 141.583C81.1932 141.318 81.2006 141.047 81.2621 140.786C81.3237 140.524 81.4381 140.277 81.5987 140.058C81.7581 139.839 81.9608 139.653 82.195 139.51C82.4291 139.367 82.6902 139.271 82.963 139.227L92.7432 137.614C93.8871 137.425 94.9767 138.175 95.1712 139.285L96.1658 144.964C96.2129 145.228 96.2054 145.499 96.1439 145.761C96.0824 146.023 95.968 146.27 95.8073 146.488C95.6479 146.707 95.4453 146.894 95.2111 147.037C94.9769 147.179 94.7159 147.276 94.4431 147.32L84.6629 148.933C84.5441 148.952 84.4257 148.962 84.3091 148.962ZM93.0966 138.065C93.0073 138.065 92.9171 138.073 92.8261 138.088L83.0458 139.7C82.6219 139.77 82.2513 139.996 82.0025 140.336C81.7538 140.677 81.6564 141.091 81.7285 141.502L82.7231 147.181C82.8718 148.03 83.7039 148.602 84.5799 148.459L94.3602 146.846C95.2351 146.702 95.8262 145.894 95.6774 145.044L94.6829 139.366C94.5496 138.605 93.8667 138.065 93.0966 138.065Z" fill="#0A2446"/>
<path d="M60.3046 156.755L50.5243 158.368C49.513 158.534 48.8324 159.465 49.0043 160.446L49.9989 166.125C50.1708 167.106 51.1299 167.767 52.1413 167.6L61.9216 165.987C62.9329 165.82 63.6134 164.89 63.4416 163.908L62.447 158.23C62.2751 157.248 61.3159 156.588 60.3046 156.755Z" fill="white"/>
<path d="M51.8259 167.866C51.3908 167.866 50.9665 167.734 50.6124 167.489C50.3863 167.334 50.1942 167.138 50.0471 166.91C49.8999 166.683 49.8007 166.43 49.7551 166.165L48.7605 160.487C48.7134 160.222 48.7209 159.951 48.7824 159.69C48.8439 159.428 48.9583 159.181 49.119 158.962C49.2784 158.743 49.4811 158.557 49.7152 158.414C49.9494 158.271 50.2104 158.175 50.4832 158.131L60.2635 156.518C60.536 156.472 60.8152 156.48 61.0848 156.539C61.3545 156.599 61.6092 156.71 61.8344 156.866C62.0604 157.021 62.2525 157.217 62.3996 157.444C62.5467 157.672 62.6459 157.925 62.6915 158.19L63.6861 163.868C63.8806 164.978 63.1078 166.035 61.9634 166.224L52.1831 167.837C52.0639 167.857 51.9445 167.866 51.8259 167.866V167.866ZM60.6196 156.969C60.529 156.969 60.4377 156.977 60.3464 156.992L50.5662 158.605C50.1423 158.674 49.7717 158.9 49.5229 159.241C49.2742 159.581 49.1768 159.995 49.2489 160.406L50.2435 166.085C50.3155 166.496 50.5483 166.856 50.899 167.097C51.2497 167.338 51.6763 167.433 52.1003 167.363L61.8805 165.75C62.7556 165.606 63.3465 164.798 63.1978 163.948L62.2032 158.27C62.1684 158.067 62.0925 157.874 61.9799 157.7C61.8674 157.526 61.7205 157.376 61.5477 157.258C61.2768 157.07 60.9524 156.969 60.6196 156.969Z" fill="#0A2446"/>
<path d="M77.6977 153.887L67.9173 155.5C66.906 155.666 66.2255 156.597 66.3974 157.578L67.392 163.257C67.5638 164.238 68.523 164.899 69.5343 164.732L79.3147 163.119C80.326 162.952 81.0065 162.022 80.8346 161.04L79.84 155.362C79.6682 154.38 78.709 153.72 77.6977 153.887Z" fill="white"/>
<path d="M69.2188 164.998C68.7837 164.998 68.3595 164.866 68.0053 164.621C67.7793 164.466 67.5872 164.27 67.4401 164.042C67.2929 163.815 67.1937 163.562 67.1482 163.297L66.1536 157.619C66.1065 157.354 66.1139 157.083 66.1755 156.822C66.237 156.56 66.3514 156.313 66.5121 156.094C66.6715 155.875 66.8741 155.689 67.1083 155.546C67.3425 155.403 67.6035 155.307 67.8763 155.263L77.6565 153.65C78.8006 153.461 79.89 154.211 80.0846 155.321L81.0791 161C81.2735 162.11 80.5009 163.167 79.3565 163.356L69.5761 164.969C69.4568 164.988 69.3374 164.998 69.2188 164.998ZM78.01 154.101C77.9207 154.101 77.8303 154.109 77.7394 154.124L67.9591 155.736C67.7505 155.77 67.5509 155.844 67.3718 155.953C67.1928 156.062 67.0378 156.205 66.9159 156.372C66.793 156.54 66.7056 156.729 66.6585 156.929C66.6115 157.129 66.6058 157.336 66.6418 157.538L67.6364 163.217C67.6713 163.419 67.7472 163.613 67.8597 163.787C67.9722 163.96 68.1191 164.111 68.292 164.229C68.4641 164.348 68.6589 164.433 68.8651 164.479C69.0713 164.524 69.2847 164.53 69.4931 164.495L79.2735 162.882C80.1485 162.738 80.7395 161.929 80.5908 161.08L79.5962 155.402C79.4629 154.641 78.7802 154.101 78.01 154.101Z" fill="#0A2446"/>
<path d="M95.091 151.019L85.3107 152.632C84.2993 152.798 83.6188 153.729 83.7907 154.71L84.7853 160.389C84.9571 161.37 85.9163 162.03 86.9276 161.864L96.708 160.251C97.7193 160.084 98.3998 159.153 98.2279 158.172L97.2333 152.494C97.0615 151.512 96.1023 150.852 95.091 151.019Z" fill="white"/>
<path d="M86.6119 162.13C86.1768 162.13 85.7526 161.998 85.3984 161.753C85.1724 161.598 84.9803 161.401 84.8332 161.174C84.686 160.947 84.5868 160.694 84.5412 160.429L83.5466 154.75C83.352 153.64 84.1247 152.583 85.2691 152.395L95.0495 150.782C96.1935 150.593 97.283 151.343 97.4775 152.453L98.4721 158.132C98.6667 159.242 97.894 160.299 96.7496 160.488L86.9692 162.101C86.8499 162.12 86.7306 162.13 86.6119 162.13ZM95.4032 151.233C95.3139 151.233 95.2235 151.241 95.1325 151.255L85.3521 152.868C84.477 153.013 83.8861 153.821 84.0348 154.67L85.0294 160.349C85.0643 160.551 85.1402 160.745 85.2527 160.918C85.3652 161.092 85.5121 161.243 85.685 161.361C85.8571 161.48 86.0519 161.565 86.2581 161.61C86.4643 161.656 86.6778 161.662 86.8862 161.627L96.6666 160.014C97.5417 159.87 98.1326 159.061 97.9839 158.212L96.9893 152.534C96.8559 151.773 96.1733 151.233 95.4032 151.233Z" fill="#0A2446"/>
<path d="M110.178 134.983L100.397 136.595C99.386 136.762 98.7055 137.693 98.8774 138.674L102.178 157.521C102.35 158.502 103.309 159.162 104.321 158.996L114.101 157.383C115.112 157.216 115.793 156.285 115.621 155.304L112.32 136.457C112.148 135.476 111.189 134.816 110.178 134.983Z" fill="#EF6C67"/>
<path d="M104.009 159.261C103.002 159.261 102.109 158.556 101.934 157.561L98.6336 138.714C98.5865 138.45 98.5939 138.179 98.6554 137.918C98.717 137.656 98.8314 137.409 98.992 137.19C99.1515 136.971 99.3541 136.785 99.5883 136.642C99.8224 136.499 100.083 136.403 100.356 136.359L110.137 134.746C111.281 134.558 112.37 135.307 112.565 136.417L115.865 155.264C115.913 155.528 115.905 155.799 115.844 156.061C115.782 156.322 115.668 156.57 115.507 156.788C115.348 157.007 115.145 157.194 114.911 157.336C114.677 157.479 114.415 157.575 114.143 157.62L104.362 159.232C104.246 159.252 104.127 159.262 104.009 159.262L104.009 159.261ZM110.49 135.197C110.401 135.197 110.31 135.205 110.219 135.219L100.439 136.832C100.015 136.902 99.6446 137.128 99.3958 137.468C99.1471 137.809 99.0497 138.223 99.1218 138.634L102.423 157.48C102.571 158.329 103.404 158.902 104.279 158.758L114.06 157.146C114.484 157.076 114.854 156.85 115.103 156.51C115.352 156.169 115.449 155.755 115.377 155.344L112.076 136.498C111.943 135.737 111.26 135.197 110.49 135.197Z" fill="#EF6C67"/>
<path d="M107.872 121.815L98.0912 123.428C97.0798 123.594 96.3993 124.525 96.5712 125.506L97.5658 131.185C97.7377 132.166 98.6968 132.827 99.7081 132.66L109.488 131.047C110.5 130.88 111.18 129.95 111.008 128.968L110.014 123.29C109.842 122.308 108.883 121.648 107.872 121.815Z" fill="white"/>
<path d="M99.3958 132.926C98.3887 132.926 97.4959 132.22 97.3216 131.225L96.3271 125.546C96.1327 124.436 96.9053 123.379 98.0498 123.191L107.83 121.578C108.384 121.486 108.942 121.61 109.401 121.926C109.627 122.08 109.819 122.277 109.966 122.504C110.113 122.731 110.212 122.985 110.258 123.249L111.253 128.928C111.3 129.192 111.292 129.463 111.231 129.725C111.169 129.986 111.055 130.234 110.894 130.452C110.735 130.671 110.532 130.858 110.298 131C110.064 131.143 109.803 131.24 109.53 131.284L99.7497 132.897C99.6309 132.916 99.5124 132.926 99.3958 132.926ZM108.186 122.029C108.096 122.029 108.004 122.037 107.913 122.052L98.1326 123.664C97.2576 123.809 96.6666 124.617 96.8153 125.466L97.8099 131.145C97.9587 131.994 98.7909 132.567 99.6667 132.423L109.447 130.81C109.656 130.776 109.855 130.703 110.034 130.593C110.213 130.484 110.368 130.342 110.49 130.174C110.613 130.007 110.701 129.818 110.748 129.618C110.795 129.418 110.8 129.211 110.764 129.008L109.77 123.33C109.735 123.128 109.659 122.934 109.546 122.76C109.434 122.586 109.287 122.436 109.114 122.318C108.843 122.13 108.519 122.029 108.186 122.029V122.029Z" fill="#0A2446"/>
<path d="M105.565 108.647L95.7848 110.26C94.7735 110.426 94.0929 111.357 94.2648 112.338L95.2594 118.017C95.4313 118.998 96.3904 119.659 97.4018 119.492L107.182 117.879C108.193 117.712 108.874 116.782 108.702 115.8L107.707 110.122C107.536 109.14 106.576 108.48 105.565 108.647Z" fill="white"/>
<path d="M97.0861 119.758C96.651 119.758 96.2267 119.626 95.8725 119.381C95.6466 119.226 95.4544 119.03 95.3073 118.802C95.1601 118.575 95.0609 118.322 95.0153 118.057L94.0207 112.379C93.8262 111.268 94.5989 110.211 95.7433 110.023L105.524 108.41C106.668 108.221 107.757 108.971 107.952 110.081L108.946 115.76C109.141 116.87 108.368 117.927 107.224 118.116L97.4433 119.729C97.324 119.748 97.2047 119.758 97.0861 119.758V119.758ZM105.877 108.861C105.788 108.861 105.698 108.869 105.607 108.884L95.8262 110.496C94.9511 110.641 94.3602 111.449 94.509 112.298L95.5035 117.977C95.5756 118.388 95.8084 118.748 96.1591 118.989C96.5098 119.23 96.9361 119.325 97.3603 119.255L107.141 117.642C108.016 117.498 108.607 116.69 108.458 115.84L107.463 110.162C107.33 109.401 106.647 108.861 105.877 108.861Z" fill="#0A2446"/>
<path d="M47.5238 112.509C51.2359 111.897 54.0429 110.246 53.7935 108.822C53.544 107.398 50.3326 106.74 46.6205 107.352C42.9084 107.964 40.1014 109.615 40.3508 111.039C40.6003 112.463 43.8117 113.121 47.5238 112.509Z" fill="white"/>
<path d="M44.8331 112.979C44.0193 112.979 43.2585 112.91 42.5876 112.773C41.1266 112.473 40.2454 111.872 40.1066 111.079C39.9677 110.286 40.5946 109.436 41.8717 108.685C43.0818 107.974 44.7536 107.416 46.579 107.115C50.4847 106.471 53.761 107.203 54.0376 108.782C54.3141 110.361 51.4712 112.102 47.5653 112.746C46.6244 112.901 45.6988 112.979 44.8331 112.979ZM49.3262 107.359C48.5191 107.359 47.6233 107.43 46.6619 107.589C44.8967 107.88 43.2865 108.415 42.1284 109.096C41.0528 109.729 40.494 110.422 40.5949 110.999C40.6958 111.575 41.4595 112.05 42.6899 112.303C44.0149 112.574 45.7169 112.563 47.4823 112.272C51.3567 111.633 53.7474 109.993 53.5494 108.862C53.4004 108.012 51.7719 107.359 49.3262 107.359Z" fill="#0A2446"/>
<path d="M85.4703 100.946L77.3429 102.286C75.8752 102.528 74.8875 103.879 75.1369 105.303C75.3864 106.727 76.7784 107.685 78.2462 107.443L86.3736 106.103C87.8414 105.861 88.829 104.51 88.5796 103.086C88.3302 101.662 86.9381 100.704 85.4703 100.946Z" fill="#EF6C67"/>
<path d="M77.7883 107.721C77.1836 107.721 76.5948 107.54 76.0915 107.194C75.7755 106.977 75.5069 106.702 75.3012 106.385C75.0954 106.067 74.9566 105.713 74.8929 105.343C74.7613 104.591 74.9392 103.834 75.394 103.212C75.8488 102.59 76.5264 102.177 77.3015 102.049L85.429 100.709C86.2042 100.581 86.984 100.754 87.6252 101.195C88.2664 101.636 88.6921 102.294 88.8237 103.046C88.9555 103.798 88.7774 104.554 88.3226 105.177C87.8678 105.799 87.1903 106.212 86.4152 106.34L78.2876 107.68C78.1226 107.707 77.9556 107.721 77.7882 107.721H77.7883ZM85.9274 101.148C85.7895 101.148 85.6506 101.159 85.512 101.182L77.3844 102.523C76.0536 102.742 75.155 103.971 75.3811 105.262C75.6074 106.554 76.8739 107.426 78.2048 107.206L86.3323 105.866C87.6631 105.646 88.5617 104.417 88.3356 103.126C88.2826 102.818 88.1672 102.524 87.9961 102.26C87.825 101.995 87.6016 101.767 87.3388 101.587C86.9269 101.302 86.4335 101.148 85.9275 101.148H85.9274Z" fill="#EF6C67"/>
<path d="M102.864 98.0774L94.7362 99.4177C93.2685 99.6597 92.2808 101.01 92.5303 102.435C92.7797 103.859 94.1717 104.817 95.6395 104.575L103.767 103.235C105.235 102.993 106.222 101.642 105.973 100.218C105.723 98.7937 104.331 97.8354 102.864 98.0774Z" fill="#EF6C67"/>
<path d="M95.1815 104.853C94.5767 104.853 93.9879 104.672 93.4847 104.325C93.1687 104.109 92.9001 103.834 92.6943 103.517C92.4886 103.199 92.3498 102.845 92.286 102.475C92.0141 100.922 93.0946 99.4445 94.6946 99.1806L102.822 97.8405C103.597 97.7125 104.377 97.8854 105.018 98.3267C105.66 98.7681 106.085 99.4255 106.217 100.178C106.349 100.93 106.171 101.686 105.716 102.309C105.261 102.931 104.583 103.344 103.808 103.471L95.6809 104.812C95.5159 104.839 95.3489 104.853 95.1815 104.853ZM103.321 98.2801C103.183 98.2801 103.044 98.2914 102.905 98.3142L94.7776 99.6544C93.4468 99.8739 92.5482 101.103 92.7743 102.394C92.8839 103.02 93.2379 103.566 93.7712 103.934C94.3045 104.301 94.9535 104.444 95.5979 104.338L103.725 102.998C104.043 102.946 104.346 102.834 104.619 102.668C104.891 102.502 105.127 102.285 105.312 102.03C105.69 101.513 105.838 100.884 105.729 100.258C105.619 99.6325 105.265 99.0858 104.732 98.7186C104.32 98.4335 103.827 98.2801 103.321 98.2801Z" fill="#EF6C67"/>
</g>
<g clip-path="url(#clip5_779_6401)">
<path d="M74.3882 50.2494C74.3882 39.922 63.5061 31.5501 50.0825 31.5501C36.6589 31.5501 25.7769 39.922 25.7769 50.2494C25.7769 60.5768 36.6589 68.9487 50.0825 68.9487C53.8688 68.9487 57.4528 68.2825 60.6476 67.0942L68.0999 70.8753V62.8C72.0075 59.4817 74.3883 55.0795 74.3883 50.2494H74.3882Z" fill="white"/>
<path d="M68.0999 71.1164C68.0609 71.1164 68.0219 71.1073 67.9861 71.0892L60.6318 67.3578C57.3245 68.5734 53.7758 69.1898 50.0825 69.1898C36.5442 69.1898 25.53 60.6931 25.53 50.2494C25.53 39.8057 36.5442 31.3091 50.0825 31.3091C63.6208 31.3091 74.635 39.8057 74.635 50.2494C74.635 54.9376 72.4028 59.4295 68.3466 62.9094V70.8753C68.3466 70.907 68.3402 70.9383 68.3278 70.9676C68.3154 70.9968 68.2973 71.0234 68.2743 71.0458C68.2514 71.0682 68.2242 71.0859 68.1942 71.098C68.1643 71.1101 68.1323 71.1164 68.0999 71.1164ZM60.6477 66.8532C60.6869 66.8532 60.726 66.8624 60.7615 66.8803L67.853 70.4784V62.8C67.8531 62.7655 67.8606 62.7315 67.8753 62.7001C67.8899 62.6687 67.9113 62.6408 67.938 62.6181C71.9384 59.2211 74.1415 54.8285 74.1415 50.2494C74.1413 40.0715 63.3487 31.7912 50.0825 31.7912C36.8164 31.7912 26.0237 40.0715 26.0237 50.2494C26.0237 60.4274 36.8165 68.7077 50.0825 68.7077C53.7542 68.7077 57.2792 68.0891 60.5597 66.869C60.5881 66.8585 60.6179 66.8532 60.6476 66.8532H60.6477Z" fill="#0A2446"/>
</g>
<g clip-path="url(#clip6_779_6401)">
<path d="M43.8924 186.497C51.4901 182.419 54.319 168.517 49.4032 159.328C49.4032 159.328 50.3455 142.313 50.3402 132.559C50.336 124.875 40.2586 124.853 39.1015 131.924C38.6862 134.462 36.5915 149.332 35.0974 154.283C33.8192 158.519 33.1916 163.377 30.9514 165.494" fill="white"/>
<path d="M43.8927 186.736C43.838 186.737 43.7848 186.719 43.7415 186.686C43.6982 186.654 43.6673 186.608 43.6536 186.557C43.64 186.505 43.6443 186.451 43.6659 186.402C43.6876 186.353 43.7253 186.313 43.7732 186.287C51.2397 182.28 54.0212 168.48 49.1845 159.439C49.1642 159.401 49.1547 159.358 49.1571 159.315C49.1665 159.145 50.0991 142.195 50.0938 132.559C50.0917 128.692 47.561 127.127 45.3945 126.961C42.8279 126.767 39.9249 128.42 39.3453 131.961C39.2745 132.394 39.1521 133.203 38.9971 134.228C38.2119 139.422 36.578 150.229 35.3344 154.351C35.0042 155.445 34.7142 156.594 34.4339 157.705C33.6107 160.968 32.8332 164.051 31.1237 165.666C31.0768 165.71 31.0137 165.735 30.9483 165.734C30.8829 165.733 30.8206 165.707 30.775 165.661C30.7293 165.616 30.7042 165.555 30.7051 165.491C30.706 165.428 30.7328 165.367 30.7797 165.323C32.3878 163.803 33.1489 160.786 33.9549 157.591C34.2365 156.475 34.5277 155.321 34.8611 154.216C36.095 150.126 37.7257 139.342 38.5092 134.159C38.6644 133.132 38.7871 132.321 38.8583 131.886C39.4848 128.057 42.6407 126.27 45.4331 126.484C47.9969 126.68 50.5847 128.634 50.5868 132.559C50.5918 141.904 49.7166 158.112 49.653 159.276C51.9957 163.693 52.6992 169.375 51.5822 174.875C50.4572 180.416 47.6979 184.728 44.0117 186.706C43.9738 186.727 43.933 186.736 43.8927 186.736V186.736Z" fill="#0A2446"/>
</g>
<g clip-path="url(#clip7_779_6401)">
<path d="M83.3892 94.4863C83.33 94.4863 83.2726 94.4659 83.2274 94.429C83.1821 94.392 83.1519 94.3407 83.142 94.2843L81.9987 87.787C81.9931 87.7556 81.9941 87.7234 82.0014 87.6924C82.0088 87.6613 82.0224 87.632 82.0414 87.606C82.0605 87.58 82.0847 87.5579 82.1127 87.5409C82.1406 87.524 82.1717 87.5125 82.2042 87.5072C82.2367 87.5019 82.27 87.5028 82.3022 87.5099C82.3343 87.5169 82.3647 87.5301 82.3916 87.5485C82.446 87.5857 82.4828 87.6423 82.4939 87.7057L83.6372 94.2032C83.6434 94.238 83.6416 94.2737 83.6319 94.3078C83.6223 94.3419 83.6051 94.3735 83.5815 94.4005C83.5579 94.4275 83.5284 94.4491 83.4953 94.464C83.4621 94.4788 83.4259 94.4865 83.3894 94.4865L83.3892 94.4863ZM86.7257 93.9387C86.6664 93.9388 86.609 93.9185 86.5637 93.8816C86.5183 93.8446 86.4881 93.7933 86.4782 93.7368L85.3349 87.2393C85.3239 87.1759 85.3393 87.1109 85.3778 87.0585C85.4163 87.006 85.4748 86.9705 85.5404 86.9596L89.5464 86.3021C89.5789 86.2967 89.6122 86.2976 89.6444 86.3047C89.6765 86.3118 89.7069 86.3249 89.7338 86.3433C89.7607 86.3618 89.7836 86.3851 89.8011 86.4121C89.8186 86.4391 89.8305 86.4691 89.836 86.5005L90.9793 92.998C90.9848 93.0294 90.9839 93.0615 90.9766 93.0926C90.9692 93.1236 90.9556 93.153 90.9365 93.179C90.9174 93.205 90.8932 93.227 90.8653 93.244C90.8374 93.2609 90.8063 93.2724 90.7737 93.2777L86.7678 93.9353C86.7539 93.9376 86.7398 93.9387 86.7257 93.9387ZM85.872 87.3972L86.9313 93.4164L90.4421 92.8401L89.3829 86.8209L85.872 87.3972ZM94.0678 92.7336C94.0085 92.7337 93.9511 92.7134 93.9057 92.6765C93.8604 92.6395 93.8301 92.5882 93.8203 92.5317L92.677 86.0342C92.6715 86.0028 92.6724 85.9707 92.6798 85.9396C92.6871 85.9085 92.7007 85.8792 92.7198 85.8532C92.7389 85.8272 92.7631 85.8051 92.791 85.7882C92.8189 85.7712 92.8501 85.7598 92.8826 85.7544L96.8885 85.097C96.921 85.0916 96.9543 85.0925 96.9865 85.0995C97.0186 85.1066 97.0491 85.1197 97.076 85.1381C97.1029 85.1566 97.1257 85.1799 97.1433 85.2069C97.1608 85.2339 97.1726 85.264 97.1781 85.2954L98.3214 91.7929C98.3324 91.8563 98.317 91.9213 98.2785 91.9737C98.24 92.0261 98.1816 92.0617 98.116 92.0725L94.1099 92.7301C94.096 92.7323 94.0819 92.7336 94.0678 92.7336ZM93.2142 86.1921L94.2734 92.2113L97.7842 91.635L96.7249 85.6158L93.2142 86.1921Z" fill="white"/>
</g>
<g clip-path="url(#clip8_779_6401)">
<path d="M45.7759 55.0784H63.4627V58.4672H45.7759V55.0784Z" fill="white"/>
<path d="M63.4626 58.7046H45.7757C45.7101 58.7046 45.6472 58.6796 45.6008 58.6351C45.5544 58.5905 45.5283 58.5302 45.5283 58.4672V55.0784C45.5283 55.0155 45.5544 54.9551 45.6008 54.9106C45.6472 54.8661 45.7101 54.8411 45.7757 54.8411H63.4626C63.5282 54.8411 63.5911 54.8661 63.6375 54.9106C63.6839 54.9551 63.71 55.0155 63.71 55.0784V58.4672C63.71 58.5302 63.6839 58.5905 63.6375 58.6351C63.5911 58.6796 63.5282 58.7046 63.4626 58.7046ZM46.0231 58.2299H63.2152V55.3158H46.0231V58.2299Z" fill="#0A2446"/>
<path d="M45.7759 51.6896H63.4627V55.0784H45.7759V51.6896Z" fill="white"/>
<path d="M63.4626 55.3158H45.7757C45.7101 55.3158 45.6472 55.2908 45.6008 55.2463C45.5544 55.2017 45.5283 55.1414 45.5283 55.0784V51.6896C45.5283 51.6267 45.5544 51.5663 45.6008 51.5218C45.6472 51.4773 45.7101 51.4523 45.7757 51.4523H63.4626C63.5282 51.4523 63.5911 51.4773 63.6375 51.5218C63.6839 51.5663 63.71 51.6267 63.71 51.6896V55.0784C63.71 55.1414 63.6839 55.2017 63.6375 55.2463C63.5911 55.2908 63.5282 55.3158 63.4626 55.3158ZM46.0231 54.8411H63.2152V51.927H46.0231V54.8411Z" fill="#0A2446"/>
<path d="M45.7759 48.3008H63.4627V51.6896H45.7759V48.3008Z" fill="white"/>
<path d="M63.4626 51.927H45.7757C45.7101 51.927 45.6472 51.902 45.6008 51.8575C45.5544 51.813 45.5283 51.7526 45.5283 51.6896V48.3008C45.5283 48.2379 45.5544 48.1775 45.6008 48.133C45.6472 48.0885 45.7101 48.0635 45.7757 48.0635H63.4626C63.5282 48.0635 63.5911 48.0885 63.6375 48.133C63.6839 48.1775 63.71 48.2379 63.71 48.3008V51.6896C63.71 51.7526 63.6839 51.813 63.6375 51.8575C63.5911 51.902 63.5282 51.927 63.4626 51.927ZM46.0231 51.4523H63.2152V48.5382H46.0231V51.4523Z" fill="#0A2446"/>
<path d="M45.7757 58.4671C50.6598 58.4671 54.6191 54.6685 54.6191 49.9827C54.6191 45.2969 50.6598 41.4983 45.7757 41.4983C40.8917 41.4983 36.9324 45.2969 36.9324 49.9827C36.9324 54.6685 40.8917 58.4671 45.7757 58.4671Z" fill="white"/>
<path d="M45.7758 58.7046C40.7631 58.7046 36.6851 54.7919 36.6851 49.9827C36.6851 45.1734 40.7631 41.2609 45.7758 41.2609C50.7885 41.2609 54.8667 45.1734 54.8667 49.9827C54.8667 54.7919 50.7885 58.7046 45.7758 58.7046ZM45.7758 41.7356C41.036 41.7356 37.1798 45.4352 37.1798 49.9827C37.1798 54.5301 41.036 58.2299 45.7758 58.2299C50.5156 58.2299 54.3719 54.5302 54.3719 49.9827C54.3719 45.4351 50.5156 41.7356 45.7758 41.7356Z" fill="#0A2446"/>
<path d="M45.8221 53.8609C44.5937 53.8609 43.2292 53.2334 43.0193 51.8128C43.0143 51.7817 43.0157 51.75 43.0236 51.7195C43.0314 51.689 43.0455 51.6603 43.065 51.6351C43.0845 51.6098 43.1091 51.5886 43.1372 51.5725C43.1654 51.5564 43.1966 51.5459 43.229 51.5415C43.2614 51.537 43.2944 51.5388 43.3261 51.5468C43.3578 51.5547 43.3876 51.5686 43.4136 51.5876C43.4397 51.6066 43.4615 51.6304 43.4779 51.6576C43.4943 51.6849 43.5049 51.7149 43.5091 51.7461C43.6844 52.9322 44.8533 53.4238 45.9337 53.3842C46.9291 53.3478 47.9648 52.8486 48.0348 51.8151C48.0805 51.1395 47.8957 50.2176 45.772 50.014C44.5081 49.8928 43.8887 49.4001 43.5917 49.008C43.2698 48.583 43.159 48.0552 43.2799 47.5217C43.5473 46.3416 44.8411 45.8579 45.9271 45.9064C46.9951 45.9548 48.1393 46.5333 48.2878 47.7169C48.2956 47.7794 48.2773 47.8423 48.2367 47.8919C48.1962 47.9414 48.1368 47.9734 48.0717 47.9809C48.0065 47.9885 47.9409 47.9709 47.8893 47.932C47.8377 47.8931 47.8043 47.8361 47.7965 47.7736C47.6747 46.8032 46.7009 46.4167 45.9038 46.3806C45.0172 46.3402 43.9696 46.7119 43.7633 47.6225C43.6729 48.022 43.754 48.4149 43.9919 48.7288C44.3326 49.1785 44.9652 49.4595 45.8213 49.5415C47.7089 49.7225 48.6198 50.4978 48.5286 51.8458C48.4392 53.1673 47.1306 53.8154 45.9526 53.8584C45.9093 53.8599 45.8658 53.8608 45.8222 53.8608L45.8221 53.8609Z" fill="#0A2446"/>
<path d="M45.7921 55.1898C45.7265 55.1898 45.6635 55.1648 45.6171 55.1203C45.5707 55.0758 45.5447 55.0154 45.5447 54.9525V53.6237C45.5447 53.5607 45.5707 53.5003 45.6171 53.4558C45.6635 53.4113 45.7265 53.3863 45.7921 53.3863C45.8577 53.3863 45.9206 53.4113 45.967 53.4558C46.0134 53.5003 46.0395 53.5607 46.0395 53.6237V54.9525C46.0395 55.0154 46.0134 55.0758 45.967 55.1203C45.9206 55.1648 45.8577 55.1898 45.7921 55.1898ZM45.7921 46.3782C45.7265 46.3782 45.6635 46.3532 45.6171 46.3087C45.5707 46.2642 45.5447 46.2038 45.5447 46.1409V45.013C45.5447 44.95 45.5707 44.8897 45.6171 44.8452C45.6635 44.8006 45.7265 44.7756 45.7921 44.7756C45.8577 44.7756 45.9206 44.8006 45.967 44.8452C46.0134 44.8897 46.0395 44.95 46.0395 45.013V46.1409C46.0395 46.2038 46.0134 46.2642 45.967 46.3087C45.9206 46.3532 45.8577 46.3782 45.7921 46.3782Z" fill="#0A2446"/>
</g>
<g clip-path="url(#clip9_779_6401)">
<path d="M157.641 233.519C154.966 225.742 153.555 222.221 149.335 214.688C146.713 215.234 141.855 201.512 138.952 197.162C121.779 169.872 160.888 144.457 180.262 170.398C189.402 184.06 196.782 197.444 202.138 210.949C189.412 225.567 174.819 233.721 157.641 233.519Z" fill="white"/>
<path d="M158.25 233.763C158.046 233.763 157.842 233.762 157.638 233.76C157.587 233.759 157.537 233.743 157.495 233.714C157.454 233.684 157.423 233.643 157.406 233.596C154.665 225.626 153.243 222.179 149.197 214.944L149.177 214.945C147.457 214.945 145.34 210.714 142.357 204.352C141.022 201.505 139.761 198.817 138.744 197.293C134.717 190.893 133.492 184.138 135.199 177.756C136.719 172.072 140.473 167.05 145.77 163.615C151.066 160.181 157.276 158.741 163.257 159.562C169.974 160.483 175.924 164.182 180.462 170.258C180.464 170.261 180.466 170.264 180.469 170.268C190.052 184.591 197.216 197.87 202.369 210.862C202.385 210.903 202.389 210.946 202.382 210.989C202.375 211.031 202.356 211.071 202.327 211.104C195.824 218.574 188.876 224.26 181.676 228.003C174.323 231.827 166.444 233.763 158.25 233.763ZM157.82 233.281C166.087 233.347 174.033 231.432 181.442 227.58C188.552 223.883 195.419 218.272 201.855 210.902C196.718 197.986 189.587 184.779 180.057 170.535C175.601 164.57 169.767 160.94 163.187 160.037C157.327 159.234 151.24 160.646 146.045 164.015C140.849 167.384 137.167 172.307 135.678 177.877C134.005 184.13 135.21 190.756 139.163 197.037C140.196 198.586 141.464 201.29 142.807 204.152C144.024 206.748 145.282 209.432 146.45 211.427C148.008 214.091 148.85 214.544 149.283 214.453C149.335 214.442 149.39 214.448 149.438 214.47C149.487 214.492 149.527 214.528 149.552 214.573C153.649 221.887 155.086 225.344 157.82 233.281Z" fill="#0A2446"/>
<path d="M154.212 224.349C170.166 226.634 193.577 218.938 201.512 209.393C203.861 214.86 205.551 219.206 207.557 224.095C199.623 233.641 175.098 240.796 159.145 238.51C157.658 233.776 156.542 229.632 154.212 224.349Z" fill="white"/>
<path d="M165.606 239.181C163.341 239.181 161.158 239.042 159.109 238.748C159.063 238.742 159.019 238.722 158.984 238.693C158.948 238.663 158.922 238.624 158.909 238.581C158.647 237.744 158.388 236.906 158.132 236.068C156.979 232.311 155.89 228.762 153.985 224.444C153.968 224.405 153.962 224.361 153.967 224.319C153.973 224.277 153.99 224.236 154.017 224.203C154.043 224.169 154.079 224.142 154.12 224.126C154.161 224.11 154.205 224.105 154.249 224.111C161.748 225.186 171.423 224.08 180.792 221.079C190.049 218.114 197.531 213.799 201.319 209.242C201.346 209.21 201.381 209.185 201.421 209.17C201.461 209.154 201.504 209.149 201.547 209.155C201.589 209.161 201.629 209.178 201.663 209.203C201.697 209.229 201.723 209.262 201.74 209.301C203.334 213.011 204.647 216.259 205.916 219.4C206.519 220.892 207.141 222.433 207.787 224.006C207.803 224.046 207.809 224.089 207.802 224.131C207.795 224.173 207.777 224.213 207.75 224.246C200.85 232.547 181.248 239.181 165.606 239.181ZM159.336 238.295C175.33 240.517 199.392 233.367 207.274 224.053C206.647 222.525 206.042 221.026 205.456 219.576C204.229 216.541 202.963 213.406 201.441 209.853C197.519 214.366 190.084 218.609 180.946 221.536C171.687 224.502 162.121 225.629 154.611 224.647C156.421 228.814 157.483 232.274 158.605 235.931C158.841 236.699 159.085 237.492 159.336 238.295Z" fill="#0A2446"/>
<path d="M181.414 172.134C179.631 169.108 161.689 145.642 158.511 145.942C155.333 146.242 146.544 152.049 146.692 154.05C146.841 156.051 154.66 168.644 156.664 169.618" fill="white"/>
<path d="M181.414 172.375C181.371 172.375 181.328 172.364 181.29 172.342C181.252 172.321 181.221 172.291 181.199 172.254C180.319 170.76 175.351 164.091 170.293 157.941C161.427 147.162 159.114 146.124 158.535 146.182C155.37 146.48 146.809 152.277 146.939 154.032C147.004 154.904 148.793 158.294 151.193 162.093C153.7 166.062 155.943 168.999 156.774 169.403C156.831 169.433 156.873 169.483 156.892 169.543C156.911 169.602 156.906 169.666 156.877 169.722C156.848 169.778 156.799 169.82 156.738 169.841C156.678 169.862 156.611 169.859 156.553 169.833C155.435 169.29 152.833 165.609 150.772 162.345C148.678 159.031 146.529 155.187 146.446 154.067C146.335 152.576 150.067 149.935 151.213 149.161C154.735 146.783 157.333 145.812 158.487 145.703C159.948 145.566 164.05 149.582 170.679 157.641C175.936 164.032 180.751 170.525 181.629 172.015C181.65 172.051 181.662 172.093 181.661 172.135C181.661 172.177 181.65 172.218 181.628 172.255C181.606 172.291 181.575 172.322 181.538 172.343C181.5 172.364 181.458 172.375 181.414 172.375Z" fill="#0A2446"/>
<path d="M163.923 167.565C162.14 164.539 150.856 149.986 147.678 150.286C144.5 150.586 136.445 157.167 136.594 159.168C136.743 161.168 144.528 174.548 146.532 175.522C148.536 176.496 152.249 173.106 152.249 173.106" fill="white"/>
<path d="M147.349 175.936C147.02 175.936 146.707 175.875 146.422 175.737C145.028 175.059 141.654 169.529 140.654 167.85C138.639 164.47 136.432 160.316 136.348 159.185C136.258 157.975 138.553 155.664 140.731 153.904C142.901 152.151 145.86 150.217 147.654 150.047C149.122 149.911 152.103 152.424 156.513 157.524C159.802 161.327 163.171 165.805 164.138 167.446C164.155 167.473 164.166 167.504 164.171 167.535C164.176 167.567 164.174 167.6 164.166 167.631C164.157 167.662 164.143 167.691 164.123 167.716C164.103 167.742 164.078 167.763 164.049 167.779C164.02 167.795 163.989 167.805 163.956 167.809C163.923 167.813 163.89 167.811 163.858 167.802C163.827 167.793 163.797 167.778 163.771 167.758C163.745 167.738 163.724 167.713 163.709 167.685C162.882 166.282 159.709 161.967 156.134 157.833C152.017 153.072 148.943 150.409 147.702 150.526C146.316 150.656 143.703 152.128 141.047 154.274C138.51 156.324 136.78 158.329 136.841 159.15C136.982 161.05 144.756 174.39 146.643 175.307C148.16 176.044 151.082 173.841 152.08 172.931C152.127 172.887 152.191 172.864 152.256 172.867C152.322 172.869 152.383 172.896 152.428 172.942C152.473 172.988 152.497 173.05 152.495 173.113C152.493 173.177 152.466 173.237 152.418 173.281C152.282 173.405 149.482 175.935 147.349 175.936Z" fill="#0A2446"/>
<path d="M154.737 173.19C152.954 170.164 143.166 157.009 139.988 157.309C136.809 157.609 128.124 164.265 128.272 166.266C128.421 168.267 137.342 181.891 139.346 182.865" fill="white"/>
<path d="M139.346 183.105C139.309 183.105 139.271 183.097 139.235 183.08C138.108 182.532 135.226 178.588 132.906 175.08C130.536 171.498 128.108 167.389 128.026 166.283C127.985 165.739 128.451 164.938 129.41 163.903C130.235 163.013 131.414 161.967 132.73 160.96C134.936 159.272 138.154 157.24 139.964 157.069C143.403 156.744 153.37 170.386 154.952 173.071C154.969 173.098 154.98 173.129 154.984 173.16C154.989 173.192 154.987 173.224 154.978 173.255C154.97 173.286 154.955 173.315 154.935 173.34C154.915 173.365 154.891 173.386 154.862 173.402C154.834 173.418 154.802 173.428 154.77 173.432C154.737 173.436 154.704 173.434 154.672 173.425C154.641 173.417 154.611 173.402 154.586 173.382C154.56 173.362 154.539 173.338 154.523 173.31C153.646 171.821 150.785 167.812 147.694 164.155C142.702 158.246 140.738 157.48 140.012 157.548C138.631 157.678 135.828 159.201 133.036 161.338C130.316 163.419 128.459 165.439 128.519 166.248C128.583 167.105 130.603 170.71 133.322 174.82C136.149 179.094 138.614 182.24 139.456 182.65C139.506 182.674 139.546 182.714 139.569 182.763C139.593 182.812 139.599 182.867 139.586 182.92C139.573 182.972 139.542 183.019 139.499 183.053C139.455 183.086 139.401 183.105 139.346 183.105Z" fill="#0A2446"/>
<path d="M145.208 181.06C142.57 177.013 134.169 168.264 132.389 166.406C130.143 164.062 120.006 155.479 118.111 153.791C112.666 148.943 103.645 156.394 108.899 162.05C110.117 163.361 122.36 175.62 122.36 175.62L138.952 197.162" fill="white"/>
<path d="M138.952 197.403C138.877 197.403 138.803 197.369 138.754 197.306L122.172 175.776C121.742 175.346 109.906 163.493 108.716 162.211C106.064 159.357 106.958 156.073 109.019 154.084C110.212 152.933 111.81 152.18 113.404 152.019C115.215 151.836 116.9 152.387 118.278 153.614C118.784 154.065 119.878 155.007 121.263 156.201C125.108 159.513 130.917 164.518 132.569 166.242L132.651 166.327C141.043 175.086 144.225 179.103 145.417 180.931C145.452 180.985 145.464 181.05 145.449 181.112C145.435 181.175 145.396 181.229 145.34 181.263C145.285 181.297 145.218 181.308 145.154 181.294C145.09 181.28 145.034 181.242 144.999 181.189C143.819 179.378 140.655 175.386 132.289 166.655L132.208 166.57C130.572 164.862 124.773 159.866 120.935 156.561C119.548 155.366 118.453 154.422 117.943 153.968C115.849 152.104 112.231 151.662 109.368 154.425C106.558 157.136 107.458 160.14 109.083 161.889C110.284 163.182 122.416 175.33 122.538 175.453C122.545 175.46 122.552 175.468 122.558 175.476L139.15 197.018C139.177 197.054 139.194 197.096 139.198 197.141C139.202 197.185 139.194 197.23 139.173 197.27C139.153 197.31 139.121 197.343 139.082 197.367C139.043 197.39 138.998 197.403 138.952 197.403Z" fill="#0A2446"/>
<path d="M136.847 192.762C136.847 192.762 123.207 181.465 121.627 180.471C118.995 178.816 115.913 179.866 114.213 182.003C112.218 184.511 113.403 187.957 115.267 190.122C117.286 192.467 130.883 207.751 134.868 210.743C137.257 212.536 144.716 215.218 149.335 214.688" fill="white"/>
<path d="M148.06 214.997C145.521 214.997 142.753 214.288 141.192 213.816C138.513 213.007 135.972 211.875 134.717 210.934C130.616 207.854 116.545 191.981 115.078 190.276C114.042 189.073 113.322 187.638 113.05 186.236C112.728 184.571 113.063 183.057 114.018 181.856C115.719 179.718 118.925 178.486 121.761 180.269C123.337 181.26 136.45 192.118 137.008 192.58C137.033 192.6 137.054 192.625 137.069 192.653C137.085 192.681 137.094 192.712 137.097 192.744C137.1 192.776 137.096 192.808 137.086 192.838C137.076 192.869 137.06 192.897 137.039 192.921C137.018 192.945 136.992 192.965 136.962 192.98C136.933 192.994 136.901 193.003 136.868 193.005C136.835 193.007 136.802 193.003 136.771 192.993C136.74 192.983 136.712 192.967 136.687 192.945C136.551 192.833 123.042 181.647 121.493 180.673C118.907 179.047 115.972 180.185 114.409 182.15C112.534 184.507 113.638 187.855 115.457 189.968C117.992 192.912 131.175 207.666 135.02 210.553C137.266 212.24 144.67 214.981 149.306 214.449C149.443 214.433 149.565 214.528 149.581 214.66C149.597 214.792 149.5 214.911 149.364 214.927C148.942 214.975 148.504 214.997 148.06 214.997Z" fill="#0A2446"/>
</g>
</g>
<defs>
<clipPath id="clip0_779_6401">
<rect width="253" height="246" fill="white"/>
</clipPath>
<clipPath id="clip1_779_6401">
<rect width="152.302" height="202.386" fill="white" transform="matrix(0.939058 0.34392 -0.367086 0.93025 119.966 -5.20764)"/>
</clipPath>
<clipPath id="clip2_779_6401">
<rect width="92.836" height="127.883" fill="white" transform="matrix(0.937673 0.347678 -0.370888 0.928741 123.768 45.1844)"/>
</clipPath>
<clipPath id="clip3_779_6401">
<rect width="112.194" height="92.8706" fill="white" transform="matrix(0.998606 0.0528612 -0.0587488 0.998277 11.512 124.501)"/>
</clipPath>
<clipPath id="clip4_779_6401">
<rect width="87.055" height="98.4" fill="white" transform="translate(32.7749 74.3591)"/>
</clipPath>
<clipPath id="clip5_779_6401">
<rect width="49.105" height="39.8073" fill="white" transform="translate(25.53 31.3091)"/>
</clipPath>
<clipPath id="clip6_779_6401">
<rect width="21.39" height="60.27" fill="white" transform="translate(30.7051 126.466)"/>
</clipPath>
<clipPath id="clip7_779_6401">
<rect width="16.33" height="9.39273" fill="white" transform="translate(81.9951 85.0936)"/>
</clipPath>
<clipPath id="clip8_779_6401">
<rect width="27.025" height="17.4436" fill="white" transform="translate(36.6851 41.2609)"/>
</clipPath>
<clipPath id="clip9_779_6401">
<rect width="100.74" height="93.48" fill="white" transform="translate(107.065 145.699)"/>
</clipPath>
</defs>
</svg>
