<svg width="253" height="246" viewBox="0 0 253 246" fill="none" xmlns="http://www.w3.org/2000/svg">
<g clip-path="url(#clip0_779_6396)">
<path d="M147.996 231.267C136.515 212.19 121.152 194.154 104.28 177.663C66.2919 138.512 121.579 83.0439 162.708 119.207C182.62 138.619 199.535 158.179 213.165 178.637C197.438 207.172 176.333 225.674 147.996 231.267Z" fill="white"/>
<path d="M147.965 231.672C148.002 231.675 148.039 231.672 148.077 231.665C161.957 228.926 174.574 222.937 185.577 213.865C196.089 205.198 205.494 193.41 213.531 178.829C213.566 178.765 213.583 178.692 213.58 178.62C213.577 178.547 213.554 178.476 213.513 178.415C200.401 158.733 183.879 139.272 163.003 118.919L162.987 118.905C153.354 110.435 142.245 106.378 130.863 107.174C120.731 107.882 111.026 112.402 103.536 119.901C96.0451 127.402 91.6586 136.992 91.1842 146.904C90.6514 158.035 95.0753 168.769 103.978 177.943C122.42 195.969 137.107 213.976 147.637 231.474C147.707 231.59 147.831 231.663 147.965 231.672ZM212.682 178.658C204.721 193.051 195.423 204.687 185.042 213.246C174.224 222.165 161.832 228.074 148.205 230.811C137.65 213.333 122.972 195.357 104.575 177.376C95.839 168.372 91.4932 157.845 92.0152 146.939C92.4801 137.226 96.7828 127.825 104.131 120.467C111.477 113.111 120.991 108.678 130.92 107.984C142.068 107.205 152.962 111.188 162.421 119.503C183.182 139.742 199.624 159.095 212.682 178.658Z" fill="#0A2446"/>
<path d="M107.776 181.124C107.776 181.124 83.2064 159.661 78.7147 157.058C75.1645 155 51.0827 146.992 44.6974 145.178C30.7257 141.21 35.1555 122.513 48.0777 125.352C55.4035 126.962 81.7743 132.738 87.2146 135.561C94.3716 139.275 107.744 150.069 107.744 150.069" fill="white"/>
<path d="M107.745 181.529C107.831 181.535 107.918 181.515 107.992 181.47C108.066 181.426 108.124 181.36 108.158 181.282C108.192 181.204 108.2 181.118 108.182 181.035C108.163 180.952 108.118 180.878 108.054 180.821C107.049 179.944 83.4027 159.302 78.928 156.708C75.391 154.658 51.2825 146.625 44.815 144.788C37.5758 142.732 35.6122 136.816 36.8515 132.188C37.9702 128.011 41.8466 124.4 47.9849 125.749L48.2467 125.806C70.4381 130.682 83.4827 134.085 87.0183 135.92C94.0562 139.572 107.345 150.275 107.478 150.383C107.563 150.451 107.673 150.484 107.782 150.474C107.892 150.463 107.994 150.411 108.064 150.328C108.135 150.245 108.168 150.138 108.158 150.031C108.148 149.923 108.095 149.825 108.01 149.756C107.876 149.648 94.5228 138.893 87.4111 135.202C83.8103 133.334 70.696 129.906 48.4326 125.014L48.171 124.956C45.1786 124.299 42.413 124.72 40.1719 126.176C38.1669 127.477 36.7021 129.541 36.0473 131.986C35.3251 134.683 35.6552 137.494 36.977 139.901C38.4698 142.62 41.0991 144.579 44.5802 145.568C51.0232 147.398 75.0071 155.381 78.5018 157.407C82.9076 159.961 107.253 181.213 107.498 181.427C107.566 181.487 107.653 181.523 107.745 181.529Z" fill="#0A2446"/>
<path d="M107.196 154.44C107.196 154.44 87.8883 138.276 83.8961 137.236C79.9039 136.195 55.8348 131.531 49.261 130.532C34.8766 128.347 38.8986 109.597 52.0937 110.795C59.5742 111.475 89.1937 114.993 95.0355 116.912C100.877 118.831 117.046 132.221 117.046 132.221" fill="white"/>
<path d="M107.166 154.845C107.253 154.851 107.34 154.83 107.415 154.785C107.489 154.74 107.547 154.673 107.581 154.594C107.614 154.515 107.621 154.428 107.601 154.345C107.581 154.262 107.534 154.187 107.468 154.132C106.677 153.469 88.0421 137.895 84.0051 136.843C79.9077 135.776 55.9244 131.134 49.3269 130.132C46.2129 129.658 43.7684 128.338 42.2578 126.314C40.9292 124.533 40.3675 122.258 40.6759 119.909C41.3041 115.124 45.4183 110.597 52.0538 111.2C59.2414 111.853 89.0017 115.359 94.9018 117.297C100.602 119.17 116.616 132.398 116.777 132.531C116.818 132.566 116.867 132.593 116.919 132.609C116.971 132.626 117.026 132.632 117.081 132.628C117.135 132.623 117.189 132.609 117.237 132.584C117.286 132.56 117.33 132.526 117.366 132.485C117.401 132.444 117.428 132.397 117.445 132.346C117.462 132.295 117.468 132.241 117.463 132.187C117.459 132.134 117.443 132.082 117.418 132.035C117.393 131.987 117.358 131.945 117.316 131.911C116.653 131.362 101.02 118.449 95.1698 116.528C89.2113 114.57 59.3421 111.046 52.134 110.391C48.8462 110.094 45.8969 110.967 43.5986 112.919C41.5651 114.646 40.1989 117.157 39.8509 119.809C39.5153 122.364 40.1311 124.845 41.5847 126.793C43.2276 128.995 45.8594 130.427 49.1954 130.934C55.7798 131.934 79.7031 136.564 83.7875 137.628C86.8732 138.432 100.272 149.179 106.925 154.749C106.992 154.806 107.077 154.839 107.166 154.845Z" fill="#0A2446"/>
<path d="M118.688 138.101C118.688 138.101 100.256 121.497 96.1608 120.945C92.066 120.393 67.12 116.372 60.5012 115.702C46.0184 114.235 49.0571 95.3131 62.3005 95.853C69.8082 96.1591 98.6185 98.2463 104.661 99.4482C110.703 100.65 129.122 116.439 129.122 116.439" fill="white"/>
<path d="M118.656 138.506C118.742 138.512 118.828 138.492 118.902 138.448C118.976 138.404 119.034 138.339 119.069 138.262C119.103 138.184 119.112 138.098 119.095 138.016C119.077 137.934 119.033 137.859 118.97 137.802C118.214 137.12 100.395 121.106 96.2191 120.543C94.8995 120.365 91.4323 119.829 87.0429 119.152C77.7555 117.717 65.0359 115.753 60.5454 115.298C57.4101 114.981 54.8995 113.784 53.2847 111.838C51.8646 110.126 51.1849 107.883 51.3705 105.521C51.7481 100.713 55.6173 95.9875 62.2811 96.259C70.3603 96.5891 98.6549 98.6689 104.576 99.8463C110.442 101.013 128.663 116.587 128.846 116.744C128.929 116.815 129.037 116.851 129.147 116.844C129.257 116.837 129.36 116.787 129.433 116.706C129.469 116.666 129.497 116.619 129.515 116.569C129.532 116.518 129.54 116.465 129.536 116.412C129.533 116.359 129.519 116.307 129.495 116.259C129.471 116.211 129.437 116.168 129.396 116.133C129.35 116.094 124.721 112.132 119.414 108.074C112.249 102.598 107.314 99.5618 104.745 99.0507C98.5002 97.8087 69.3748 95.7354 62.319 95.4477C59.0214 95.3132 56.1186 96.3328 53.9248 98.3962C51.9837 100.222 50.7502 102.798 50.5411 105.462C50.1671 110.223 53.0877 115.36 60.4561 116.106C64.9242 116.558 77.6313 118.52 86.9094 119.954C91.3035 120.632 94.7741 121.168 96.1017 121.347C97.0129 121.47 99.8601 122.763 108.688 130.039C113.743 134.205 118.358 138.358 118.404 138.4C118.474 138.462 118.562 138.499 118.656 138.506Z" fill="#0A2446"/>
<path d="M129.009 121.311C129.009 121.311 109.579 107.189 105.955 105.257C102.189 103.251 71.3932 96.4346 64.903 95.0138C50.7016 91.9048 55.9819 73.4498 69.0636 75.4971C76.4797 76.6577 111.861 85.9081 117.807 87.9318C123.627 89.9125 162.708 119.207 162.708 119.207" fill="white"/>
<path d="M128.977 121.716C129.067 121.722 129.157 121.7 129.232 121.652C129.308 121.604 129.366 121.534 129.398 121.452C129.429 121.369 129.433 121.279 129.407 121.195C129.382 121.111 129.33 121.037 129.258 120.985C128.463 120.407 109.763 106.824 106.155 104.901C102.299 102.846 71.1919 95.9741 64.9953 94.6175C61.9209 93.9445 59.5719 92.4692 58.2019 90.351C56.9971 88.4879 56.5904 86.1816 57.0571 83.8565C58.0073 79.1217 62.4141 74.8679 68.996 75.8978C76.3753 77.0526 111.676 86.2758 117.668 88.315C123.359 90.2519 162.064 119.237 162.454 119.529C162.541 119.595 162.652 119.623 162.761 119.609C162.87 119.594 162.969 119.538 163.036 119.453C163.104 119.368 163.134 119.26 163.12 119.153C163.106 119.047 163.049 118.95 162.962 118.885C161.364 117.687 123.761 89.5276 117.945 87.5481C111.937 85.5033 76.5339 76.2546 69.1308 75.096C65.8747 74.5864 62.87 75.2683 60.4454 77.0684C58.3 78.6612 56.7677 81.0797 56.2408 83.7037C55.3001 88.3908 57.585 93.8284 64.8102 95.4101C68.5966 96.239 101.916 103.568 105.754 105.614C109.312 107.51 128.565 121.496 128.759 121.637C128.823 121.683 128.898 121.71 128.977 121.716Z" fill="#0A2446"/>
<path d="M133.194 209.789C160.185 207.142 195.81 185.557 204.799 166.74C210.467 173.831 215.256 180.873 220.563 188.079C211.574 206.896 174.987 228.62 147.996 231.267C143.603 224.107 139.191 217.511 133.194 209.789Z" fill="white"/>
<path d="M147.965 231.672C147.988 231.674 148.012 231.673 148.036 231.671C160.971 230.402 176.72 224.721 191.245 216.083C205.801 207.427 216.625 197.281 220.939 188.249C220.971 188.184 220.983 188.111 220.977 188.04C220.97 187.968 220.944 187.899 220.901 187.841C219.196 185.526 217.52 183.194 215.899 180.938C212.497 176.204 208.98 171.309 205.128 166.49C205.084 166.435 205.026 166.392 204.961 166.365C204.895 166.339 204.824 166.329 204.753 166.337C204.682 166.345 204.615 166.371 204.557 166.411C204.499 166.452 204.453 166.507 204.423 166.57C200.16 175.493 189.629 185.485 175.53 193.983C161.369 202.519 145.924 208.133 133.154 209.385C133.081 209.392 133.01 209.419 132.95 209.461C132.891 209.504 132.843 209.561 132.814 209.627C132.784 209.694 132.773 209.766 132.781 209.838C132.79 209.91 132.818 209.978 132.863 210.035C138.274 217.002 142.693 223.415 147.639 231.477C147.709 231.591 147.831 231.663 147.965 231.672ZM220.082 188.123C211.031 206.655 174.961 228.098 148.217 230.837C143.445 223.072 139.15 216.825 133.97 210.116C146.714 208.713 161.97 203.109 175.965 194.674C189.887 186.282 200.378 176.417 204.882 167.508C208.562 172.144 211.943 176.85 215.218 181.407C216.794 183.601 218.424 185.868 220.082 188.123Z" fill="#0A2446"/>
<path d="M160.95 177.765C149.18 169.312 147.628 145.335 157.945 130.914C157.945 130.914 160.258 102.099 162.495 85.696C164.258 72.7741 181.11 74.8528 181.428 86.9871C181.543 91.3436 181.647 116.792 183.013 125.433C184.182 132.826 184.121 141.128 187.382 145.159" fill="white"/>
<path d="M160.919 178.17C161.009 178.176 161.098 178.154 161.174 178.106C161.25 178.058 161.308 177.987 161.34 177.905C161.371 177.822 161.374 177.732 161.348 177.647C161.323 177.563 161.27 177.489 161.197 177.437C149.631 169.13 148.134 145.335 158.286 131.146C158.328 131.086 158.354 131.016 158.36 130.944C158.383 130.656 160.697 101.952 162.908 85.748C163.794 79.2448 168.383 77.1436 172.042 77.3199C177.778 77.5914 180.892 82.3983 181.012 86.9993C181.032 87.7406 181.052 89.1264 181.076 90.8808C181.202 99.7815 181.465 118.302 182.602 125.497C182.904 127.406 183.126 129.4 183.341 131.328C183.971 136.989 184.567 142.336 187.055 145.412C187.124 145.496 187.224 145.55 187.333 145.562C187.443 145.575 187.553 145.544 187.639 145.477C187.726 145.41 187.782 145.312 187.795 145.205C187.808 145.098 187.777 144.991 187.709 144.906C185.368 142.013 184.785 136.778 184.168 131.237C183.952 129.3 183.729 127.297 183.424 125.369C182.295 118.231 182.034 99.7483 181.908 90.8659C181.883 89.1086 181.864 87.7208 181.844 86.9748C181.764 83.9458 180.682 81.3256 178.715 79.3975C176.936 77.6546 174.579 76.6271 172.087 76.5085C169.722 76.3943 167.456 77.1277 165.706 78.5731C163.746 80.192 162.493 82.637 162.083 85.6436C159.939 101.36 157.699 128.802 157.539 130.773C152.613 137.711 150.139 147.118 150.75 156.604C151.364 166.159 154.992 173.99 160.702 178.092C160.768 178.139 160.843 178.165 160.919 178.17Z" fill="#0A2446"/>
</g>
<g clip-path="url(#clip1_779_6396)">
<path d="M162.704 36.186L87.3921 23.1871C83.1736 22.459 79.1205 25.2186 78.3391 29.3509L51.7448 169.99C50.9634 174.122 53.7497 178.062 57.9682 178.791L133.28 191.79C137.498 192.518 141.551 189.758 142.333 185.626L168.927 44.9865C169.708 40.8543 166.922 36.9142 162.704 36.186Z" fill="white"/>
<path d="M133.241 191.998L57.929 178.999C53.6001 178.252 50.7304 174.194 51.5323 169.953L78.1266 29.3141C78.9284 25.0736 83.1027 22.2314 87.4317 22.9786L162.743 35.9775C167.072 36.7247 169.942 40.7825 169.14 45.0232L142.546 185.662C141.744 189.903 137.57 192.745 133.241 191.998ZM87.3529 23.3955C83.2585 22.6888 79.3104 25.3768 78.552 29.3877L51.9578 170.027C51.1994 174.038 53.9133 177.876 58.0078 178.582L133.319 191.581C137.414 192.288 141.362 189.6 142.12 185.589L168.715 44.9498C169.473 40.939 166.759 37.101 162.665 36.3943L87.3529 23.3955Z" fill="#0A2446"/>
<path d="M163.492 32.0182L88.1803 19.0193C81.6225 17.8874 75.2991 22.1927 74.0844 28.6165L47.4902 169.256C46.2755 175.68 50.6224 181.827 57.1802 182.958L132.492 195.957C139.05 197.089 145.373 192.784 146.588 186.36L173.182 45.7209C174.397 39.2971 170.05 33.1501 163.492 32.0182ZM142.333 185.626C141.551 189.758 137.498 192.518 133.28 191.79L57.9683 178.791C53.7498 178.062 50.9635 174.122 51.7449 169.99L78.3392 29.3508C79.1206 25.2185 83.1737 22.459 87.3922 23.1871L162.704 36.186C166.922 36.9141 169.708 40.8542 168.927 44.9865L142.333 185.626Z" fill="#0A2446"/>
<path d="M132.452 196.166L57.1408 183.167C50.4657 182.015 46.041 175.758 47.2774 169.219L73.8717 28.5797C75.1081 22.041 81.5446 17.6588 88.2197 18.8109L163.531 31.8098C170.206 32.9619 174.631 39.2189 173.395 45.7576L146.8 186.397C145.564 192.936 139.127 197.318 132.452 196.166ZM88.1409 19.2277C81.7004 18.116 75.4901 22.3443 74.2971 28.6532L47.7029 169.292C46.5099 175.601 50.7791 181.638 57.2196 182.75L132.531 195.749C138.972 196.861 145.182 192.632 146.375 186.323L172.969 45.6842C174.162 39.3753 169.893 33.3382 163.453 32.2266L88.1409 19.2277ZM133.241 191.998L57.9289 178.999C53.6 178.252 50.7303 174.194 51.5322 169.953L78.1264 29.3141C78.9283 25.0736 83.1026 22.2315 87.4316 22.9787L162.743 35.9777C167.072 36.7248 169.942 40.7827 169.14 45.0232L142.546 185.662C141.744 189.903 137.57 192.745 133.241 191.998L133.241 191.998ZM87.3528 23.3955C83.2584 22.6888 79.3103 25.3769 78.5519 29.3876L51.9577 170.027C51.1993 174.038 53.9132 177.875 58.0077 178.582L133.319 191.581C137.414 192.288 141.362 189.6 142.12 185.589L168.714 44.9498C169.473 40.9391 166.759 37.1011 162.664 36.3944L87.3528 23.3955Z" fill="#0A2446"/>
<path d="M132.688 34.6048L116.09 31.74C114.503 31.4661 112.979 32.504 112.685 34.058L112.685 34.0582C112.391 35.6122 113.439 37.094 115.026 37.3679L131.623 40.2327C133.21 40.5065 134.734 39.4687 135.028 37.9146L135.028 37.9145C135.322 36.3604 134.274 34.8786 132.688 34.6048Z" fill="#0A2446"/>
<path d="M131.584 40.441L114.986 37.5762C113.285 37.2826 112.157 35.6879 112.472 34.0214C112.788 32.3549 114.428 31.238 116.129 31.5316L132.727 34.3964C134.428 34.6901 135.556 36.2848 135.241 37.9513C134.926 39.6178 133.285 40.7347 131.584 40.441ZM116.051 31.9483C114.584 31.6952 113.17 32.6581 112.898 34.0947C112.626 35.5314 113.599 36.9062 115.065 37.1594L131.663 40.0241C133.13 40.2773 134.544 39.3144 134.816 37.8777C135.087 36.4411 134.115 35.0663 132.648 34.8131L116.051 31.9483Z" fill="#0A2446"/>
</g>
<g clip-path="url(#clip2_779_6396)">
<path d="M113.218 122.455C130.956 122.455 145.336 108.473 145.336 91.225C145.336 73.9773 130.956 59.9952 113.218 59.9952C95.479 59.9952 81.0991 73.9773 81.0991 91.225C81.0991 108.473 95.479 122.455 113.218 122.455Z" fill="#EF6C67"/>
<path d="M113.287 122.866C111.381 122.866 109.462 122.703 107.547 122.374C89.8824 119.333 78.0554 102.887 81.1822 85.7112C84.3093 68.5356 101.225 57.0355 118.888 60.0763C136.553 63.1167 148.38 79.5635 145.253 96.7391C143.738 105.059 138.982 112.308 131.86 117.15C126.332 120.907 119.893 122.867 113.287 122.867V122.866ZM113.202 60.3953C98.1224 60.3955 84.7171 70.9234 81.9992 85.8517C78.9521 102.589 90.4774 118.617 107.691 121.58C116.03 123.015 124.444 121.207 131.385 116.488C138.325 111.77 142.96 104.706 144.436 96.5983C147.483 79.8607 135.958 63.8334 118.744 60.8704C116.915 60.555 115.06 60.396 113.202 60.3955L113.202 60.3953Z" fill="#EF6C67"/>
<path d="M107 83.6229C107.816 79.1403 107.015 75.2547 105.211 74.9442C103.407 74.6337 101.283 78.0159 100.467 82.4985C99.6508 86.9811 100.452 90.8667 102.256 91.1772C104.06 91.4877 106.184 88.1055 107 83.6229Z" fill="#0A2446"/>
<path d="M102.476 91.5995C102.378 91.5995 102.281 91.5912 102.183 91.5745C100.123 91.2198 99.1893 87.2024 100.058 82.4284C100.927 77.6544 103.224 74.1946 105.283 74.5473C107.344 74.902 108.277 78.9194 107.408 83.6934C106.58 88.2419 104.457 91.5995 102.476 91.5995ZM104.984 75.3285C103.633 75.3285 101.673 78.1896 100.875 82.569C100.047 87.1181 100.976 90.5475 102.328 90.7802C103.679 91.0123 105.763 88.1018 106.591 83.5526C107.419 79.0035 106.49 75.5741 105.139 75.3414C105.088 75.3328 105.036 75.3284 104.984 75.3285Z" fill="#0A2446"/>
<path d="M128.273 87.2846C129.09 82.802 128.289 78.9164 126.485 78.6059C124.681 78.2954 122.557 81.6776 121.741 86.1602C120.924 90.6428 121.725 94.5284 123.529 94.8389C125.333 95.1494 127.457 91.7672 128.273 87.2846Z" fill="#0A2446"/>
<path d="M123.762 95.2621C123.66 95.2622 123.558 95.2535 123.458 95.2361C122.405 95.055 121.62 93.9568 121.246 92.1435C120.898 90.4563 120.929 88.3064 121.333 86.09C121.736 83.8738 122.466 81.8444 123.389 80.3757C124.38 78.7974 125.505 78.0282 126.557 78.2091C127.61 78.3902 128.395 79.4884 128.769 81.3017C129.116 82.989 129.086 85.1388 128.682 87.3552C128.279 89.5716 127.549 91.6009 126.626 93.0695C125.73 94.4964 124.724 95.2621 123.762 95.2621H123.762ZM126.253 78.9897C125.601 78.9897 124.825 79.6358 124.097 80.796C123.227 82.1809 122.535 84.111 122.149 86.2306C121.764 88.3502 121.732 90.394 122.059 91.985C122.357 93.4289 122.919 94.3244 123.602 94.442C124.285 94.5589 125.129 93.9062 125.918 92.6493C126.788 91.2643 127.479 89.3343 127.865 87.2147C128.251 85.095 128.283 83.0513 127.955 81.4602C127.658 80.0164 127.096 79.1208 126.413 79.0032C126.36 78.9943 126.306 78.9898 126.253 78.9897ZM113.649 110.614C112.362 110.614 111.055 110.504 109.749 110.279C102.74 109.073 96.8848 104.736 94.8308 99.2313C94.7936 99.1317 94.777 99.026 94.7818 98.9202C94.7867 98.8143 94.8129 98.7105 94.8591 98.6145C94.9052 98.5185 94.9704 98.4323 95.0508 98.3608C95.1312 98.2893 95.2253 98.2339 95.3277 98.1978C95.5345 98.1248 95.7627 98.1347 95.962 98.2254C96.1614 98.316 96.3155 98.4799 96.3906 98.681C98.2461 103.654 103.603 107.583 110.038 108.691C116.473 109.798 122.891 107.896 126.389 103.845C126.532 103.686 126.734 103.587 126.951 103.571C127.167 103.554 127.382 103.621 127.549 103.757C127.715 103.893 127.82 104.087 127.841 104.298C127.862 104.508 127.797 104.718 127.66 104.882C124.509 108.531 119.268 110.614 113.65 110.614H113.649Z" fill="#0A2446"/>
</g>
<g clip-path="url(#clip3_779_6396)">
<path d="M160.8 178.348C148.875 169.716 147.328 145.395 157.807 130.824C157.807 130.824 160.185 101.616 162.473 84.9948C164.275 71.9005 181.361 74.0948 181.67 86.4012C181.782 90.8193 181.858 116.625 183.233 125.395C184.41 132.898 184.339 141.316 187.641 145.421" fill="white"/>
<path d="M160.8 178.76C160.713 178.76 160.625 178.734 160.549 178.679C154.763 174.491 151.094 166.53 150.481 156.839C149.873 147.216 152.393 137.689 157.396 130.68C157.56 128.681 159.863 100.866 162.055 84.9398C162.976 78.2515 167.818 75.4951 172.21 75.7276C176.994 75.9826 181.925 79.7271 182.092 86.3909C182.111 87.1481 182.13 88.5568 182.153 90.3407C182.27 99.3475 182.514 118.089 183.651 125.333C183.958 127.289 184.181 129.321 184.398 131.286C185.017 136.909 185.603 142.22 187.973 145.166C188.04 145.252 188.07 145.361 188.056 145.468C188.042 145.575 187.986 145.673 187.898 145.74C187.811 145.807 187.701 145.837 187.591 145.825C187.481 145.813 187.38 145.759 187.31 145.675C184.79 142.543 184.192 137.118 183.559 131.374C183.344 129.419 183.121 127.396 182.817 125.458C181.672 118.158 181.427 99.3769 181.31 90.3514C181.286 88.5704 181.268 87.1635 181.249 86.4113C181.094 80.2469 176.562 76.7843 172.164 76.55C168.451 76.3528 163.798 78.4598 162.891 85.0497C160.631 101.471 158.251 130.565 158.228 130.857C158.222 130.93 158.196 131.001 158.152 131.061C147.842 145.398 149.332 169.534 161.051 178.018C161.123 178.069 161.176 178.141 161.202 178.224C161.229 178.307 161.229 178.395 161.201 178.478C161.173 178.56 161.119 178.632 161.047 178.682C160.975 178.733 160.889 178.76 160.8 178.76Z" fill="#0A2446"/>
</g>
<g clip-path="url(#clip4_779_6396)">
<path d="M70.9689 131.194L72.3005 135.621L76.8235 137.07L72.8845 139.664L72.8591 144.275L69.0932 141.451L64.5541 142.852L66.1657 138.513L63.386 134.767L68.148 134.91L70.9689 131.194Z" fill="#0A2446"/>
<path d="M72.859 144.679C72.7681 144.679 72.678 144.65 72.6034 144.594L69.0107 141.9L64.6808 143.237C64.6066 143.26 64.5273 143.262 64.4518 143.244C64.3763 143.225 64.3077 143.187 64.2536 143.133C64.1996 143.078 64.1623 143.011 64.1461 142.937C64.1298 142.863 64.1352 142.787 64.1616 142.716L65.6991 138.576L63.0471 135.003C63.0017 134.942 62.9749 134.869 62.9697 134.794C62.9645 134.719 62.9811 134.644 63.0177 134.578C63.0546 134.511 63.1098 134.456 63.177 134.419C63.2442 134.381 63.321 134.362 63.3986 134.364L67.9415 134.5L70.6327 130.955C70.6788 130.894 70.7414 130.847 70.8137 130.819C70.8859 130.791 70.9649 130.783 71.0415 130.796C71.1182 130.809 71.1895 130.843 71.2474 130.893C71.3053 130.943 71.3475 131.008 71.3692 131.081L72.6395 135.305L76.9544 136.687C77.0282 136.71 77.0938 136.753 77.1436 136.811C77.1934 136.869 77.2255 136.939 77.2363 137.014C77.2471 137.089 77.2361 137.165 77.2046 137.233C77.1731 137.302 77.1223 137.361 77.058 137.404L73.3002 139.878L73.276 144.278C73.2754 144.384 73.2312 144.486 73.1531 144.562C73.075 144.637 72.9692 144.679 72.859 144.679ZM69.0929 141.047C69.1854 141.047 69.2752 141.077 69.3483 141.132L72.4464 143.455L72.4674 139.662C72.4678 139.596 72.4846 139.532 72.5164 139.474C72.5481 139.416 72.594 139.367 72.6499 139.33L75.8904 137.196L72.1695 136.005C72.1053 135.984 72.0472 135.949 72.0003 135.902C71.9533 135.854 71.919 135.797 71.9001 135.734L70.8048 132.092L68.4842 135.149C68.4029 135.256 68.2753 135.317 68.1352 135.313L64.2177 135.196L66.5044 138.277C66.5845 138.385 66.6045 138.524 66.5582 138.649L65.2325 142.219L68.9663 141.066C69.0078 141.054 69.0503 141.047 69.0929 141.047ZM87.9924 134.11L89.3239 138.538L93.8469 139.987L89.9079 142.581L89.8825 147.192L86.1164 144.368L81.5775 145.769L83.1891 141.43L80.4094 137.684L85.1714 137.827L87.9924 134.11Z" fill="#0A2446"/>
<path d="M89.8825 147.596C89.7915 147.596 89.7015 147.567 89.6268 147.511L86.0342 144.817L81.7042 146.154C81.6301 146.177 81.5509 146.179 81.4755 146.161C81.4001 146.142 81.3316 146.104 81.2776 146.049C81.2236 145.995 81.1863 145.928 81.17 145.854C81.1536 145.78 81.1588 145.704 81.185 145.633L82.7224 141.493L80.0705 137.92C80.0251 137.859 79.9983 137.787 79.9931 137.711C79.9879 137.636 80.0046 137.561 80.0411 137.495C80.0777 137.428 80.1328 137.373 80.2001 137.335C80.2674 137.297 80.3443 137.279 80.4221 137.281L84.9649 137.417L87.656 133.871C87.702 133.811 87.7647 133.764 87.8369 133.736C87.9092 133.707 87.9881 133.7 88.0647 133.713C88.1414 133.726 88.2127 133.759 88.2706 133.81C88.3286 133.86 88.3707 133.925 88.3924 133.998L89.6627 138.222L93.9776 139.603C94.0515 139.627 94.117 139.67 94.1668 139.728C94.2166 139.786 94.2487 139.856 94.2595 139.931C94.2703 140.005 94.2593 140.081 94.2278 140.15C94.1963 140.219 94.1456 140.278 94.0812 140.32L90.3235 142.795L90.2993 147.194C90.2987 147.301 90.2545 147.403 90.1763 147.478C90.0982 147.554 89.9927 147.596 89.8825 147.596ZM86.1163 143.964C86.2088 143.964 86.2986 143.994 86.3717 144.049L89.4696 146.372L89.4907 142.579C89.491 142.513 89.5078 142.449 89.5396 142.391C89.5714 142.333 89.6172 142.284 89.6731 142.247L92.9136 140.113L89.1927 138.922C89.1285 138.901 89.0704 138.866 89.0235 138.819C88.9766 138.771 88.9422 138.714 88.9233 138.651L87.828 135.009L85.5075 138.066C85.4261 138.173 85.2985 138.232 85.1584 138.23L81.2411 138.113L83.5279 141.194C83.6079 141.302 83.6279 141.441 83.5817 141.566L82.2559 145.136L85.9898 143.983C86.0312 143.971 86.0738 143.964 86.1163 143.964ZM105.016 137.027L106.347 141.455L110.87 142.904L106.931 145.498L106.906 150.109L103.14 147.285L98.6009 148.686L100.213 144.347L97.4329 140.601L102.195 140.744L105.016 137.027Z" fill="#0A2446"/>
<path d="M106.906 150.513C106.815 150.513 106.725 150.484 106.65 150.428L103.058 147.734L98.7277 149.071C98.6536 149.094 98.5743 149.096 98.4988 149.078C98.4234 149.059 98.3548 149.021 98.3008 148.966C98.2467 148.912 98.2095 148.844 98.1932 148.771C98.1769 148.697 98.1822 148.621 98.2085 148.55L99.7461 144.41L97.0942 140.837C97.0488 140.776 97.022 140.703 97.0168 140.628C97.0116 140.553 97.0282 140.478 97.0648 140.412C97.1014 140.345 97.1564 140.29 97.2238 140.252C97.2911 140.214 97.368 140.195 97.4458 140.198L101.989 140.334L104.68 136.789C104.726 136.728 104.788 136.681 104.861 136.653C104.933 136.625 105.012 136.617 105.088 136.63C105.165 136.643 105.236 136.677 105.294 136.727C105.352 136.777 105.394 136.842 105.416 136.915L106.686 141.139L111.002 142.52C111.075 142.544 111.141 142.587 111.191 142.645C111.241 142.703 111.273 142.773 111.283 142.848C111.294 142.922 111.283 142.998 111.252 143.067C111.22 143.136 111.169 143.195 111.105 143.238L107.347 145.712L107.323 150.111C107.323 150.218 107.278 150.32 107.2 150.395C107.122 150.471 107.016 150.513 106.906 150.513L106.906 150.513ZM103.14 146.881C103.232 146.881 103.322 146.911 103.395 146.965L106.493 149.289L106.514 145.496C106.515 145.43 106.532 145.366 106.563 145.308C106.595 145.25 106.641 145.201 106.697 145.164L109.937 143.03L106.216 141.838C106.152 141.818 106.094 141.783 106.047 141.735C106 141.688 105.966 141.631 105.947 141.568L104.851 137.925L102.531 140.982C102.45 141.089 102.322 141.149 102.182 141.147L98.2644 141.03L100.551 144.111C100.631 144.219 100.651 144.358 100.605 144.483L99.2792 148.053L103.013 146.9C103.055 146.887 103.097 146.881 103.14 146.881ZM122.039 139.944L123.371 144.372L127.894 145.821L123.955 148.415L123.929 153.026L120.163 150.202L115.624 151.603L117.236 147.263L114.456 143.518L119.218 143.661L122.039 139.944Z" fill="#0A2446"/>
<path d="M123.93 153.43C123.839 153.43 123.749 153.401 123.674 153.345L120.081 150.65L115.751 151.988C115.677 152.01 115.598 152.013 115.522 151.994C115.447 151.976 115.378 151.938 115.324 151.883C115.27 151.829 115.233 151.761 115.217 151.688C115.2 151.614 115.206 151.537 115.232 151.467L116.769 147.327L114.118 143.754C114.072 143.692 114.045 143.62 114.04 143.545C114.035 143.47 114.052 143.395 114.088 143.328C114.125 143.262 114.18 143.207 114.248 143.169C114.315 143.132 114.392 143.113 114.469 143.115L119.012 143.251L121.703 139.705C121.749 139.644 121.812 139.597 121.884 139.569C121.956 139.541 122.035 139.533 122.112 139.547C122.268 139.573 122.395 139.684 122.44 139.831L123.71 144.055L128.025 145.437C128.099 145.461 128.164 145.504 128.214 145.562C128.264 145.62 128.296 145.69 128.307 145.765C128.317 145.839 128.306 145.915 128.275 145.984C128.243 146.053 128.193 146.112 128.128 146.154L124.371 148.629L124.346 153.028C124.346 153.135 124.302 153.237 124.223 153.312C124.145 153.387 124.04 153.43 123.929 153.43L123.93 153.43ZM120.163 149.798C120.256 149.798 120.346 149.827 120.419 149.882L123.517 152.206L123.538 148.412C123.538 148.347 123.555 148.283 123.587 148.225C123.618 148.167 123.664 148.118 123.72 148.081L126.961 145.947L123.24 144.755C123.176 144.735 123.118 144.699 123.071 144.652C123.024 144.605 122.989 144.548 122.97 144.485L121.875 140.842L119.555 143.899C119.473 144.006 119.345 144.068 119.206 144.064L115.288 143.947L117.575 147.028C117.655 147.136 117.675 147.275 117.629 147.4L116.303 150.97L120.037 149.817C120.078 149.804 120.121 149.798 120.163 149.798Z" fill="#0A2446"/>
<path d="M139.063 142.861L140.394 147.289L144.917 148.738L140.978 151.331L140.953 155.943L137.187 153.118L132.648 154.52L134.26 150.18L131.48 146.435L136.242 146.578L139.063 142.861Z" fill="white"/>
<path d="M140.953 156.347C140.862 156.347 140.772 156.318 140.697 156.262L137.105 153.567L132.775 154.905C132.701 154.927 132.621 154.93 132.546 154.911C132.471 154.893 132.402 154.854 132.348 154.8C132.294 154.746 132.257 154.678 132.24 154.605C132.224 154.531 132.229 154.454 132.256 154.383L133.793 150.244L131.141 146.671C131.096 146.609 131.069 146.537 131.064 146.462C131.059 146.387 131.075 146.312 131.112 146.245C131.149 146.179 131.204 146.124 131.271 146.086C131.338 146.048 131.415 146.029 131.493 146.032L136.036 146.167L138.727 142.622C138.773 142.561 138.835 142.514 138.908 142.486C138.98 142.458 139.059 142.451 139.135 142.464C139.292 142.491 139.419 142.601 139.463 142.748L140.733 146.973L145.049 148.354C145.122 148.378 145.188 148.421 145.238 148.479C145.288 148.537 145.32 148.607 145.331 148.682C145.341 148.756 145.33 148.832 145.299 148.901C145.267 148.97 145.217 149.029 145.152 149.071L141.394 151.546L141.37 155.945C141.37 156.052 141.325 156.154 141.247 156.229C141.169 156.305 141.063 156.347 140.953 156.347L140.953 156.347ZM137.187 152.715C137.279 152.715 137.369 152.744 137.442 152.799L140.54 155.123L140.561 151.329C140.562 151.264 140.579 151.2 140.61 151.142C140.642 151.084 140.688 151.035 140.744 150.998L143.984 148.864L140.263 147.672C140.199 147.652 140.141 147.616 140.094 147.569C140.047 147.522 140.013 147.465 139.994 147.402L138.899 143.759L136.578 146.816C136.538 146.869 136.485 146.911 136.424 146.94C136.364 146.968 136.297 146.983 136.229 146.981L132.312 146.864L134.598 149.945C134.678 150.053 134.698 150.192 134.652 150.317L133.326 153.887L137.06 152.734C137.102 152.721 137.144 152.715 137.187 152.715Z" fill="#0A2446"/>
</g>
<g clip-path="url(#clip5_779_6396)">
<path d="M224.826 63.6261L160.353 52.5164L153.976 58.5813L150.124 50.7537L143.865 49.6751C141.497 49.267 139.917 47.0674 140.336 44.7623L144.286 23.0391C144.705 20.7338 146.965 19.1959 149.333 19.6039L230.294 33.5548C232.662 33.9628 234.242 36.1624 233.823 38.4675L229.873 60.1909C229.454 62.496 227.194 64.0341 224.826 63.6261Z" fill="white"/>
<path d="M225.595 64.0973C225.313 64.0972 225.031 64.073 224.753 64.025L160.491 52.9515L154.266 58.8711C154.219 58.9161 154.161 58.9496 154.098 58.9686C154.035 58.9876 153.968 58.9917 153.903 58.9805C153.838 58.9693 153.776 58.9431 153.724 58.9041C153.671 58.8652 153.629 58.8146 153.6 58.7565L149.841 51.1166L143.792 50.0742C141.202 49.6279 139.468 47.2136 139.927 44.692L143.877 22.9685C144.335 20.4471 146.815 18.7584 149.405 19.2052L230.366 33.1561C231.621 33.3721 232.714 34.0511 233.444 35.0678C234.175 36.0845 234.454 37.3168 234.232 38.5382L230.282 60.2616C230.175 60.8626 229.946 61.4369 229.609 61.9512C229.272 62.4655 228.833 62.9096 228.319 63.2578C227.508 63.8096 226.564 64.0971 225.595 64.0971L225.595 64.0973ZM160.353 52.1116C160.377 52.1116 160.401 52.1136 160.425 52.1179L224.898 63.2276C225.934 63.406 226.979 63.1812 227.842 62.5944C228.704 62.0076 229.28 61.1292 229.463 60.1208L233.413 38.3975C233.596 37.3891 233.365 36.3716 232.762 35.5323C232.16 34.693 231.257 34.1325 230.221 33.9541L149.26 20.0026C147.122 19.6341 145.074 21.028 144.696 23.1096L140.746 44.8332C140.367 46.9148 141.799 48.9081 143.937 49.2766L150.197 50.3552C150.262 50.3664 150.323 50.3925 150.376 50.4315C150.428 50.4704 150.471 50.521 150.499 50.579L154.1 57.8969L160.062 52.2268C160.14 52.153 160.244 52.1116 160.353 52.1116Z" fill="#0A2446"/>
<path d="M161.555 34.9358C161.929 32.8785 160.809 30.9653 159.052 30.6627C157.296 30.3601 155.569 31.7826 155.195 33.8399C154.821 35.8973 155.941 37.8104 157.698 38.1131C159.454 38.4157 161.181 36.9932 161.555 34.9358Z" fill="#EF6C67"/>
<path d="M158.168 38.5585C157.988 38.5585 157.807 38.5433 157.625 38.5119C155.646 38.1709 154.372 36.0434 154.786 33.7694C154.983 32.6814 155.534 31.7184 156.337 31.0573C157.161 30.3779 158.152 30.0965 159.125 30.2641C161.104 30.6051 162.378 32.7327 161.964 35.0066C161.589 37.0718 159.949 38.5587 158.168 38.5587L158.168 38.5585ZM158.577 31.0271C157.983 31.0271 157.39 31.2507 156.874 31.6755C156.22 32.2147 155.769 33.0085 155.605 33.9105C155.271 35.7447 156.243 37.4511 157.77 37.7143C159.297 37.9767 160.811 36.6992 161.145 34.8653C161.479 33.0311 160.507 31.3248 158.98 31.0615C158.847 31.0386 158.712 31.0271 158.577 31.0271ZM157.282 40.3975C153.873 39.81 150.726 40.3742 148.998 41.6897C150.482 44.1674 153.033 46.0179 156.162 46.557C159.291 47.096 162.34 46.2107 164.608 44.3796C163.448 42.5663 160.692 40.9849 157.282 40.3975Z" fill="#EF6C67"/>
<path d="M157.978 47.1174C157.35 47.1174 156.719 47.0642 156.09 46.9559C152.958 46.4162 150.243 44.5714 148.638 41.8939C148.588 41.8093 148.57 41.7097 148.589 41.6135C148.608 41.5173 148.662 41.4311 148.742 41.3708C150.629 39.9342 153.929 39.4081 157.355 39.9988C160.781 40.589 163.695 42.1856 164.961 44.1656C165.014 44.2487 165.035 44.3478 165.019 44.4445C165.003 44.5412 164.951 44.6289 164.874 44.6914C162.936 46.2587 160.497 47.1169 157.978 47.1174ZM149.553 41.7993C151.053 44.101 153.469 45.6816 156.235 46.1583C159.001 46.6349 161.827 45.9574 164.048 44.2968C162.813 42.6641 160.183 41.3087 157.21 40.7962C154.237 40.2843 151.289 40.6783 149.553 41.7993Z" fill="#EF6C67"/>
<path d="M157.978 47.1178C157.355 47.1178 156.724 47.0652 156.089 46.9559C150.224 45.945 146.296 40.4768 147.334 34.7665C148.373 29.0561 153.989 25.2319 159.856 26.2433C165.722 27.2541 169.649 32.7223 168.611 38.4327C167.685 43.5255 163.116 47.1178 157.978 47.1178ZM157.968 26.8913C153.225 26.8913 149.008 30.2066 148.153 34.9076C147.195 40.1782 150.82 45.2254 156.235 46.1585C161.649 47.0915 166.834 43.5624 167.792 38.2916C168.75 33.021 165.125 27.9738 159.711 27.0407C159.136 26.9414 158.552 26.8914 157.968 26.8913H157.968ZM202.96 40.3029C202.936 40.3029 202.912 40.3009 202.887 40.2966L177.635 35.9453C177.526 35.9266 177.43 35.8667 177.367 35.7786C177.303 35.6906 177.279 35.5817 177.298 35.476C177.317 35.3702 177.379 35.2762 177.469 35.2147C177.56 35.1531 177.671 35.129 177.78 35.1477L203.032 39.499C203.135 39.5165 203.227 39.5708 203.29 39.6512C203.354 39.7315 203.384 39.8321 203.375 39.9331C203.366 40.0341 203.318 40.128 203.242 40.1965C203.165 40.265 203.064 40.3029 202.96 40.3029ZM218.092 51.8178C218.068 51.8178 218.044 51.8158 218.019 51.8115L176.065 44.5821C176.011 44.5728 175.96 44.5533 175.914 44.5247C175.868 44.4961 175.828 44.459 175.796 44.4154C175.765 44.3718 175.743 44.3226 175.731 44.2707C175.719 44.2188 175.718 44.1651 175.728 44.1127C175.737 44.0603 175.757 44.0103 175.787 43.9655C175.816 43.9206 175.854 43.8819 175.899 43.8514C175.944 43.8209 175.994 43.7993 176.048 43.7878C176.101 43.7764 176.156 43.7752 176.21 43.7845L218.164 51.0139C218.267 51.0314 218.359 51.0857 218.422 51.1661C218.486 51.2464 218.516 51.347 218.507 51.448C218.498 51.549 218.45 51.6429 218.374 51.7114C218.297 51.7799 218.196 51.8178 218.092 51.8178Z" fill="#0A2446"/>
</g>
<g clip-path="url(#clip6_779_6396)">
<path d="M22.2039 154.356L66.9972 162.041L73.3782 155.999L77.2318 163.797L88.6118 165.75C90.9811 166.157 92.562 168.348 92.1426 170.645L87.2784 197.282C86.859 199.579 84.5982 201.111 82.229 200.704L15.8211 189.31C13.4518 188.903 11.8709 186.712 12.2903 184.415L17.1545 157.778C17.5739 155.481 19.8347 153.949 22.2039 154.356Z" fill="white"/>
<path d="M82.9904 201.173C82.7151 201.173 82.4364 201.15 82.1563 201.102L15.7484 189.707C13.1568 189.262 11.4217 186.857 11.8804 184.345L16.7444 157.708C17.2031 155.195 19.6841 153.513 22.2763 153.958L66.8589 161.608L73.0872 155.71C73.1345 155.665 73.1922 155.632 73.2553 155.613C73.3185 155.595 73.3854 155.591 73.4505 155.602C73.5155 155.613 73.577 155.639 73.6296 155.678C73.6823 155.716 73.7247 155.767 73.7534 155.824L77.5145 163.436L88.6842 165.353C91.2757 165.797 93.011 168.203 92.5521 170.715L87.6879 197.352C87.2787 199.592 85.2604 201.173 82.9902 201.173L82.9904 201.173ZM21.4425 154.694C19.5682 154.694 17.902 155.998 17.5642 157.848L12.7 184.485C12.5166 185.49 12.7477 186.504 13.3508 187.34C13.9539 188.176 14.8568 188.735 15.8932 188.912L82.3011 200.307C84.441 200.674 86.4895 199.285 86.8681 197.212L91.7323 170.574C92.1109 168.5 90.6784 166.514 88.5389 166.147L77.1588 164.195C77.0937 164.184 77.0323 164.157 76.9796 164.119C76.927 164.08 76.8846 164.03 76.856 163.972L73.2532 156.681L67.2877 162.33C67.1917 162.421 67.0567 162.461 66.9243 162.439L22.1312 154.753C21.9039 154.714 21.6734 154.694 21.4425 154.694Z" fill="#0A2446"/>
<path d="M33.7483 172.089C34.1226 170.039 33.0015 168.133 31.2444 167.832C29.4872 167.53 27.7593 168.947 27.385 170.997C27.0107 173.047 28.1317 174.953 29.8889 175.254C31.6461 175.556 33.3739 174.139 33.7483 172.089Z" fill="#0A2446"/>
<path d="M30.368 175.699C30.1831 175.699 29.9985 175.683 29.8163 175.652C28.8425 175.485 28.0113 174.891 27.476 173.981C26.9551 173.095 26.7771 172.01 26.9751 170.927C27.173 169.843 27.7241 168.883 28.5272 168.224C29.3524 167.547 30.3433 167.267 31.3169 167.434C32.2907 167.601 33.1219 168.194 33.6572 169.104C34.1781 169.99 34.3561 171.075 34.1581 172.159C33.9602 173.243 33.4091 174.202 32.606 174.861C31.9367 175.41 31.1581 175.699 30.368 175.699V175.699ZM30.7693 168.194C30.1743 168.194 29.5814 168.417 29.065 168.84C28.4103 169.378 27.959 170.168 27.7948 171.067C27.6306 171.966 27.7742 172.859 28.1992 173.581C28.6098 174.279 29.2357 174.732 29.9614 174.857C30.6875 174.982 31.4355 174.764 32.0682 174.245C32.7229 173.708 33.1741 172.917 33.3384 172.018C33.5026 171.12 33.359 170.227 32.934 169.504C32.5234 168.806 31.8975 168.353 31.1718 168.229C31.0389 168.206 30.9043 168.194 30.7693 168.194ZM29.4733 177.53C26.062 176.945 22.9136 177.507 21.1841 178.818C22.6694 181.286 25.2223 183.13 28.3526 183.667C31.483 184.204 34.5336 183.322 36.8027 181.498C35.6427 179.691 32.8846 178.115 29.4733 177.53Z" fill="#0A2446"/>
<path d="M30.1691 184.225C29.5408 184.225 28.9094 184.172 28.2802 184.064C26.7339 183.8 25.2657 183.212 23.9781 182.341C22.6904 181.47 21.6143 180.337 20.8247 179.021C20.774 178.937 20.7566 178.838 20.7755 178.742C20.7945 178.646 20.8487 178.56 20.9279 178.5C22.8162 177.069 26.1189 176.545 29.546 177.133C32.9736 177.721 35.8896 179.312 37.1564 181.284C37.2096 181.367 37.2301 181.466 37.214 181.562C37.1979 181.659 37.1463 181.746 37.0688 181.808C35.1304 183.37 32.6895 184.225 30.1691 184.225ZM21.7398 178.927C23.2408 181.22 25.6573 182.795 28.4253 183.27C31.1933 183.745 34.0204 183.069 36.2423 181.415C35.0065 179.788 32.3759 178.438 29.4008 177.927C26.4253 177.417 23.4766 177.81 21.7398 178.927Z" fill="#0A2446"/>
<path d="M30.1872 184.227C29.5541 184.227 28.9166 184.174 28.2802 184.064C25.4369 183.576 22.96 182.044 21.3052 179.751C19.6505 177.457 19.0165 174.676 19.52 171.92C20.0232 169.164 21.6035 166.763 23.9698 165.159C26.3364 163.555 29.2055 162.94 32.0485 163.428C37.9177 164.435 41.8474 169.883 40.8085 175.572C40.3052 178.328 38.725 180.73 36.3586 182.333C34.522 183.578 32.3825 184.227 30.1872 184.227ZM30.1431 164.072C28.1168 164.072 26.1422 164.671 24.4468 165.82C22.2628 167.3 20.8041 169.517 20.3396 172.061C19.875 174.604 20.4603 177.171 21.9875 179.288C23.5147 181.405 25.8009 182.819 28.4253 183.27C33.842 184.199 39.0301 180.683 39.9889 175.432C40.9477 170.181 37.3208 165.152 31.9034 164.222C31.3223 164.122 30.7333 164.072 30.1431 164.072ZM58.0263 174.493C58.0022 174.493 57.9778 174.491 57.9533 174.487L45.6302 172.372C45.5215 172.354 45.4249 172.294 45.3616 172.206C45.2984 172.119 45.2736 172.01 45.2929 171.905C45.3121 171.799 45.3737 171.706 45.4642 171.644C45.5547 171.583 45.6666 171.559 45.7753 171.578L58.0983 173.692C58.2009 173.71 58.2931 173.764 58.3566 173.844C58.42 173.924 58.4502 174.024 58.4412 174.125C58.4321 174.225 58.3845 174.319 58.3077 174.387C58.2309 174.455 58.1305 174.493 58.0263 174.493ZM71.3323 185.651C71.3082 185.651 71.2838 185.649 71.2593 185.644L44.0589 180.977C44.0051 180.968 43.9537 180.949 43.9076 180.92C43.8615 180.892 43.8216 180.855 43.7903 180.811C43.759 180.768 43.7368 180.719 43.725 180.667C43.7132 180.615 43.712 180.562 43.7215 180.51C43.7311 180.458 43.7511 180.408 43.7805 180.363C43.8099 180.318 43.8481 180.28 43.8929 180.249C43.9377 180.219 43.9882 180.197 44.0416 180.186C44.095 180.175 44.1501 180.173 44.204 180.183L71.4044 184.85C71.507 184.867 71.5991 184.921 71.6626 185.001C71.726 185.081 71.7562 185.182 71.7472 185.282C71.7382 185.383 71.6905 185.476 71.6137 185.545C71.5369 185.613 71.4365 185.651 71.3323 185.651ZM83.2491 178.821C83.225 178.821 83.2007 178.819 83.1761 178.815L62.4855 175.264C62.4317 175.255 62.3803 175.236 62.3342 175.207C62.2881 175.179 62.2483 175.142 62.2169 175.098C62.1856 175.055 62.1634 175.006 62.1516 174.954C62.1398 174.902 62.1386 174.849 62.1482 174.797C62.1577 174.745 62.1777 174.695 62.2071 174.65C62.2365 174.605 62.2747 174.567 62.3195 174.536C62.3643 174.506 62.4148 174.485 62.4682 174.473C62.5216 174.462 62.5768 174.461 62.6306 174.47L83.3212 178.02C83.4238 178.037 83.5159 178.092 83.5794 178.172C83.6429 178.252 83.673 178.352 83.664 178.452C83.655 178.553 83.6073 178.647 83.5305 178.715C83.4537 178.783 83.3533 178.821 83.2491 178.821Z" fill="#0A2446"/>
</g>
<defs>
<clipPath id="clip0_779_6396">
<rect width="188.833" height="156.451" fill="white" transform="matrix(-0.997684 -0.0681113 -0.0755459 0.997149 229.137 80.4016)"/>
</clipPath>
<clipPath id="clip1_779_6396">
<rect width="100.992" height="167.263" fill="white" transform="matrix(0.985458 0.170092 -0.185809 0.982618 76.114 16.7214)"/>
</clipPath>
<clipPath id="clip2_779_6396">
<rect width="65.0772" height="63.2767" fill="white" transform="translate(80.679 59.5867)"/>
</clipPath>
<clipPath id="clip3_779_6396">
<rect width="37.6689" height="103.047" fill="white" transform="translate(150.395 75.7133)"/>
</clipPath>
<clipPath id="clip4_779_6396">
<rect width="82.3656" height="25.5567" fill="white" transform="translate(62.969 130.79)"/>
</clipPath>
<clipPath id="clip5_779_6396">
<rect width="94.4533" height="44.9633" fill="white" transform="translate(139.853 19.1334)"/>
</clipPath>
<clipPath id="clip6_779_6396">
<rect width="80.8195" height="47.2867" fill="white" transform="translate(11.8066 153.887)"/>
</clipPath>
</defs>
</svg>
