<svg width="260" height="209" viewBox="0 0 260 209" fill="none" xmlns="http://www.w3.org/2000/svg">
<g clip-path="url(#clip0_1324_13976)">
<path d="M48.2092 194.673C59.2071 183.165 72.6851 173 86.9389 164.155C119.366 142.827 90.767 95.29 56.6886 114.032C39.8752 124.436 25.085 135.418 12.3903 147.551C18.4162 169.987 29.7745 186.266 48.2092 194.673Z" fill="white"/>
<path d="M48.1631 194.961C48.1377 194.957 48.1124 194.949 48.0882 194.938C39.0584 190.82 31.4291 184.633 25.4125 176.547C19.6639 168.821 15.1879 159.091 12.1086 147.627C12.0951 147.576 12.0954 147.523 12.1095 147.473C12.1236 147.422 12.151 147.377 12.1888 147.34C24.4014 135.668 38.9073 124.692 56.5351 113.784L56.5481 113.776C64.5299 109.387 72.7896 108.315 80.4342 110.678C87.2394 112.781 93.1221 117.48 96.9989 123.91C100.876 130.34 102.287 137.738 100.972 144.74C99.4953 152.602 94.6981 159.4 87.0991 164.398C71.5188 174.067 58.5076 184.319 48.42 194.874C48.3527 194.944 48.2562 194.976 48.1631 194.961ZM12.7168 147.642C15.7753 158.963 20.2038 168.57 25.8803 176.199C31.7957 184.149 39.2844 190.245 48.1417 194.321C58.2431 183.783 71.2427 173.551 86.7849 163.907C94.242 159.002 98.9517 152.335 100.399 144.632C101.687 137.771 100.302 130.518 96.499 124.211C92.6964 117.904 86.93 113.296 80.2617 111.235C72.7742 108.921 64.6733 109.975 56.8356 114.283C39.3059 125.131 24.8723 136.045 12.7168 147.642Z" fill="#0A2446"/>
<path d="M83.9782 166.018C83.9782 166.018 104.313 154.92 107.812 153.814C110.577 152.94 128.354 151.166 133.016 150.913C143.217 150.358 143.283 136.589 133.985 136.522C128.714 136.484 109.743 136.334 105.56 137.443C100.056 138.902 89.1351 144.323 89.1351 144.323" fill="white"/>
<path d="M83.9325 166.306C83.8724 166.297 83.8168 166.269 83.7734 166.226C83.7301 166.183 83.7013 166.128 83.6909 166.068C83.6806 166.008 83.6892 165.946 83.7157 165.892C83.7421 165.837 83.7851 165.792 83.8385 165.762C84.6699 165.309 104.238 154.638 107.724 153.536C110.479 152.665 128.278 150.879 133 150.622C138.286 150.334 140.606 146.511 140.524 143.081C140.451 139.984 138.4 136.846 133.983 136.814L133.795 136.813C117.828 136.697 108.353 137.004 105.634 137.725C100.222 139.16 89.3738 144.53 89.2649 144.584C89.1956 144.618 89.1155 144.624 89.0422 144.599C88.9689 144.574 88.9083 144.522 88.8739 144.452C88.8395 144.383 88.834 144.303 88.8587 144.23C88.8833 144.156 88.9361 144.096 89.0054 144.061C89.1149 144.007 100.016 138.611 105.485 137.161C108.254 136.427 117.78 136.114 133.799 136.229L133.987 136.231C136.14 136.246 137.96 136.98 139.25 138.353C140.405 139.58 141.064 141.255 141.107 143.067C141.155 145.067 140.464 146.979 139.163 148.451C137.694 150.114 135.573 151.066 133.032 151.204C128.327 151.46 110.622 153.231 107.9 154.092C104.467 155.177 84.3208 166.163 84.1178 166.274C84.0613 166.305 83.9961 166.317 83.9325 166.306Z" fill="#0A2446"/>
<path d="M88.7867 147.464C88.7867 147.464 104.651 139.233 107.55 139.14C110.449 139.047 127.664 139.609 132.32 139.954C142.509 140.71 142.862 126.969 133.649 125.712C128.426 125 107.609 122.757 103.3 123.17C98.9922 123.584 85.7318 130.374 85.7318 130.374" fill="white"/>
<path d="M88.7406 147.752C88.68 147.742 88.624 147.714 88.5805 147.67C88.5371 147.627 88.5084 147.571 88.4986 147.51C88.4888 147.45 88.4983 147.388 88.5258 147.333C88.5534 147.278 88.5975 147.233 88.652 147.205C89.3022 146.868 104.608 138.943 107.54 138.849C110.516 138.753 127.668 139.317 132.341 139.664C134.547 139.827 136.435 139.293 137.802 138.118C139.004 137.084 139.764 135.584 139.942 133.893C140.304 130.45 138.242 126.633 133.609 126.001C128.591 125.317 107.679 123.043 103.328 123.461C99.1241 123.864 85.9966 130.566 85.8644 130.633C85.8303 130.651 85.793 130.662 85.7547 130.665C85.7163 130.669 85.6777 130.664 85.641 130.653C85.6043 130.641 85.5703 130.622 85.541 130.597C85.5116 130.572 85.4874 130.542 85.4699 130.508C85.4524 130.473 85.4418 130.436 85.4387 130.398C85.4357 130.359 85.4403 130.321 85.4523 130.284C85.4643 130.248 85.4833 130.214 85.5084 130.185C85.5336 130.155 85.5642 130.131 85.5986 130.114C86.1421 129.836 98.9579 123.294 103.272 122.88C107.667 122.458 128.655 124.737 133.688 125.424C135.983 125.738 137.854 126.816 139.101 128.545C140.205 130.075 140.723 132.046 140.522 133.954C140.329 135.793 139.498 137.429 138.183 138.56C136.696 139.838 134.662 140.42 132.299 140.245C127.635 139.899 110.525 139.336 107.559 139.432C105.318 139.504 94.3875 144.886 88.9209 147.723C88.8655 147.752 88.8023 147.762 88.7406 147.752Z" fill="#0A2446"/>
<path d="M83.6379 134.222C83.6379 134.222 98.9759 125.546 101.865 125.81C104.753 126.074 122.461 127.224 127.094 127.806C137.23 129.081 138.283 115.376 129.147 113.651C123.967 112.673 103.939 109.558 99.6125 109.439C95.2858 109.32 80.0918 117.428 80.0918 117.428" fill="white"/>
<path d="M83.5923 134.51C83.5325 134.5 83.4772 134.473 83.4339 134.43C83.3907 134.388 83.3616 134.333 83.3509 134.274C83.3401 134.214 83.3482 134.153 83.3739 134.098C83.3996 134.043 83.4417 133.998 83.4944 133.968C84.1239 133.612 98.9455 125.25 101.891 125.519C102.822 125.605 105.28 125.781 108.39 126.004C114.973 126.476 123.987 127.122 127.13 127.517C129.325 127.793 131.238 127.356 132.663 126.252C133.916 125.281 134.751 123.822 135.015 122.142C135.552 118.722 133.69 114.806 129.093 113.938C123.519 112.886 103.844 109.848 99.6048 109.73C95.404 109.615 80.3807 117.605 80.2294 117.686C80.1612 117.722 80.0813 117.73 80.0073 117.707C79.9333 117.685 79.8713 117.634 79.8348 117.566C79.8167 117.532 79.8055 117.495 79.8018 117.457C79.798 117.419 79.8018 117.38 79.813 117.344C79.8241 117.307 79.8424 117.273 79.8667 117.244C79.891 117.214 79.9209 117.189 79.9547 117.171C79.9928 117.151 83.8102 115.117 88.1072 113.125C93.9072 110.435 97.781 109.097 99.6209 109.148C104.092 109.271 124.333 112.446 129.201 113.365C131.476 113.794 133.29 114.967 134.448 116.758C135.472 118.341 135.889 120.337 135.591 122.232C135.06 125.618 132.215 128.744 127.058 128.096C123.93 127.703 114.925 127.057 108.349 126.585C105.235 126.362 102.775 126.186 101.839 126.1C101.196 126.041 99.0368 126.493 91.8024 130.176C87.6603 132.285 83.8204 134.454 83.7821 134.476C83.7245 134.508 83.6576 134.52 83.5923 134.51Z" fill="#0A2446"/>
<path d="M79.3636 120.851C79.3636 120.851 94.9725 114.067 97.768 113.293C100.672 112.488 122.839 112.614 127.508 112.651C137.724 112.733 137.168 98.9987 127.892 98.3527C122.634 97.9865 96.933 98.8342 92.5362 99.3044C88.2326 99.7646 56.6885 114.031 56.6885 114.031" fill="white"/>
<path d="M79.3177 121.139C79.2554 121.129 79.198 121.099 79.1541 121.054C79.1102 121.009 79.0821 120.95 79.0742 120.888C79.0662 120.825 79.0788 120.762 79.11 120.707C79.1412 120.652 79.1893 120.609 79.2471 120.584C79.8853 120.306 94.9069 113.783 97.69 113.012C100.664 112.188 123.052 112.324 127.51 112.36C129.721 112.377 131.57 111.719 132.856 110.457C133.988 109.346 134.647 107.799 134.712 106.1C134.846 102.641 132.539 98.9686 127.872 98.6435C122.64 98.2791 96.9982 99.1204 92.5673 99.5942C88.3589 100.044 57.1238 114.155 56.8088 114.297C56.7384 114.329 56.6583 114.331 56.5861 114.304C56.5139 114.276 56.4555 114.222 56.4237 114.151C56.3918 114.081 56.3892 114.001 56.4163 113.929C56.4434 113.856 56.498 113.798 56.5683 113.766C57.8579 113.182 88.2044 99.4744 92.5052 99.0145C96.9478 98.5393 122.663 97.6963 127.913 98.0618C130.221 98.2226 132.161 99.1761 133.52 100.819C134.722 102.272 135.369 104.206 135.295 106.123C135.163 109.548 132.703 112.985 127.505 112.943C124.781 112.921 100.807 112.753 97.8457 113.574C95.1017 114.334 79.6357 121.051 79.4797 121.119C79.4288 121.141 79.3726 121.148 79.3177 121.139Z" fill="#0A2446"/>
<path d="M61.873 182.014C43.8711 175.879 23.1022 155.141 20.0729 140.565C15.0281 144.621 10.5919 148.781 5.77512 152.974C8.80427 167.55 30.2075 188.538 48.2092 194.673C52.3945 190.367 56.4991 186.458 61.873 182.014Z" fill="white"/>
<path d="M48.1631 194.961C48.147 194.958 48.1308 194.954 48.1149 194.949C39.4876 192.009 29.6676 185.538 21.173 177.197C12.66 168.837 6.94348 160.03 5.48939 153.033C5.47886 152.983 5.48201 152.93 5.49852 152.881C5.51503 152.832 5.5443 152.788 5.58334 152.754C7.13076 151.407 8.66138 150.043 10.1415 148.725C13.2484 145.957 16.4611 143.094 19.8898 140.338C19.9287 140.307 19.975 140.286 20.0242 140.278C20.0735 140.269 20.124 140.274 20.171 140.291C20.218 140.308 20.2599 140.336 20.2927 140.374C20.3254 140.412 20.348 140.457 20.3581 140.506C21.7945 147.418 27.3367 156.072 35.5635 164.248C43.8268 172.461 53.4503 178.836 61.9668 181.738C62.0159 181.755 62.0596 181.784 62.0935 181.823C62.1274 181.863 62.1502 181.91 62.1595 181.961C62.1689 182.012 62.1644 182.065 62.1467 182.114C62.1289 182.162 62.0985 182.206 62.0585 182.239C57.2097 186.248 53.1303 190.028 48.4179 194.876C48.3513 194.945 48.2558 194.975 48.1631 194.961ZM6.0959 153.081C9.21499 167.468 30.311 188.178 48.1288 194.337C52.6732 189.669 56.6402 185.985 61.2887 182.119C52.814 179.116 43.3184 172.778 35.1525 164.662C27.0288 156.588 21.493 148.029 19.8889 141.088C16.6086 143.744 13.5202 146.496 10.5297 149.16C9.0897 150.443 7.60179 151.769 6.0959 153.081Z" fill="#0A2446"/>
<path d="M48.2066 155.23C57.6451 151.191 62.6704 134.683 58.0066 122.968C58.0066 122.968 61.1917 102.465 62.3756 90.6481C63.3082 81.3386 51.4519 80.1161 49.2276 88.5449C48.4289 91.5709 44.1498 109.337 41.7872 115.159C39.7662 120.139 38.4349 125.95 35.5404 128.25" fill="white"/>
<path d="M48.1608 155.518C48.0983 155.508 48.0407 155.478 47.9968 155.432C47.9528 155.387 47.9248 155.328 47.917 155.266C47.9092 155.203 47.9221 155.139 47.9536 155.084C47.9851 155.03 48.0336 154.987 48.0918 154.962C57.3674 150.993 62.3245 134.603 57.7357 123.076C57.7164 123.027 57.7104 122.975 57.7184 122.923C57.7503 122.718 60.9159 102.293 62.0853 90.619C62.5548 85.9339 59.7677 83.7372 57.2383 83.2795C53.2752 82.5587 50.3528 85.4234 49.5095 88.6193C49.3736 89.1343 49.131 90.0995 48.8239 91.3215C47.266 97.5212 44.0243 110.422 42.0575 115.269C41.5354 116.555 41.0541 117.913 40.5886 119.226C39.2217 123.082 37.9306 126.723 35.7219 128.478C35.6613 128.526 35.5841 128.548 35.5072 128.539C35.4304 128.53 35.3602 128.491 35.3121 128.431C35.264 128.37 35.2419 128.293 35.2507 128.216C35.2595 128.139 35.2985 128.069 35.3591 128.021C37.4369 126.371 38.7007 122.805 40.0388 119.031C40.5065 117.712 40.9901 116.348 41.5171 115.049C43.4685 110.24 46.7036 97.3661 48.2583 91.1792C48.5659 89.9551 48.8087 88.9884 48.9456 88.4703C49.5008 86.3662 50.6733 84.7071 52.3363 83.672C53.8394 82.7365 55.6199 82.3927 57.3423 82.7054C58.9763 83.0009 60.4031 83.8732 61.3598 85.161C62.4313 86.6034 62.8829 88.5109 62.666 90.677C61.5317 102 58.524 121.531 58.3072 122.934C60.5253 128.564 60.6598 135.53 58.6743 142.062C56.6743 148.641 52.901 153.538 48.3217 155.498C48.2688 155.52 48.2134 155.526 48.1608 155.518Z" fill="#0A2446"/>
</g>
<g clip-path="url(#clip1_1324_13976)">
<path d="M252.396 42.8879C237.93 29.7286 220.503 18.9778 200.296 10.2508C164.974 -3.12371 143.817 46.4424 178.016 62.5917C193.838 69.224 207.483 79.2456 218.155 91.568C237.845 81.3428 250.392 65.9378 252.396 42.8878V42.8879Z" fill="white"/>
<path d="M218.155 91.8589C218.113 91.859 218.071 91.85 218.033 91.8326C217.995 91.8152 217.961 91.7899 217.934 91.7583C207.156 79.3123 193.313 69.3194 177.903 62.86C169.879 59.0712 164.324 53.1794 161.827 45.8163C159.605 39.2615 159.955 31.9546 162.815 25.2423C165.675 18.5287 170.704 13.2059 176.977 10.2541C184.021 6.93915 192.12 6.84402 200.399 9.97876C210.588 14.3791 220.09 19.3169 228.653 24.6606C237.398 30.1178 245.452 36.1779 252.592 42.6729C252.659 42.7339 252.694 42.8227 252.686 42.913C251.713 54.1025 248.166 63.959 242.143 72.2086C236.502 79.9358 228.476 86.5362 218.289 91.8261C218.248 91.8476 218.201 91.8589 218.155 91.8589ZM188.586 8.27132C176.362 8.27132 167.293 16.2159 163.351 25.4701C158.248 37.449 160.7 54.093 178.14 62.3288C185.954 65.6038 193.376 69.7713 200.188 74.7107C206.819 79.5185 212.886 85.0666 218.224 91.2038C239.098 80.2993 250.179 64.5306 252.093 43.0061C238.057 30.2632 220.593 19.3337 200.18 10.5178C196.075 8.96337 192.193 8.27132 188.586 8.27132Z" fill="#0A2446"/>
<path d="M168.197 41.397C168.197 41.397 153.856 34.3542 149.424 36.4628C147.72 37.2735 143.67 51.8382 145.961 54.8049C149.732 59.6898 163.327 62.7837 165.476 63.2886C168.735 64.0544 172.799 62.5331 173.639 58.9721C174.56 55.0619 171.926 51.9253 169.459 50.9268C166.992 49.9284 157.993 46.6927 157.993 46.6927" fill="white"/>
<path d="M167.181 63.774C166.583 63.774 165.986 63.7072 165.409 63.5716L165.255 63.5354C159.365 62.1569 148.996 59.2125 145.73 54.9824C144.122 52.8998 145.552 46.2419 146.029 44.2509C146.875 40.7203 148.258 36.6948 149.298 36.2C153.806 34.0555 167.735 40.8457 168.326 41.1358C168.394 41.1706 168.446 41.2307 168.47 41.3032C168.494 41.3757 168.488 41.4547 168.455 41.5232C168.421 41.5918 168.361 41.6443 168.289 41.6695C168.217 41.6947 168.138 41.6905 168.069 41.6579C167.926 41.5881 153.804 34.7011 149.549 36.7251C148.939 37.0151 147.607 40.1628 146.596 44.3861C145.382 49.4543 145.227 53.3784 146.191 54.6271C148.53 57.6565 155.348 60.619 165.388 62.9689L165.543 63.0053C167.126 63.3773 168.874 63.1897 170.339 62.4902C171.916 61.7371 172.988 60.4638 173.355 58.9053C174.259 55.0718 171.557 52.0895 169.349 51.1963C166.916 50.2115 157.984 46.9986 157.894 46.9664C157.822 46.9394 157.764 46.8854 157.732 46.816C157.7 46.7467 157.697 46.6675 157.723 46.5957C157.749 46.5238 157.802 46.465 157.871 46.4319C157.94 46.3989 158.019 46.3943 158.091 46.419C158.181 46.4513 167.124 49.6681 169.568 50.6571C170.953 51.2177 172.229 52.3291 173.068 53.7062C173.763 54.8455 174.474 56.6955 173.922 59.0386C173.514 60.7722 172.33 62.1843 170.59 63.0152C169.542 63.5159 168.358 63.774 167.181 63.774Z" fill="#0A2446"/>
<path d="M170.838 28.6536C170.838 28.6536 156.497 21.6108 152.064 23.7194C150.36 24.5301 146.514 40.6967 148.804 43.6635C152.576 48.5484 166.171 51.6423 168.32 52.1472C171.579 52.9129 175.143 50.5391 175.983 46.978C176.904 43.0679 174.241 40.8154 171.774 39.8171C169.307 38.8187 160.766 35.7488 160.766 35.7488" fill="white"/>
<path d="M169.558 52.5796C169.117 52.5796 168.679 52.5304 168.253 52.4303L168.099 52.3941C162.209 51.0156 151.84 48.0712 148.574 43.8411C147.102 41.9357 147.971 35.4527 149.162 30.4799C149.419 29.4053 150.763 24.0164 151.939 23.4567C156.447 21.3122 170.376 28.1024 170.967 28.3926C171.035 28.4273 171.086 28.4874 171.11 28.5599C171.135 28.6324 171.129 28.7114 171.095 28.78C171.062 28.8485 171.002 28.901 170.93 28.9262C170.858 28.9514 170.779 28.9472 170.709 28.9146C170.567 28.8448 156.445 21.9579 152.19 23.9818C151.713 24.209 150.688 26.6109 149.729 30.615C148.517 35.6767 147.783 41.8633 149.035 43.4856C151.374 46.515 158.192 49.4776 168.232 51.8275L168.387 51.8638C169.865 52.2112 171.509 51.8757 172.896 50.9436C174.295 50.0037 175.317 48.5339 175.7 46.9111C176.708 42.6331 173.214 40.7132 171.665 40.0864C169.231 39.1016 160.753 36.0531 160.668 36.0224C160.596 35.9954 160.538 35.9415 160.506 35.8721C160.474 35.8027 160.471 35.7236 160.497 35.6517C160.523 35.5799 160.576 35.5211 160.645 35.488C160.714 35.455 160.793 35.4503 160.865 35.4751C160.951 35.5058 169.439 38.5583 171.883 39.5474C172.928 39.9699 174.383 40.7618 175.385 42.1342C176.408 43.5354 176.704 45.1874 176.267 47.0446C175.851 48.8085 174.741 50.4055 173.221 51.4264C172.096 52.1825 170.812 52.5796 169.558 52.5796Z" fill="#0A2446"/>
<path d="M177.597 16.1502C177.597 16.1502 161.881 8.60934 157.449 10.7179C155.745 11.5287 149.79 28.9729 152.081 31.9397C155.853 36.8246 171.816 40.8077 173.965 41.3125C177.224 42.0782 180.779 40.7327 181.618 37.1718C182.54 33.2616 179.905 30.125 177.438 29.1265C174.971 28.1281 166.424 25.0559 166.424 25.0559" fill="white"/>
<path d="M175.748 41.8132C175.139 41.8132 174.517 41.7412 173.898 41.5958C173.163 41.4231 155.858 37.3083 151.85 32.1174C150.751 30.694 151.428 26.6066 152.189 23.4282C153.47 18.0788 156.091 11.0418 157.324 10.4554C161.83 8.31143 177.076 15.5777 177.723 15.8881C177.793 15.9215 177.846 15.9811 177.872 16.0539C177.897 16.1267 177.893 16.2067 177.859 16.2763C177.826 16.3458 177.766 16.3993 177.693 16.4248C177.62 16.4504 177.54 16.446 177.471 16.4126C177.315 16.3378 161.831 8.95592 157.575 10.9807C156.789 11.3547 154.264 17.265 152.756 23.5636C151.737 27.8195 151.575 30.8077 152.312 31.7622C156.195 36.7913 173.305 40.8588 174.032 41.0295C175.631 41.4051 177.243 41.2538 178.571 40.6036C180.005 39.9017 180.961 38.692 181.335 37.1053C182.238 33.2718 179.536 30.2895 177.329 29.3963C174.895 28.4115 166.412 25.3606 166.326 25.3299C166.254 25.303 166.196 25.249 166.164 25.1796C166.132 25.1103 166.129 25.0311 166.155 24.9593C166.181 24.8874 166.234 24.8286 166.303 24.7955C166.372 24.7625 166.451 24.7579 166.523 24.7826C166.609 24.8133 175.104 27.868 177.548 28.8573C178.933 29.4178 180.209 30.5292 181.048 31.9063C181.742 33.0456 182.454 34.8958 181.902 37.2387C181.487 39.0005 180.423 40.3447 178.827 41.1261C177.897 41.5815 176.842 41.8134 175.749 41.8134L175.748 41.8132Z" fill="#0A2446"/>
<path d="M204.63 12.1738C192.102 6.29455 167.511 -0.0489615 162.972 0.305064C158.889 0.623599 141.569 9.30303 140.357 9.88411C130.3 14.7056 137.102 27.0599 146.758 23.2371C153 20.7659 165.205 15.6319 165.205 15.6319L178.541 19.0812" fill="white"/>
<path d="M143.146 24.2534C142.032 24.2534 140.952 24.043 139.934 23.6215C138.049 22.8405 136.508 21.3452 135.708 19.5186C134.314 16.3399 135.172 12.0471 140.231 9.6219C140.335 9.57186 140.559 9.46176 140.884 9.30205C152.842 3.41962 160.472 0.208231 162.949 0.0150735C167.611 -0.349133 192.291 6.06186 204.754 11.9104C204.788 11.9267 204.82 11.9496 204.845 11.9778C204.871 12.0061 204.891 12.0391 204.904 12.075C204.917 12.111 204.923 12.1491 204.921 12.1873C204.919 12.2254 204.91 12.2629 204.894 12.2974C204.877 12.332 204.854 12.3631 204.826 12.3888C204.798 12.4145 204.765 12.4344 204.729 12.4474C204.693 12.4603 204.654 12.4661 204.616 12.4643C204.578 12.4625 204.541 12.4532 204.506 12.4369C198.889 9.80124 190.222 6.7926 180.728 4.18236C172.303 1.86636 165.177 0.424079 162.995 0.594982C161.318 0.725742 156.166 2.43303 141.141 9.82378C140.814 9.98479 140.588 10.0959 140.483 10.1462C135.453 12.5581 135.054 16.5766 136.242 19.2852C137.69 22.5891 141.73 24.9144 146.65 22.9668C152.818 20.525 164.97 15.4152 165.092 15.3638C165.151 15.339 165.217 15.3343 165.278 15.3503L178.614 18.7996C178.689 18.819 178.753 18.8672 178.792 18.9337C178.831 19.0002 178.842 19.0795 178.823 19.1543C178.803 19.229 178.755 19.2929 178.688 19.3321C178.622 19.3712 178.542 19.3823 178.468 19.363L165.228 15.9384C164.094 16.4146 152.756 21.1759 146.865 23.5079C145.61 24.0049 144.358 24.2537 143.146 24.2537V24.2534Z" fill="#0A2446"/>
<path d="M193.361 56.0047C181.998 52.6177 177.123 37.7973 177.123 37.7973C177.123 37.7973 157.996 35.6446 154.114 35.0346C149.703 34.3417 143.516 33.2892 143.706 27.3961C143.934 20.3293 150.182 20.3008 153.579 20.5239C156.341 20.7053 182.017 21.2046 190.684 23.4562C197.585 25.2487 206.924 30.1041 206.924 30.1041" fill="white"/>
<path d="M193.361 56.2956C193.333 56.2956 193.305 56.2917 193.278 56.2834C187.322 54.5081 183.17 49.5957 180.735 45.7873C178.432 42.1836 177.188 38.8579 176.907 38.0656C174.934 37.8429 157.709 35.894 154.068 35.3218C152.023 35.0004 149.221 34.5603 147.049 33.4229C144.551 32.1142 143.328 30.0835 143.415 27.3867C143.489 25.0833 144.203 23.3033 145.537 22.0961C147.745 20.097 151.195 20.0758 153.598 20.2335C154.069 20.2643 155.235 20.3055 156.848 20.3622C164.838 20.6435 183.551 21.3024 190.757 23.1745C197.611 24.9548 206.965 29.7972 207.059 29.846C207.093 29.8636 207.123 29.8878 207.147 29.917C207.172 29.9463 207.191 29.9801 207.202 30.0166C207.213 30.053 207.218 30.0913 207.214 30.1294C207.211 30.1675 207.2 30.2045 207.183 30.2384C207.165 30.2723 207.141 30.3023 207.111 30.3269C207.082 30.3514 207.048 30.37 207.012 30.3815C206.975 30.3929 206.937 30.3971 206.899 30.3938C206.86 30.3905 206.823 30.3797 206.789 30.362C206.696 30.3136 197.4 25.5012 190.61 23.7376C183.466 21.8817 164.798 21.2244 156.827 20.9438C155.209 20.8868 154.039 20.8457 153.56 20.8141C151.263 20.6633 147.972 20.6768 145.928 22.5272C144.716 23.6245 144.066 25.2657 143.997 27.4054C143.813 33.1215 150.039 34.0998 154.158 34.7472C157.99 35.3492 176.964 37.4866 177.155 37.5081C177.21 37.5143 177.263 37.5363 177.306 37.5715C177.349 37.6066 177.382 37.6534 177.399 37.7064C177.411 37.7432 178.641 41.4347 181.234 45.4862C183.614 49.2066 187.665 54.0032 193.444 55.7259C193.511 55.7458 193.569 55.7892 193.606 55.8481C193.644 55.907 193.659 55.9775 193.649 56.0467C193.639 56.1159 193.604 56.1791 193.551 56.2248C193.498 56.2705 193.43 56.2957 193.36 56.2956H193.361Z" fill="#0A2446"/>
<path d="M257.453 47.7078C265.045 64.3238 250.244 91.359 223.462 98.311C220.122 93.6426 216.297 89.2232 212.004 85.0439C234.891 79.2636 250.317 55.3481 244.96 36.5427C249.217 39.957 253.391 43.6466 257.453 47.7078Z" fill="white"/>
<path d="M223.462 98.6019C223.415 98.6019 223.37 98.5908 223.329 98.5696C223.287 98.5485 223.252 98.5178 223.225 98.4801C219.932 93.8771 216.088 89.4266 211.801 85.2522C211.764 85.2161 211.737 85.1708 211.723 85.1209C211.709 85.071 211.709 85.0183 211.723 84.9683C211.736 84.9184 211.763 84.8729 211.8 84.8366C211.837 84.8003 211.882 84.7745 211.933 84.7619C223.587 81.8185 234.227 73.6834 240.396 63.0005C245.491 54.1777 247.012 44.8097 244.68 36.6223C244.663 36.5629 244.665 36.4997 244.687 36.4417C244.708 36.3838 244.747 36.3342 244.799 36.3001C244.851 36.2659 244.912 36.2491 244.973 36.2519C245.035 36.2547 245.095 36.2771 245.143 36.3158C249.66 39.9393 253.754 43.5984 257.659 47.5021C257.684 47.5267 257.704 47.5553 257.718 47.5869C260.87 54.4854 260.279 63.4757 256.095 72.2522C253.251 78.2185 248.918 83.7519 243.565 88.254C237.782 93.1172 230.856 96.6921 223.535 98.5924C223.511 98.5986 223.487 98.6017 223.462 98.6017L223.462 98.6019ZM212.576 85.1963C216.69 89.2407 220.39 93.5379 223.582 97.9788C237.628 94.2727 249.575 84.5741 255.568 72.0021C259.668 63.4017 260.265 54.6116 257.209 47.8759C253.532 44.2021 249.685 40.7451 245.472 37.3292C246.463 41.2936 246.586 45.5237 245.838 49.9188C245.065 54.4572 243.404 58.9563 240.901 63.291C237.907 68.4747 233.787 73.2009 228.986 76.9588C224 80.8615 218.482 83.6313 212.576 85.1963Z" fill="#0A2446"/>
</g>
<g clip-path="url(#clip2_1324_13976)">
<path d="M102.683 15.7529L47.489 70.3037C46.5993 71.183 45.9381 72.2667 45.563 73.4603C45.188 74.6538 45.1105 75.921 45.3374 77.1514L58.5558 148.858C59.3238 153.024 63.3226 155.778 67.4874 155.01L185.217 133.293C189.381 132.525 192.135 128.525 191.367 124.359L178.149 52.6525C177.922 51.4222 177.398 50.266 176.622 49.2847C175.846 48.3035 174.842 47.527 173.697 47.0229L102.683 15.7529Z" fill="#EF6C67"/>
<path d="M66.0799 155.431C64.4834 155.431 62.9256 154.95 61.5825 154.024C59.8315 152.818 58.6547 151.002 58.2692 148.91L45.0508 77.2042C44.8147 75.9271 44.8948 74.6116 45.2841 73.3726C45.6734 72.1336 46.3601 71.0088 47.2841 70.0964L102.478 15.5457C102.519 15.5046 102.572 15.477 102.63 15.4664C102.687 15.4558 102.747 15.4627 102.8 15.4862L173.814 46.7562C175.003 47.2789 176.045 48.0847 176.851 49.1033C177.656 50.122 178.2 51.3224 178.435 52.5997L191.654 124.306C192.449 128.624 189.586 132.784 185.269 133.58L67.5402 155.297C67.0586 155.386 66.5698 155.431 66.08 155.431L66.0799 155.431ZM102.747 16.0995L47.6936 70.5109C46.8373 71.3566 46.2009 72.3991 45.8401 73.5474C45.4793 74.6957 45.405 75.9149 45.6238 77.0986L58.8422 148.805C59.1995 150.743 60.2901 152.426 61.913 153.544C63.5359 154.662 65.497 155.081 67.4346 154.724L185.164 133.007C189.164 132.269 191.818 128.413 191.081 124.412L177.862 52.7053C177.645 51.5215 177.141 50.409 176.394 49.4649C175.648 48.5209 174.681 47.774 173.58 47.2896L102.747 16.0995Z" fill="#EF6C67"/>
<path d="M60.5933 33.0741L148.18 16.9177L169.188 130.881L81.6011 147.038L60.5933 33.0741Z" fill="white"/>
<path d="M81.6012 147.329C81.5332 147.329 81.4673 147.305 81.4149 147.261C81.3626 147.218 81.3272 147.157 81.3147 147.09L60.3066 33.1268C60.2926 33.0508 60.3093 32.9724 60.3532 32.9088C60.397 32.8451 60.4642 32.8015 60.5402 32.7875L148.127 16.6308C148.203 16.617 148.281 16.6338 148.345 16.6776C148.409 16.7214 148.452 16.7886 148.466 16.8645L169.475 130.828C169.489 130.904 169.472 130.982 169.428 131.046C169.384 131.11 169.317 131.153 169.241 131.167L81.6541 147.324C81.6366 147.327 81.6189 147.329 81.6012 147.329ZM60.9325 33.3078L81.835 146.698L168.849 130.647L147.946 17.2569L60.9325 33.3078Z" fill="#0A2446"/>
<path d="M81.7827 34.6392L128.942 25.9402L129.806 30.6245L82.6462 39.3237L81.7827 34.6392Z" fill="#0A2446"/>
<path d="M82.6463 39.6151C82.5782 39.615 82.5123 39.5911 82.46 39.5475C82.4077 39.504 82.3722 39.4435 82.3598 39.3766L81.4962 34.6921C81.4822 34.6161 81.4989 34.5376 81.5427 34.474C81.5866 34.4103 81.6538 34.3666 81.7298 34.3526L128.889 25.6534C128.965 25.6396 129.043 25.6564 129.107 25.7002C129.171 25.744 129.214 25.8112 129.228 25.8871L130.092 30.5716C130.106 30.6476 130.089 30.7261 130.045 30.7897C130.002 30.8534 129.934 30.897 129.858 30.9111L82.6991 39.6103C82.6817 39.6135 82.6639 39.6151 82.6463 39.6151ZM82.1221 34.8729L82.8799 38.9842L129.466 30.3906L128.708 26.2793L82.1221 34.8729ZM69.4482 52.1255C69.3758 52.1251 69.3061 52.0977 69.2528 52.0487C69.1994 51.9997 69.1662 51.9326 69.1596 51.8604C69.1531 51.7882 69.1736 51.7162 69.2172 51.6584C69.2609 51.6005 69.3245 51.561 69.3957 51.5475L90.8386 47.5921C90.9136 47.5805 90.9901 47.5985 91.052 47.6424C91.1139 47.6863 91.1563 47.7527 91.17 47.8273C91.1838 47.902 91.1679 47.979 91.1258 48.0422C91.0836 48.1053 91.0185 48.1495 90.9443 48.1653L69.5014 52.1207C69.4839 52.124 69.4661 52.1256 69.4482 52.1255ZM70.5798 58.2646C70.5074 58.2641 70.4377 58.2368 70.3843 58.1877C70.331 58.1387 70.2978 58.0716 70.2912 57.9994C70.2847 57.9273 70.3052 57.8553 70.3488 57.7974C70.3925 57.7396 70.4561 57.7 70.5272 57.6866L98.345 52.5552C98.42 52.5435 98.4966 52.5616 98.5585 52.6055C98.6204 52.6494 98.6627 52.7157 98.6765 52.7904C98.6903 52.865 98.6744 52.9421 98.6322 53.0052C98.5901 53.0683 98.525 53.1125 98.4508 53.1284L70.633 58.2598C70.6155 58.263 70.5977 58.2646 70.5798 58.2646ZM72.9304 67.9069C72.858 67.9065 72.7883 67.8791 72.7349 67.8301C72.6816 67.781 72.6484 67.7139 72.6418 67.6417C72.6352 67.5696 72.6558 67.4976 72.6994 67.4397C72.743 67.3819 72.8066 67.3424 72.8778 67.3289L148.917 53.3024C148.955 53.2954 148.993 53.296 149.031 53.3039C149.068 53.3119 149.103 53.3272 149.135 53.3489C149.167 53.3706 149.193 53.3983 149.214 53.4304C149.235 53.4625 149.249 53.4984 149.256 53.5361C149.263 53.5737 149.263 53.6123 149.255 53.6498C149.247 53.6872 149.231 53.7227 149.21 53.7542C149.188 53.7857 149.16 53.8127 149.128 53.8335C149.096 53.8543 149.06 53.8686 149.023 53.8756L72.9836 67.9021C72.966 67.9053 72.9482 67.9069 72.9304 67.9069ZM74.5952 76.9391C74.5226 76.9391 74.4526 76.9118 74.3989 76.8628C74.3453 76.8137 74.3119 76.7464 74.3054 76.674C74.2988 76.6017 74.3195 76.5294 74.3634 76.4715C74.4074 76.4137 74.4713 76.3743 74.5428 76.3611L150.582 62.3346C150.657 62.3229 150.733 62.341 150.795 62.3849C150.857 62.4288 150.9 62.4951 150.913 62.5698C150.927 62.6444 150.911 62.7215 150.869 62.7846C150.827 62.8478 150.762 62.8919 150.688 62.9078L74.6485 76.9343C74.631 76.9376 74.6132 76.9392 74.5954 76.9391H74.5952ZM76.2603 85.9712C76.1877 85.9712 76.1177 85.9439 76.0641 85.8949C76.0104 85.8459 75.9771 85.7785 75.9705 85.7062C75.9639 85.6338 75.9846 85.5615 76.0286 85.5037C76.0725 85.4458 76.1364 85.4064 76.2079 85.3932L152.247 71.3667C152.285 71.3598 152.323 71.3603 152.361 71.3683C152.398 71.3763 152.434 71.3916 152.465 71.4133C152.497 71.435 152.524 71.4627 152.544 71.4948C152.565 71.5269 152.579 71.5628 152.586 71.6004C152.593 71.6381 152.593 71.6767 152.585 71.7141C152.577 71.7516 152.562 71.7871 152.54 71.8186C152.518 71.8501 152.49 71.877 152.458 71.8979C152.426 71.9187 152.39 71.933 152.353 71.9399L76.3137 85.9664C76.2961 85.9697 76.2782 85.9713 76.2603 85.9712ZM77.9253 95.0033C77.8527 95.0033 77.7826 94.976 77.729 94.927C77.6754 94.878 77.642 94.8106 77.6355 94.7383C77.6289 94.6659 77.6496 94.5936 77.6935 94.5358C77.7375 94.4779 77.8014 94.4385 77.8729 94.4253L153.912 80.3988C153.95 80.3919 153.988 80.3924 154.026 80.4004C154.063 80.4084 154.099 80.4237 154.13 80.4454C154.162 80.4671 154.189 80.4948 154.209 80.5269C154.23 80.559 154.244 80.5949 154.251 80.6325C154.258 80.6702 154.258 80.7088 154.25 80.7462C154.242 80.7837 154.227 80.8192 154.205 80.8507C154.183 80.8822 154.155 80.9091 154.123 80.93C154.091 80.9508 154.055 80.9651 154.018 80.972L77.9786 94.9985C77.9611 95.0018 77.9431 95.0034 77.9253 95.0033Z" fill="#0A2446"/>
<path d="M58.5557 148.858C59.3237 153.024 63.3225 155.778 67.4874 155.01L185.217 133.293C189.381 132.525 192.135 128.525 191.367 124.359L178.803 56.2026L120.721 113.608L45.9917 80.7014L58.5557 148.858Z" fill="#EF6C67"/>
<path d="M66.08 155.431C64.4835 155.431 62.9258 154.95 61.5826 154.024C59.8316 152.818 58.6548 151.002 58.2693 148.91L45.7053 80.7543C45.6957 80.7022 45.7004 80.6485 45.7191 80.5989C45.7377 80.5493 45.7695 80.5057 45.811 80.4729C45.8526 80.44 45.9023 80.4191 45.9548 80.4124C46.0073 80.4057 46.0607 80.4134 46.1092 80.4348L120.658 113.261L178.599 55.9953C178.636 55.9581 178.683 55.9318 178.735 55.9193C178.786 55.9068 178.84 55.9087 178.891 55.9245C178.941 55.9404 178.986 55.9698 179.021 56.0095C179.057 56.0492 179.08 56.0977 179.09 56.1498L191.654 124.306C192.039 126.397 191.588 128.514 190.382 130.266C189.176 132.017 187.36 133.194 185.27 133.58L67.5402 155.297C67.0585 155.386 66.5697 155.431 66.0798 155.431L66.08 155.431ZM58.8423 148.805C59.1996 150.743 60.2902 152.426 61.9131 153.544C63.536 154.662 65.4971 155.081 67.4347 154.723L185.164 133.007C187.102 132.649 188.784 131.558 189.902 129.935C191.02 128.311 191.438 126.35 191.081 124.411L178.617 56.7964L120.926 113.815C120.885 113.856 120.832 113.883 120.775 113.894C120.717 113.904 120.658 113.897 120.604 113.874L46.378 81.1899L58.8423 148.805V148.805Z" fill="#EF6C67"/>
<path d="M120.721 113.899C120.682 113.899 120.642 113.891 120.604 113.874L45.8743 80.9681C45.8389 80.9529 45.8068 80.9309 45.78 80.9033C45.7531 80.8757 45.732 80.843 45.7179 80.8072C45.7037 80.7713 45.6968 80.7331 45.6976 80.6945C45.6983 80.656 45.7067 80.618 45.7222 80.5828C45.7377 80.5475 45.76 80.5157 45.7879 80.4891C45.8158 80.4625 45.8487 80.4418 45.8847 80.428C45.9206 80.4142 45.959 80.4077 45.9975 80.4089C46.036 80.41 46.0739 80.4188 46.1089 80.4347L120.657 113.261L178.598 55.9952C178.625 55.9683 178.658 55.9471 178.693 55.9326C178.728 55.9182 178.766 55.9109 178.805 55.9111C178.843 55.9114 178.881 55.9191 178.916 55.934C178.951 55.9488 178.983 55.9705 179.01 55.9977C179.037 56.0249 179.058 56.0572 179.073 56.0926C179.087 56.1281 179.094 56.166 179.094 56.2043C179.094 56.2425 179.086 56.2804 179.071 56.3156C179.056 56.3509 179.035 56.3829 179.008 56.4098L120.926 113.815C120.87 113.87 120.796 113.899 120.721 113.899Z" fill="#0A2446"/>
<path d="M58.5557 148.858C59.3237 153.024 63.3225 155.778 67.4873 155.01L185.217 133.293C189.381 132.525 192.135 128.525 191.367 124.359C190.599 120.193 116.637 91.4529 116.637 91.4529L58.5557 148.858Z" fill="#EF6C67"/>
<path d="M66.0799 155.431C64.4834 155.431 62.9258 154.949 61.5826 154.024C59.8315 152.818 58.6548 151.002 58.2692 148.91C58.2518 148.816 58.2823 148.718 58.3509 148.65L116.432 91.2454C116.474 91.2043 116.527 91.1767 116.584 91.1661C116.642 91.1555 116.701 91.1624 116.755 91.1859L191.484 124.092C191.528 124.111 191.566 124.14 191.595 124.178C191.625 124.215 191.645 124.259 191.653 124.306C192.449 128.623 189.585 132.784 185.269 133.58L67.54 155.297C67.0583 155.386 66.5695 155.431 66.0797 155.431H66.0799ZM58.8715 148.955C59.2565 150.83 60.3323 152.455 61.9131 153.544C63.5359 154.662 65.4967 155.081 67.4347 154.724L185.164 133.007C187.102 132.649 188.784 131.558 189.902 129.935C190.99 128.354 191.416 126.451 191.107 124.562L116.701 91.7992L58.8715 148.955Z" fill="#EF6C67"/>
<path d="M58.5558 149.149C58.498 149.149 58.4415 149.132 58.3935 149.1C58.3456 149.068 58.3082 149.022 58.2862 148.968C58.2643 148.915 58.2587 148.856 58.2703 148.799C58.2818 148.743 58.3099 148.691 58.351 148.65L116.433 91.2455C116.474 91.2044 116.527 91.1768 116.584 91.1662C116.642 91.1556 116.701 91.1625 116.755 91.186L191.484 124.092C191.52 124.107 191.552 124.129 191.579 124.157C191.605 124.184 191.627 124.217 191.641 124.253C191.655 124.289 191.662 124.327 191.661 124.365C191.66 124.404 191.652 124.442 191.636 124.477C191.621 124.513 191.599 124.544 191.571 124.571C191.543 124.597 191.51 124.618 191.474 124.632C191.438 124.646 191.4 124.652 191.361 124.651C191.323 124.65 191.285 124.641 191.25 124.625L116.701 91.7992L58.7606 149.065C58.7038 149.121 58.6298 149.149 58.5558 149.149Z" fill="#0A2446"/>
</g>
<g clip-path="url(#clip3_1324_13976)">
<path d="M246.132 38.1152C249.936 41.2352 253.67 44.5853 257.313 48.236C260.956 56.3355 259.221 67.0337 253.215 76.6256C247.248 86.1548 237.108 94.513 224.048 98.0105C220.913 93.6461 217.356 89.5004 213.395 85.5659C224.558 82.4935 233.883 75.1296 239.823 66.2054C245.601 57.5261 248.206 47.3241 246.132 38.1152Z" fill="#0A2446" stroke="white"/>
<path d="M223.842 98.8729C223.796 98.8729 223.751 98.8619 223.71 98.8407C223.668 98.8195 223.633 98.7888 223.606 98.7511C220.323 94.1452 216.491 89.6918 212.217 85.5149C212.179 85.4788 212.153 85.4334 212.139 85.3835C212.125 85.3336 212.125 85.2809 212.139 85.2309C212.152 85.1809 212.179 85.1354 212.215 85.0991C212.252 85.0627 212.298 85.0369 212.348 85.0243C223.967 82.0791 234.576 73.9389 240.726 63.2493C245.805 54.421 247.322 45.0471 244.997 36.8546C244.98 36.7952 244.982 36.7319 245.003 36.6739C245.025 36.616 245.064 36.5663 245.115 36.5321C245.167 36.498 245.228 36.4811 245.289 36.484C245.351 36.4868 245.41 36.5092 245.458 36.5479C249.962 40.1735 254.044 43.8349 257.937 47.7412C257.961 47.7658 257.981 47.7945 257.995 47.8261C261.138 54.7289 260.548 63.7247 256.377 72.5066C253.542 78.4767 249.222 84.0135 243.885 88.5184C238.12 93.3847 231.215 96.9618 223.916 98.8633C223.892 98.8695 223.868 98.8726 223.843 98.8727L223.842 98.8729ZM212.99 85.459C217.091 89.5059 220.78 93.8056 223.962 98.2494C237.965 94.5411 249.877 84.8364 255.852 72.2566C259.94 63.6509 260.535 54.8552 257.488 48.1154C253.822 44.4392 249.986 40.98 245.786 37.5621C246.774 41.5289 246.897 45.7618 246.151 50.1597C245.38 54.701 243.724 59.2028 241.229 63.5403C238.245 68.7272 234.137 73.4564 229.35 77.2166C224.379 81.1218 218.878 83.8931 212.99 85.4592L212.99 85.459Z" fill="white" stroke="white"/>
</g>
<g clip-path="url(#clip4_1324_13976)">
<path d="M10.792 149.368C13.769 146.732 16.711 144.127 19.8877 141.558C21.6591 148.816 27.5115 157.376 35.0539 164.904C42.6426 172.478 52.0163 179.082 60.8517 182.318C55.8783 186.446 51.9787 190.139 48.0305 194.166C39.2188 191.067 29.5861 184.389 21.7576 176.669C13.935 168.955 7.99586 160.281 6.43311 153.201C7.91432 151.917 9.35724 150.639 10.792 149.368Z" fill="#0A2446" stroke="white"/>
<path d="M48.166 195.034C48.1342 195.034 48.1023 195.028 48.0713 195.018C39.4598 192.062 29.6662 185.579 21.2019 177.232C12.719 168.867 7.03133 160.062 5.59724 153.075C5.58685 153.024 5.59015 152.971 5.60679 152.923C5.62343 152.874 5.65282 152.83 5.69194 152.796C7.2414 151.456 8.77411 150.098 10.2564 148.786C13.3677 146.031 16.585 143.182 20.0175 140.439C20.0564 140.408 20.1027 140.387 20.1519 140.379C20.2012 140.371 20.2517 140.375 20.2986 140.392C20.3455 140.409 20.3873 140.438 20.4199 140.476C20.4525 140.514 20.4749 140.559 20.4848 140.608C21.9017 147.511 27.4158 156.162 35.6129 164.344C43.8466 172.562 53.444 178.948 61.9448 181.866C61.9938 181.883 62.0375 181.913 62.0712 181.952C62.105 181.991 62.1277 182.039 62.1369 182.09C62.1461 182.141 62.1415 182.193 62.1237 182.242C62.1058 182.29 62.0753 182.333 62.0353 182.366C57.1802 186.357 53.0947 190.119 48.3743 194.946C48.3472 194.974 48.3148 194.996 48.279 195.011C48.2432 195.026 48.2047 195.034 48.1659 195.034H48.166ZM6.20299 153.124C9.28108 167.491 30.3023 188.215 48.0868 194.407C52.6387 189.76 56.6117 186.092 61.2664 182.245C52.8077 179.226 43.338 172.877 35.2013 164.755C27.1066 156.676 21.5987 148.12 20.0146 141.188C16.7303 143.831 13.6375 146.569 10.6429 149.221C9.20067 150.498 7.71064 151.818 6.20284 153.124L6.20299 153.124Z" fill="white" stroke="white" stroke-linejoin="round"/>
</g>
<g clip-path="url(#clip5_1324_13976)">
<path d="M193.271 55.9953C181.92 52.6126 177.05 37.811 177.05 37.811C177.05 37.811 157.943 35.6611 154.065 35.0518C149.659 34.3598 143.479 33.3086 143.669 27.4232C143.896 20.3652 150.137 20.3368 153.531 20.5596C156.29 20.7407 181.938 21.2394 190.597 23.4881C197.491 25.2784 206.82 30.1276 206.82 30.1276" fill="white"/>
<path d="M193.271 56.286C193.243 56.286 193.215 56.282 193.187 56.2738C187.238 54.5008 183.09 49.5946 180.658 45.791C178.357 42.1919 177.115 38.8704 176.834 38.0792C174.863 37.8568 157.657 35.9104 154.019 35.3389C151.976 35.0178 149.177 34.5783 147.008 33.4423C144.512 32.1355 143.291 30.1072 143.378 27.4138C143.452 25.1134 144.165 23.3358 145.497 22.1299C147.703 20.1336 151.15 20.1122 153.55 20.2698C154.021 20.3006 155.185 20.3417 156.796 20.3984C164.778 20.6793 183.471 21.3374 190.67 23.2071C197.517 24.9851 206.861 29.8214 206.954 29.8699C206.988 29.8876 207.018 29.9117 207.043 29.9409C207.067 29.9702 207.086 30.0039 207.098 30.0403C207.109 30.0767 207.113 30.115 207.11 30.153C207.107 30.191 207.096 30.228 207.078 30.2619C207.06 30.2957 207.036 30.3258 207.007 30.3503C206.978 30.3748 206.944 30.3933 206.907 30.4048C206.871 30.4162 206.833 30.4204 206.794 30.4171C206.756 30.4138 206.719 30.403 206.685 30.3853C206.592 30.337 197.306 25.5307 190.524 23.7694C183.386 21.9157 164.738 21.2594 156.775 20.979C155.159 20.9221 153.991 20.8809 153.512 20.8496C151.217 20.6989 147.93 20.7124 145.888 22.5605C144.677 23.6564 144.028 25.2955 143.959 27.4325C143.775 33.1415 149.995 34.1184 154.11 34.7649C157.938 35.3662 176.891 37.5009 177.082 37.5224C177.137 37.5286 177.19 37.5506 177.233 37.5857C177.276 37.6208 177.309 37.6675 177.326 37.7204C177.338 37.7571 178.567 41.4439 181.157 45.4904C183.534 49.2062 187.581 53.9967 193.354 55.7171C193.421 55.737 193.479 55.7803 193.516 55.8392C193.554 55.898 193.569 55.9685 193.559 56.0376C193.549 56.1066 193.514 56.1698 193.461 56.2154C193.408 56.2611 193.341 56.2862 193.271 56.2861L193.271 56.286Z" fill="#0A2446"/>
</g>
<g clip-path="url(#clip6_1324_13976)">
<path d="M48.0839 155.003C57.5647 150.984 62.6506 134.475 58.0024 122.738C58.0024 122.738 61.2525 102.226 62.4717 90.4022C63.4322 81.0873 51.5394 79.8341 49.2853 88.2644C48.476 91.2909 44.1352 109.061 41.7495 114.882C39.7085 119.862 38.3574 125.674 35.447 127.968" fill="white"/>
<path d="M48.0839 155.295C48.0164 155.295 47.9509 155.271 47.8986 155.229C47.8463 155.186 47.8103 155.127 47.7968 155.061C47.7833 154.995 47.7931 154.926 47.8245 154.867C47.8559 154.807 47.907 154.76 47.9692 154.734C57.2862 150.785 62.3034 134.394 57.73 122.845C57.7108 122.797 57.705 122.744 57.7132 122.693C57.7456 122.488 60.976 102.053 62.1804 90.3723C62.6638 85.6843 59.8731 83.4788 57.3366 83.0145C54.3304 82.464 50.697 84.1167 49.5678 88.3396C49.4299 88.8549 49.1837 89.8215 48.8719 91.0453C47.2925 97.2456 44.0059 110.147 42.02 114.993C41.4929 116.279 41.0063 117.636 40.5357 118.949C39.154 122.805 37.8489 126.447 35.6281 128.197C35.5671 128.244 35.4901 128.265 35.4137 128.255C35.3373 128.246 35.2677 128.207 35.22 128.147C35.1723 128.087 35.1503 128.01 35.1588 127.934C35.1672 127.857 35.2055 127.788 35.2653 127.739C37.3544 126.093 38.6321 122.528 39.9847 118.753C40.4575 117.434 40.9463 116.07 41.4784 114.772C43.4489 109.964 46.7286 97.0892 48.3048 90.9017C48.617 89.6761 48.8636 88.7081 49.0023 88.1893C50.2229 83.6241 54.1722 81.8416 57.4422 82.4404C60.4438 82.9899 63.2531 85.674 62.7625 90.432C61.5944 101.761 58.5249 121.302 58.3037 122.705C60.5141 128.345 60.6307 135.318 58.621 141.85C56.597 148.43 52.7979 153.322 48.198 155.271C48.1607 155.287 48.1219 155.295 48.0839 155.295Z" fill="#0A2446"/>
</g>
<defs>
<clipPath id="clip0_1324_13976">
<rect width="132.496" height="112.298" fill="white" transform="matrix(0.987458 0.157882 -0.157821 0.987468 17.7229 76.3696)"/>
</clipPath>
<clipPath id="clip1_1324_13976">
<rect width="124.628" height="98.6018" fill="white" transform="translate(135.101)"/>
</clipPath>
<clipPath id="clip2_1324_13976">
<rect width="146.868" height="139.968" fill="white" transform="translate(44.9187 15.4615)"/>
</clipPath>
<clipPath id="clip3_1324_13976">
<rect width="47.8712" height="62.389" fill="white" transform="translate(212.129 36.484)"/>
</clipPath>
<clipPath id="clip4_1324_13976">
<rect width="56.5504" height="54.6582" fill="white" transform="translate(5.59131 140.375)"/>
</clipPath>
<clipPath id="clip5_1324_13976">
<rect width="63.7378" height="36.0771" fill="white" transform="translate(143.373 20.2086)"/>
</clipPath>
<clipPath id="clip6_1324_13976">
<rect width="27.6649" height="72.9681" fill="white" transform="translate(35.1543 82.3264)"/>
</clipPath>
</defs>
</svg>
