<svg width="143" height="122" viewBox="0 0 143 122" fill="none" xmlns="http://www.w3.org/2000/svg">
<g filter="url(#filter0_d_1857_32493)">
<rect x="4" width="135" height="114" rx="10" fill="white"/>
<path d="M47.6005 57.3498C47.8005 56.9498 48.2005 56.9498 48.4005 57.3498L50.4005 61.3498C50.6005 61.7498 51.2005 62.2498 51.7005 62.2498L56.1005 62.8498C56.6005 62.9498 56.7005 63.2498 56.3005 63.6498L53.1005 66.7498C52.7005 67.0498 52.5005 67.7498 52.6005 68.2498L53.3005 72.6498C53.4005 73.1498 53.1005 73.3498 52.7005 73.1498L48.8005 71.0498C48.4005 70.8498 47.6005 70.8498 47.2005 71.0498L43.3005 73.1498C42.9005 73.3498 42.6005 73.1498 42.7005 72.6498L43.4005 68.2498C43.5005 67.7498 43.3005 67.0498 42.9005 66.7498L39.7005 63.6498C39.3005 63.3498 39.5005 62.9498 39.9005 62.8498L44.3005 62.2498C44.8005 62.1498 45.4005 61.7498 45.6005 61.3498L47.6005 57.3498Z" fill="#0A2446"/>
<path d="M71.9999 57.3498C72.1999 56.9498 72.5999 56.9498 72.7999 57.3498L74.7999 61.3498C74.9999 61.7498 75.5999 62.2498 76.0999 62.2498L80.4999 62.8498C80.9999 62.9498 81.0999 63.2498 80.6999 63.6498L77.4999 66.7498C77.0999 67.0498 76.8999 67.7498 76.9999 68.2498L77.6999 72.6498C77.7999 73.1498 77.4999 73.3498 77.0999 73.1498L73.1999 71.0498C72.7999 70.8498 71.9999 70.8498 71.5999 71.0498L67.6999 73.1498C67.2999 73.3498 66.9999 73.1498 67.0999 72.6498L67.7999 68.2498C67.8999 67.7498 67.6999 67.0498 67.2999 66.7498L64.0999 63.6498C63.6999 63.3498 63.8999 62.9498 64.2999 62.8498L68.6999 62.2498C69.1999 62.1498 69.7999 61.7498 69.9999 61.3498L71.9999 57.3498Z" fill="#0A2446"/>
<path d="M71.9999 57.3498C72.1999 56.9498 72.5999 56.9498 72.7999 57.3498L74.7999 61.3498C74.9999 61.7498 75.5999 62.2498 76.0999 62.2498L80.4999 62.8498C80.9999 62.9498 81.0999 63.2498 80.6999 63.6498L77.4999 66.7498C77.0999 67.0498 76.8999 67.7498 76.9999 68.2498L77.6999 72.6498C77.7999 73.1498 77.4999 73.3498 77.0999 73.1498L73.1999 71.0498C72.7999 70.8498 71.9999 70.8498 71.5999 71.0498L67.6999 73.1498C67.2999 73.3498 66.9999 73.1498 67.0999 72.6498L67.7999 68.2498C67.8999 67.7498 67.6999 67.0498 67.2999 66.7498L64.0999 63.6498C63.6999 63.3498 63.8999 62.9498 64.2999 62.8498L68.6999 62.2498C69.1999 62.1498 69.7999 61.7498 69.9999 61.3498L71.9999 57.3498Z" fill="#0A2446"/>
<path d="M71.9999 57.3498C72.1999 56.9498 72.5999 56.9498 72.7999 57.3498L74.7999 61.3498C74.9999 61.7498 75.5999 62.2498 76.0999 62.2498L80.4999 62.8498C80.9999 62.9498 81.0999 63.2498 80.6999 63.6498L77.4999 66.7498C77.0999 67.0498 76.8999 67.7498 76.9999 68.2498L77.6999 72.6498C77.7999 73.1498 77.4999 73.3498 77.0999 73.1498L73.1999 71.0498C72.7999 70.8498 71.9999 70.8498 71.5999 71.0498L67.6999 73.1498C67.2999 73.3498 66.9999 73.1498 67.0999 72.6498L67.7999 68.2498C67.8999 67.7498 67.6999 67.0498 67.2999 66.7498L64.0999 63.6498C63.6999 63.3498 63.8999 62.9498 64.2999 62.8498L68.6999 62.2498C69.1999 62.1498 69.7999 61.7498 69.9999 61.3498L71.9999 57.3498Z" fill="#0A2446"/>
<path d="M96.4003 57.3498C96.6003 56.9498 97.0003 56.9498 97.2003 57.3498L99.2003 61.3498C99.4003 61.7498 100 62.2498 100.5 62.2498L104.9 62.8498C105.4 62.9498 105.5 63.2498 105.1 63.6498L101.9 66.7498C101.5 67.0498 101.3 67.7498 101.4 68.2498L102.1 72.6498C102.2 73.1498 101.9 73.3498 101.5 73.1498L97.6003 71.0498C97.2003 70.8498 96.4003 70.8498 96.0003 71.0498L92.1003 73.1498C91.7003 73.3498 91.4003 73.1498 91.5003 72.6498L92.2003 68.2498C92.3003 67.7498 92.1003 67.0498 91.7003 66.7498L88.5003 63.6498C88.1003 63.3498 88.3003 62.9498 88.7003 62.8498L93.1003 62.2498C93.6003 62.1498 94.2003 61.7498 94.4003 61.3498L96.4003 57.3498Z" fill="#0A2446"/>
<path d="M96.4003 57.3498C96.6003 56.9498 97.0003 56.9498 97.2003 57.3498L99.2003 61.3498C99.4003 61.7498 100 62.2498 100.5 62.2498L104.9 62.8498C105.4 62.9498 105.5 63.2498 105.1 63.6498L101.9 66.7498C101.5 67.0498 101.3 67.7498 101.4 68.2498L102.1 72.6498C102.2 73.1498 101.9 73.3498 101.5 73.1498L97.6003 71.0498C97.2003 70.8498 96.4003 70.8498 96.0003 71.0498L92.1003 73.1498C91.7003 73.3498 91.4003 73.1498 91.5003 72.6498L92.2003 68.2498C92.3003 67.7498 92.1003 67.0498 91.7003 66.7498L88.5003 63.6498C88.1003 63.3498 88.3003 62.9498 88.7003 62.8498L93.1003 62.2498C93.6003 62.1498 94.2003 61.7498 94.4003 61.3498L96.4003 57.3498Z" fill="#0A2446"/>
<path d="M96.4003 57.3498C96.6003 56.9498 97.0003 56.9498 97.2003 57.3498L99.2003 61.3498C99.4003 61.7498 100 62.2498 100.5 62.2498L104.9 62.8498C105.4 62.9498 105.5 63.2498 105.1 63.6498L101.9 66.7498C101.5 67.0498 101.3 67.7498 101.4 68.2498L102.1 72.6498C102.2 73.1498 101.9 73.3498 101.5 73.1498L97.6003 71.0498C97.2003 70.8498 96.4003 70.8498 96.0003 71.0498L92.1003 73.1498C91.7003 73.3498 91.4003 73.1498 91.5003 72.6498L92.2003 68.2498C92.3003 67.7498 92.1003 67.0498 91.7003 66.7498L88.5003 63.6498C88.1003 63.3498 88.3003 62.9498 88.7003 62.8498L93.1003 62.2498C93.6003 62.1498 94.2003 61.7498 94.4003 61.3498L96.4003 57.3498Z" fill="#0A2446"/>
<path d="M115.2 44.45H45C43.9 44.45 42.8 44.75 41.8 45.25L37 48.05C36.3 48.45 36.6 49.55 37.4 49.55H115.2C116.3 49.55 117.3 50.45 117.3 51.65V79.95C117.3 81.05 116.4 82.05 115.2 82.05H52.9C51.3 82.05 49.1 82.95 48 84.05L40.7 91.35V86.55C40.7 84.15 38.8 82.25 36.4 82.25H28.2C27.1 82.25 26.1 81.35 26.1 80.15V48.75C26.1 48.55 26.3 48.25 26.4 48.15L71.4 21.15C71.5 21.15 71.6 21.15 71.7 21.15C71.8 21.15 71.9 21.15 71.9 21.15L86.1 29.65C87.3 30.35 88.7 30.45 89.7 29.85C90.8 29.25 91.4 28.05 91.4 26.65V23.15H99V34.15C99 35.95 100.2 38.15 101.8 39.05L102.3 39.35H109.6C110.3 39.35 110.6 38.45 110 38.05L104.5 34.75C104.4 34.65 104.2 34.35 104.2 34.15V22.45C104.2 20.05 102.3 18.05 99.9 18.05H90.9C88.5 18.05 86.6 19.95 86.6 22.35V23.85L74.6 16.75C72.9 15.75 70.6 15.75 68.9 16.75L23.8 43.75C22.3 44.65 21 46.95 21 48.65V80.05C21 84.05 24.2 87.25 28.2 87.25H35.8V95.55C35.8 97.05 36.5 98.25 37.7 98.75C38.1 98.95 38.5 98.95 38.8 98.95C39.7 98.95 40.6 98.55 41.3 97.85L51.6 87.55C51.9 87.25 52.5 87.05 52.9 87.05H115.2C119.2 87.05 122.4 83.85 122.4 79.85V51.55C122.4 47.65 119.2 44.45 115.2 44.45Z" fill="#0A2446"/>
<path d="M47.6005 57.3498C47.8005 56.9498 48.2005 56.9498 48.4005 57.3498L50.4005 61.3498C50.6005 61.7498 51.2005 62.2498 51.7005 62.2498L56.1005 62.8498C56.6005 62.9498 56.7005 63.2498 56.3005 63.6498L53.1005 66.7498C52.7005 67.0498 52.5005 67.7498 52.6005 68.2498L53.3005 72.6498C53.4005 73.1498 53.1005 73.3498 52.7005 73.1498L48.8005 71.0498C48.4005 70.8498 47.6005 70.8498 47.2005 71.0498L43.3005 73.1498C42.9005 73.3498 42.6005 73.1498 42.7005 72.6498L43.4005 68.2498C43.5005 67.7498 43.3005 67.0498 42.9005 66.7498L39.7005 63.6498C39.3005 63.3498 39.5005 62.9498 39.9005 62.8498L44.3005 62.2498C44.8005 62.1498 45.4005 61.7498 45.6005 61.3498L47.6005 57.3498Z" fill="#0A2446"/>
<path d="M71.9999 57.3498C72.1999 56.9498 72.5999 56.9498 72.7999 57.3498L74.7999 61.3498C74.9999 61.7498 75.5999 62.2498 76.0999 62.2498L80.4999 62.8498C80.9999 62.9498 81.0999 63.2498 80.6999 63.6498L77.4999 66.7498C77.0999 67.0498 76.8999 67.7498 76.9999 68.2498L77.6999 72.6498C77.7999 73.1498 77.4999 73.3498 77.0999 73.1498L73.1999 71.0498C72.7999 70.8498 71.9999 70.8498 71.5999 71.0498L67.6999 73.1498C67.2999 73.3498 66.9999 73.1498 67.0999 72.6498L67.7999 68.2498C67.8999 67.7498 67.6999 67.0498 67.2999 66.7498L64.0999 63.6498C63.6999 63.3498 63.8999 62.9498 64.2999 62.8498L68.6999 62.2498C69.1999 62.1498 69.7999 61.7498 69.9999 61.3498L71.9999 57.3498Z" fill="#0A2446"/>
<path d="M71.9999 57.3498C72.1999 56.9498 72.5999 56.9498 72.7999 57.3498L74.7999 61.3498C74.9999 61.7498 75.5999 62.2498 76.0999 62.2498L80.4999 62.8498C80.9999 62.9498 81.0999 63.2498 80.6999 63.6498L77.4999 66.7498C77.0999 67.0498 76.8999 67.7498 76.9999 68.2498L77.6999 72.6498C77.7999 73.1498 77.4999 73.3498 77.0999 73.1498L73.1999 71.0498C72.7999 70.8498 71.9999 70.8498 71.5999 71.0498L67.6999 73.1498C67.2999 73.3498 66.9999 73.1498 67.0999 72.6498L67.7999 68.2498C67.8999 67.7498 67.6999 67.0498 67.2999 66.7498L64.0999 63.6498C63.6999 63.3498 63.8999 62.9498 64.2999 62.8498L68.6999 62.2498C69.1999 62.1498 69.7999 61.7498 69.9999 61.3498L71.9999 57.3498Z" fill="#0A2446"/>
<path d="M96.4003 57.3498C96.6003 56.9498 97.0003 56.9498 97.2003 57.3498L99.2003 61.3498C99.4003 61.7498 100 62.2498 100.5 62.2498L104.9 62.8498C105.4 62.9498 105.5 63.2498 105.1 63.6498L101.9 66.7498C101.5 67.0498 101.3 67.7498 101.4 68.2498L102.1 72.6498C102.2 73.1498 101.9 73.3498 101.5 73.1498L97.6003 71.0498C97.2003 70.8498 96.4003 70.8498 96.0003 71.0498L92.1003 73.1498C91.7003 73.3498 91.4003 73.1498 91.5003 72.6498L92.2003 68.2498C92.3003 67.7498 92.1003 67.0498 91.7003 66.7498L88.5003 63.6498C88.1003 63.3498 88.3003 62.9498 88.7003 62.8498L93.1003 62.2498C93.6003 62.1498 94.2003 61.7498 94.4003 61.3498L96.4003 57.3498Z" fill="#0A2446"/>
<path d="M96.4003 57.3498C96.6003 56.9498 97.0003 56.9498 97.2003 57.3498L99.2003 61.3498C99.4003 61.7498 100 62.2498 100.5 62.2498L104.9 62.8498C105.4 62.9498 105.5 63.2498 105.1 63.6498L101.9 66.7498C101.5 67.0498 101.3 67.7498 101.4 68.2498L102.1 72.6498C102.2 73.1498 101.9 73.3498 101.5 73.1498L97.6003 71.0498C97.2003 70.8498 96.4003 70.8498 96.0003 71.0498L92.1003 73.1498C91.7003 73.3498 91.4003 73.1498 91.5003 72.6498L92.2003 68.2498C92.3003 67.7498 92.1003 67.0498 91.7003 66.7498L88.5003 63.6498C88.1003 63.3498 88.3003 62.9498 88.7003 62.8498L93.1003 62.2498C93.6003 62.1498 94.2003 61.7498 94.4003 61.3498L96.4003 57.3498Z" fill="#0A2446"/>
<path d="M115.2 44.45H45C43.9 44.45 42.8 44.75 41.8 45.25L37 48.05C36.3 48.45 36.6 49.55 37.4 49.55H115.2C116.3 49.55 117.3 50.45 117.3 51.65V79.95C117.3 81.05 116.4 82.05 115.2 82.05H52.9C51.3 82.05 49.1 82.95 48 84.05L40.7 91.35V86.55C40.7 84.15 38.8 82.25 36.4 82.25H28.2C27.1 82.25 26.1 81.35 26.1 80.15V48.75C26.1 48.55 26.3 48.25 26.4 48.15L71.4 21.15C71.5 21.15 71.6 21.15 71.7 21.15C71.8 21.15 71.9 21.15 71.9 21.15L86.1 29.65C87.3 30.35 88.7 30.45 89.7 29.85C90.8 29.25 91.4 28.05 91.4 26.65V23.15H99V34.15C99 35.95 100.2 38.15 101.8 39.05L102.3 39.35H109.6C110.3 39.35 110.6 38.45 110 38.05L104.5 34.75C104.4 34.65 104.2 34.35 104.2 34.15V22.45C104.2 20.05 102.3 18.05 99.9 18.05H90.9C88.5 18.05 86.6 19.95 86.6 22.35V23.85L74.6 16.75C72.9 15.75 70.6 15.75 68.9 16.75L23.8 43.75C22.3 44.65 21 46.95 21 48.65V80.05C21 84.05 24.2 87.25 28.2 87.25H35.8V95.55C35.8 97.05 36.5 98.25 37.7 98.75C38.1 98.95 38.5 98.95 38.8 98.95C39.7 98.95 40.6 98.55 41.3 97.85L51.6 87.55C51.9 87.25 52.5 87.05 52.9 87.05H115.2C119.2 87.05 122.4 83.85 122.4 79.85V51.55C122.4 47.65 119.2 44.45 115.2 44.45Z" fill="#0A2446"/>
</g>
<defs>
<filter id="filter0_d_1857_32493" x="0" y="0" width="143" height="122" filterUnits="userSpaceOnUse" color-interpolation-filters="sRGB">
<feFlood flood-opacity="0" result="BackgroundImageFix"/>
<feColorMatrix in="SourceAlpha" type="matrix" values="0 0 0 0 0 0 0 0 0 0 0 0 0 0 0 0 0 0 127 0" result="hardAlpha"/>
<feOffset dy="4"/>
<feGaussianBlur stdDeviation="2"/>
<feComposite in2="hardAlpha" operator="out"/>
<feColorMatrix type="matrix" values="0 0 0 0 0 0 0 0 0 0 0 0 0 0 0 0 0 0 0.25 0"/>
<feBlend mode="normal" in2="BackgroundImageFix" result="effect1_dropShadow_1857_32493"/>
<feBlend mode="normal" in="SourceGraphic" in2="effect1_dropShadow_1857_32493" result="shape"/>
</filter>
</defs>
</svg>
