<svg width="175" height="40" viewBox="0 0 175 40" fill="none" xmlns="http://www.w3.org/2000/svg">
<path d="M60.6082 19.3127V16.3712H63.9816V19.3127H60.6082ZM63.5479 31.32V14.1048C63.5479 12.6099 63.9816 11.4044 64.8491 10.5364C65.7166 9.66837 66.9696 9.23438 68.5118 9.23438C69.0901 9.23438 69.572 9.2826 70.0539 9.42726C70.5359 9.52371 70.9696 9.71659 71.3551 9.90948L70.7286 12.7063C70.4395 12.5617 70.1503 12.4652 69.9094 12.3688C69.6202 12.3206 69.3792 12.2723 69.1383 12.2723C68.56 12.2723 68.0298 12.417 67.6925 12.7063C67.3551 12.9957 67.1142 13.5261 67.1142 14.2494V16.3712H70.9696V19.3127H67.1142V31.3682H63.5479V31.32Z" fill="white"/>
<path d="M73.9089 31.3199V16.3711H77.4752V18.3964C78.0053 17.4802 78.68 16.8534 79.4993 16.4676C80.2704 16.0818 81.1378 15.8889 82.0535 15.8889C82.3427 15.8889 82.6318 15.8889 82.921 15.9371C83.2101 15.9854 83.4511 16.0336 83.7403 16.0818L83.2583 19.7949C82.9692 19.6984 82.6318 19.602 82.2945 19.5538C81.9571 19.5056 81.668 19.4573 81.3306 19.4573C80.2222 19.4573 79.3065 19.7949 78.5354 20.47C77.8125 21.1451 77.427 22.0613 77.427 23.2669V31.3199H73.9089Z" fill="white"/>
<path d="M92.9936 31.8022C91.4032 31.8022 89.9575 31.4647 88.7526 30.7896C87.5478 30.1145 86.584 29.1983 85.9093 27.9927C85.2346 26.7872 84.8972 25.437 84.8972 23.8456C84.8972 22.6883 85.09 21.6274 85.4755 20.663C85.8611 19.6986 86.4394 18.8306 87.1623 18.1555C87.8852 17.4321 88.7044 16.9017 89.7165 16.5159C90.6803 16.1301 91.7406 15.9373 92.8972 15.9373C94.1502 15.9373 95.2587 16.1784 96.2225 16.6124C97.1864 17.0464 98.0056 17.6732 98.6803 18.4448C99.3069 19.2163 99.7888 20.1808 100.03 21.2417C100.319 22.3025 100.319 23.4599 100.126 24.7136H88.3189C88.3189 25.5334 88.5117 26.3049 88.8972 26.9318C89.2828 27.5587 89.8611 28.0409 90.6322 28.4267C91.355 28.7643 92.2225 28.9571 93.2346 28.9571C94.102 28.9571 94.9213 28.8125 95.6924 28.5714C96.4635 28.3303 97.2346 27.9445 97.8611 27.4623L99.1623 29.9698C98.6803 30.3556 98.102 30.6931 97.4273 30.9825C96.7526 31.2718 96.0297 31.4647 95.2587 31.6093C94.4394 31.7058 93.7165 31.8022 92.9936 31.8022ZM88.4635 22.1096H96.5599C96.5117 21.0488 96.1743 20.229 95.4996 19.6021C94.8249 18.9752 93.9093 18.6859 92.7044 18.6859C91.4996 18.6859 90.5358 18.9752 89.7647 19.6021C89.0418 20.1808 88.6081 21.0488 88.4635 22.1096Z" fill="white"/>
<path d="M110.488 31.8022C108.897 31.8022 107.452 31.4647 106.247 30.7896C105.042 30.1145 104.078 29.1983 103.403 27.9927C102.729 26.7872 102.391 25.437 102.391 23.8456C102.391 22.6883 102.584 21.6274 102.97 20.663C103.355 19.6986 103.934 18.8306 104.656 18.1555C105.379 17.4321 106.199 16.9017 107.211 16.5159C108.174 16.1301 109.235 15.9373 110.391 15.9373C111.644 15.9373 112.753 16.1784 113.717 16.6124C114.681 17.0464 115.5 17.6732 116.174 18.4448C116.801 19.2163 117.283 20.1808 117.524 21.2417C117.813 22.3025 117.813 23.4599 117.62 24.7136H105.813C105.813 25.5334 106.006 26.3049 106.391 26.9318C106.777 27.5587 107.355 28.0409 108.126 28.4267C108.849 28.7643 109.717 28.9571 110.729 28.9571C111.596 28.9571 112.415 28.8125 113.187 28.5714C113.958 28.3303 114.729 27.9445 115.355 27.4623L116.656 29.9698C116.174 30.3556 115.596 30.6931 114.921 30.9825C114.247 31.2718 113.524 31.4647 112.753 31.6093C111.934 31.7058 111.162 31.8022 110.488 31.8022ZM105.958 22.1096H114.054C114.006 21.0488 113.668 20.229 112.994 19.6021C112.319 18.9752 111.403 18.6859 110.199 18.6859C108.994 18.6859 108.03 18.9752 107.259 19.6021C106.488 20.1808 106.054 21.0488 105.958 22.1096Z" fill="white"/>
<path d="M118.969 19.3126V16.3711H122.632V19.3126H118.969ZM127.114 31.8021C125.62 31.8021 124.415 31.3681 123.548 30.5001C122.68 29.6321 122.198 28.3301 122.198 26.5941V11.9829H125.765V16.3229H129.813V19.3126H125.765V25.8226C125.765 26.8352 125.957 27.5103 126.343 27.9443C126.729 28.3783 127.259 28.5712 127.982 28.5712C128.319 28.5712 128.656 28.523 128.945 28.4748C129.235 28.3783 129.524 28.2819 129.813 28.1372L130.391 31.0305C129.957 31.2716 129.476 31.4645 128.897 31.6092C128.319 31.7056 127.741 31.8021 127.114 31.8021Z" fill="white"/>
<path d="M140.56 31.8022C138.969 31.8022 137.572 31.4647 136.319 30.7414C135.114 30.018 134.15 29.0536 133.427 27.848C132.752 26.6425 132.367 25.3405 132.367 23.8939C132.367 22.833 132.56 21.8203 132.945 20.8559C133.331 19.8914 133.909 19.0717 134.632 18.3001C135.355 17.5768 136.222 16.9981 137.234 16.5641C138.246 16.1301 139.307 15.9373 140.512 15.9373C142.102 15.9373 143.499 16.2748 144.752 16.9981C145.957 17.7215 146.921 18.6859 147.644 19.8914C148.319 21.097 148.704 22.399 148.704 23.8456C148.704 24.9065 148.512 25.9192 148.126 26.8836C147.74 27.848 147.162 28.6678 146.439 29.4394C145.716 30.2109 144.849 30.7414 143.885 31.1753C142.873 31.5611 141.765 31.8022 140.56 31.8022ZM140.56 28.6196C141.427 28.6196 142.246 28.4267 142.921 28.0409C143.596 27.6552 144.174 27.0765 144.56 26.4014C144.945 25.6781 145.138 24.8583 145.138 23.8456C145.138 22.8812 144.945 22.0132 144.56 21.2899C144.174 20.5665 143.644 20.0361 142.921 19.6503C142.246 19.2646 141.427 19.0717 140.56 19.0717C139.644 19.0717 138.873 19.2646 138.198 19.6503C137.524 20.0361 136.945 20.5665 136.56 21.2899C136.174 22.0132 135.981 22.833 135.981 23.8456C135.981 24.8101 136.174 25.6781 136.56 26.3532C136.945 27.0765 137.475 27.6069 138.198 27.9927C138.921 28.4267 139.692 28.6196 140.56 28.6196Z" fill="white"/>
<path d="M151.981 31.3201V9.66846H155.547V31.3201H151.981Z" fill="white"/>
<path d="M166.295 31.8023C164.849 31.8023 163.548 31.4647 162.392 30.7896C161.283 30.1145 160.367 29.1501 159.741 27.9927C159.114 26.8354 158.777 25.437 158.777 23.8939C158.777 22.7848 158.97 21.7721 159.307 20.8077C159.693 19.8433 160.175 19.0235 160.849 18.3002C161.524 17.5768 162.295 16.9982 163.211 16.6124C164.127 16.2266 165.139 15.9855 166.247 15.9855C167.548 15.9855 168.705 16.2748 169.717 16.8053C170.681 17.3357 171.548 18.0591 172.175 19.0235L171.404 19.8433V9.66846H174.97V31.3201H171.789V27.6552L172.319 28.475C171.789 29.4394 171.018 30.211 170.006 30.8378C169.09 31.4647 167.837 31.8023 166.295 31.8023ZM166.922 28.6196C167.789 28.6196 168.608 28.4267 169.283 28.041C169.958 27.6552 170.536 27.0765 170.922 26.4014C171.307 25.6781 171.5 24.8583 171.5 23.8457C171.5 22.8812 171.307 22.0132 170.922 21.2899C170.536 20.5666 170.006 20.0361 169.283 19.6504C168.608 19.2646 167.789 19.0717 166.922 19.0717C166.054 19.0717 165.235 19.2646 164.56 19.6504C163.886 20.0361 163.307 20.5666 162.922 21.2899C162.536 22.0132 162.343 22.833 162.343 23.8457C162.343 24.8101 162.536 25.6781 162.922 26.4014C163.307 27.1248 163.837 27.6552 164.56 28.041C165.283 28.4267 166.054 28.6196 166.922 28.6196Z" fill="white"/>
<path d="M12.8496 19.9398C12.9459 19.7469 13.1387 19.7469 13.2351 19.9398L14.199 21.8687C14.2953 22.0616 14.5845 22.3027 14.8255 22.3027L16.9459 22.592C17.1869 22.6403 17.2351 22.7849 17.0423 22.9778L15.5002 24.4727C15.3074 24.6173 15.211 24.9549 15.2592 25.196L15.5965 27.3178C15.6447 27.5589 15.5002 27.6553 15.3074 27.5589L13.4279 26.5462C13.2351 26.4498 12.8496 26.4498 12.6568 26.5462L10.7773 27.5589C10.5845 27.6553 10.4399 27.5589 10.4881 27.3178L10.8255 25.196C10.8737 24.9549 10.7773 24.6173 10.5845 24.4727L9.04233 22.9778C8.84956 22.8331 8.94595 22.6403 9.13872 22.592L11.2592 22.3027C11.5002 22.2545 11.7893 22.0616 11.8857 21.8687L12.8496 19.9398Z" fill="white"/>
<path d="M24.6084 19.9398C24.7047 19.7469 24.8975 19.7469 24.9939 19.9398L25.9577 21.8687C26.0541 22.0616 26.3433 22.3027 26.5843 22.3027L28.7047 22.592C28.9457 22.6403 28.9939 22.7849 28.8011 22.9778L27.259 24.4727C27.0662 24.6173 26.9698 24.9549 27.018 25.196L27.3553 27.3178C27.4035 27.5589 27.259 27.6553 27.0662 27.5589L25.1867 26.5462C24.9939 26.4498 24.6084 26.4498 24.4156 26.5462L22.5361 27.5589C22.3433 27.6553 22.1987 27.5589 22.2469 27.3178L22.5843 25.196C22.6324 24.9549 22.5361 24.6173 22.3433 24.4727L20.8011 22.9778C20.6084 22.8331 20.7047 22.6403 20.8975 22.592L23.018 22.3027C23.259 22.2545 23.5481 22.0616 23.6445 21.8687L24.6084 19.9398Z" fill="white"/>
<path d="M24.6084 19.9398C24.7047 19.7469 24.8975 19.7469 24.9939 19.9398L25.9577 21.8687C26.0541 22.0616 26.3433 22.3027 26.5843 22.3027L28.7047 22.592C28.9457 22.6403 28.9939 22.7849 28.8011 22.9778L27.259 24.4727C27.0662 24.6173 26.9698 24.9549 27.018 25.196L27.3553 27.3178C27.4035 27.5589 27.259 27.6553 27.0662 27.5589L25.1867 26.5462C24.9939 26.4498 24.6084 26.4498 24.4156 26.5462L22.5361 27.5589C22.3433 27.6553 22.1987 27.5589 22.2469 27.3178L22.5843 25.196C22.6324 24.9549 22.5361 24.6173 22.3433 24.4727L20.8011 22.9778C20.6084 22.8331 20.7047 22.6403 20.8975 22.592L23.018 22.3027C23.259 22.2545 23.5481 22.0616 23.6445 21.8687L24.6084 19.9398Z" fill="white"/>
<path d="M36.3671 19.9398C36.4635 19.7469 36.6563 19.7469 36.7527 19.9398L37.7165 21.8687C37.8129 22.0616 38.1021 22.3027 38.343 22.3027L40.4635 22.592C40.7045 22.6403 40.7527 22.7849 40.5599 22.9778L39.0177 24.4727C38.825 24.6173 38.7286 24.9549 38.7768 25.196L39.1141 27.3178C39.1623 27.5589 39.0177 27.6553 38.825 27.5589L36.9455 26.5462C36.7527 26.4498 36.3671 26.4498 36.1744 26.5462L34.2948 27.5589C34.1021 27.6553 33.9575 27.5589 34.0057 27.3178L34.343 25.196C34.3912 24.9549 34.2948 24.6173 34.1021 24.4727L32.5599 22.9778C32.3671 22.8331 32.4635 22.6403 32.6563 22.592L34.7768 22.3027C35.0177 22.2545 35.3069 22.0616 35.4033 21.8687L36.3671 19.9398Z" fill="white"/>
<path d="M36.3671 19.9398C36.4635 19.7469 36.6563 19.7469 36.7527 19.9398L37.7165 21.8687C37.8129 22.0616 38.1021 22.3027 38.343 22.3027L40.4635 22.592C40.7045 22.6403 40.7527 22.7849 40.5599 22.9778L39.0177 24.4727C38.825 24.6173 38.7286 24.9549 38.7768 25.196L39.1141 27.3178C39.1623 27.5589 39.0177 27.6553 38.825 27.5589L36.9455 26.5462C36.7527 26.4498 36.3671 26.4498 36.1744 26.5462L34.2948 27.5589C34.1021 27.6553 33.9575 27.5589 34.0057 27.3178L34.343 25.196C34.3912 24.9549 34.2948 24.6173 34.1021 24.4727L32.5599 22.9778C32.3671 22.8331 32.4635 22.6403 32.6563 22.592L34.7768 22.3027C35.0177 22.2545 35.3069 22.0616 35.4033 21.8687L36.3671 19.9398Z" fill="white"/>
<path d="M45.4276 13.7191H11.5963C11.0662 13.7191 10.5361 13.8638 10.0541 14.1049L7.74087 15.4551C7.40352 15.648 7.5481 16.1784 7.93364 16.1784H45.4276C45.9577 16.1784 46.4397 16.6124 46.4397 17.1911V30.8379C46.4397 31.3683 46.0059 31.8505 45.4276 31.8505H15.4035C14.6324 31.8505 13.5722 32.2845 13.0421 32.8149L9.524 36.3351V34.0205C9.524 32.8632 8.60834 31.947 7.45172 31.947H3.49991C2.96979 31.947 2.48786 31.513 2.48786 30.9343V15.7926C2.48786 15.6962 2.58425 15.5515 2.63244 15.5033L24.3192 2.48342C24.3674 2.48342 24.4156 2.48342 24.4638 2.48342C24.512 2.48342 24.5602 2.48342 24.5602 2.48342L31.4035 6.58228C31.9818 6.91983 32.6565 6.96805 33.1385 6.67872C33.6686 6.38939 33.9577 5.81073 33.9577 5.13562V3.44786H37.6204V8.75226C37.6204 9.62025 38.1987 10.6811 38.9698 11.1151L39.2108 11.2598H42.7288C43.0662 11.2598 43.2108 10.8258 42.9216 10.6329L40.271 9.04159C40.2228 8.99337 40.1264 8.8487 40.1264 8.75226V3.11031C40.1264 1.95298 39.2108 0.988547 38.0541 0.988547H33.7168C32.5602 0.988547 31.6445 1.90476 31.6445 3.06209V3.78541L25.8614 0.361664C25.0421 -0.120555 23.9336 -0.120555 23.1144 0.361664L1.37943 13.3816C0.656535 13.8156 0.0300293 14.9247 0.0300293 15.7444V30.8861C0.0300293 32.8149 1.5722 34.358 3.49991 34.358H7.16256V38.3605C7.16256 39.0838 7.49991 39.6624 8.07822 39.9036C8.27099 40 8.46376 40 8.60834 40C9.04208 40 9.47581 39.8071 9.81316 39.4696L14.777 34.5027C14.9216 34.358 15.2108 34.2616 15.4035 34.2616H45.4276C47.3553 34.2616 48.8975 32.7185 48.8975 30.7896V17.1429C48.8975 15.2622 47.3553 13.7191 45.4276 13.7191Z" fill="white"/>
</svg>
