<svg width="20" height="20" viewBox="0 0 20 20" fill="none" xmlns="http://www.w3.org/2000/svg">
<path d="M10 0C8.02219 0 6.08879 0.58649 4.4443 1.6853C2.79981 2.78412 1.51809 4.3459 0.761209 6.17317C0.00433284 8.00043 -0.193701 10.0111 0.192152 11.9509C0.578004 13.8907 1.53041 15.6725 2.92894 17.0711C4.32746 18.4696 6.10929 19.422 8.0491 19.8079C9.98891 20.1937 11.9996 19.9957 13.8268 19.2388C15.6541 18.4819 17.2159 17.2002 18.3147 15.5557C19.4135 13.9112 20 11.9778 20 10C20 8.68678 19.7413 7.38642 19.2388 6.17317C18.7363 4.95991 17.9997 3.85752 17.0711 2.92893C16.1425 2.00035 15.0401 1.26375 13.8268 0.761205C12.6136 0.258658 11.3132 0 10 0ZM6.5 6C6.79668 6 7.08669 6.08797 7.33336 6.2528C7.58003 6.41762 7.77229 6.65189 7.88582 6.92597C7.99936 7.20006 8.02906 7.50166 7.97118 7.79264C7.9133 8.08361 7.77044 8.35088 7.56066 8.56066C7.35089 8.77044 7.08361 8.9133 6.79264 8.97118C6.50167 9.02906 6.20007 8.99935 5.92598 8.88582C5.65189 8.77229 5.41762 8.58003 5.2528 8.33335C5.08798 8.08668 5 7.79667 5 7.5C5.01013 7.10537 5.17141 6.72969 5.45055 6.45055C5.72969 6.17141 6.10537 6.01012 6.5 6ZM15 14H11C10.2969 13.999 9.60586 14.1833 8.99666 14.5344C8.38746 14.8855 7.88158 15.3911 7.53 16L5.8 15C6.32694 14.0873 7.08497 13.3295 7.99782 12.8029C8.91067 12.2762 9.94613 11.9993 11 12H15M13.5 9C13.2033 9 12.9133 8.91203 12.6666 8.7472C12.42 8.58238 12.2277 8.34811 12.1142 8.07403C12.0007 7.79994 11.9709 7.49834 12.0288 7.20736C12.0867 6.91639 12.2296 6.64912 12.4393 6.43934C12.6491 6.22956 12.9164 6.0867 13.2074 6.02882C13.4983 5.97094 13.7999 6.00065 14.074 6.11418C14.3481 6.22771 14.5824 6.41997 14.7472 6.66665C14.912 6.91332 15 7.20333 15 7.5C14.9899 7.89463 14.8286 8.27031 14.5495 8.54945C14.2703 8.82859 13.8946 8.98988 13.5 9Z" fill="#D9D9D9"/>
</svg>
