<svg width="24" height="24" viewBox="0 0 24 24" fill="none" xmlns="http://www.w3.org/2000/svg">
<path d="M4.15848 13.9299C3.80876 13.3469 3.62402 12.6798 3.62402 11.9999C3.62402 11.32 3.80876 10.6529 4.15848 10.0699C4.26602 9.89042 4.40992 9.73542 4.58093 9.61487C4.75195 9.49431 4.94629 9.41087 5.15148 9.3699L6.84448 9.0309C6.94544 9.01091 7.03651 8.95691 7.10248 8.8779L9.17048 6.3949C10.3525 4.9749 10.9445 4.2659 11.4715 4.4569C12.0005 4.6479 12.0005 5.5719 12.0005 7.4199V16.5819C12.0005 18.4289 12.0005 19.3519 11.4725 19.5439C10.9455 19.7339 10.3535 19.0249 9.17148 17.6059L7.10048 15.1219C7.03476 15.0431 6.94408 14.9891 6.84348 14.9689L5.15048 14.6299C4.94529 14.5889 4.75095 14.5055 4.57993 14.3849C4.40892 14.2644 4.26602 14.1094 4.15848 13.9299Z" fill="#0a2446"/>
<path d="M14.5361 8.46387C15.4692 9.39686 15.9956 10.6608 16.0006 11.9803C16.0057 13.2998 15.489 14.5678 14.5631 15.5079" stroke="#0a2446" stroke-width="2" stroke-linecap="round"/>
</svg>
