<svg width="26" height="24" viewBox="0 0 26 24" fill="none" xmlns="http://www.w3.org/2000/svg">
<rect x="0.919922" width="24.96" height="24" rx="6" fill="#0A2446"/>
<path d="M13.3998 16.7286L9.87085 18.8689C9.71496 18.9688 9.55198 19.0116 9.38191 18.9973C9.21184 18.9831 9.06303 18.926 8.93548 18.8261C8.80793 18.7262 8.70872 18.6015 8.63786 18.452C8.567 18.3025 8.55283 18.1347 8.59534 17.9486L9.53072 13.9035L6.40573 11.1854C6.264 11.0569 6.17557 10.9106 6.14042 10.7462C6.10527 10.5818 6.11576 10.4214 6.17188 10.265C6.22857 10.1081 6.31361 9.97968 6.42698 9.8798C6.54036 9.77992 6.69626 9.71571 6.89467 9.68718L11.0188 9.32333L12.6132 5.51366C12.6841 5.34244 12.794 5.21403 12.9431 5.12842C13.0922 5.04281 13.2444 5 13.3998 5C13.5556 5 13.7079 5.04281 13.8564 5.12842C14.0049 5.21403 14.1149 5.34244 14.1863 5.51366L15.7807 9.32333L19.9048 9.68718C20.1032 9.71571 20.2591 9.77992 20.3725 9.8798C20.4859 9.97968 20.5709 10.1081 20.6276 10.265C20.6843 10.422 20.6951 10.5827 20.6599 10.747C20.6248 10.9114 20.5361 11.0575 20.3938 11.1854L17.2688 13.9035L18.2042 17.9486C18.2467 18.1341 18.2325 18.3019 18.1616 18.452C18.0908 18.6021 17.9916 18.7268 17.864 18.8261C17.7365 18.926 17.5877 18.9831 17.4176 18.9973C17.2475 19.0116 17.0846 18.9688 16.9287 18.8689L13.3998 16.7286Z" fill="#EF6C67"/>
</svg>
