<svg width="25" height="24" viewBox="0 0 25 24" fill="none" xmlns="http://www.w3.org/2000/svg">
<rect x="0.879883" width="24" height="24" rx="6" fill="#D9D9D9"/>
<path d="M12.8795 16.7286L9.48636 18.8689C9.33646 18.9688 9.17975 19.0116 9.01622 18.9973C8.85269 18.9831 8.70961 18.926 8.58696 18.8261C8.46432 18.7262 8.36893 18.6015 8.30079 18.452C8.23266 18.3025 8.21903 18.1347 8.25991 17.9486L9.15931 13.9035L6.15451 11.1854C6.01823 11.0569 5.9332 10.9106 5.8994 10.7462C5.86561 10.5818 5.87569 10.4214 5.92966 10.265C5.98417 10.1081 6.06593 9.97968 6.17495 9.8798C6.28396 9.77992 6.43386 9.71571 6.62464 9.68718L10.5902 9.32333L12.1232 5.51366C12.1914 5.34244 12.2971 5.21403 12.4405 5.12842C12.5838 5.04281 12.7302 5 12.8795 5C13.0294 5 13.1758 5.04281 13.3186 5.12842C13.4614 5.21403 13.5672 5.34244 13.6358 5.51366L15.1689 9.32333L19.1344 9.68718C19.3252 9.71571 19.4751 9.77992 19.5841 9.8798C19.6931 9.97968 19.7749 10.1081 19.8294 10.265C19.8839 10.422 19.8943 10.5827 19.8605 10.747C19.8267 10.9114 19.7414 11.0575 19.6046 11.1854L16.5998 13.9035L17.4992 17.9486C17.54 18.1341 17.5264 18.3019 17.4583 18.452C17.3901 18.6021 17.2948 18.7268 17.1721 18.8261C17.0495 18.926 16.9064 18.9831 16.7428 18.9973C16.5793 19.0116 16.4226 18.9688 16.2727 18.8689L12.8795 16.7286Z" fill="#F5F5F5"/>
</svg>
