<svg width="24" height="25" viewBox="0 0 24 25" fill="none" xmlns="http://www.w3.org/2000/svg">
<path d="M5 11.6523L6.5 7.15234H17.5L19 11.6523M17.5 16.6523C17.1022 16.6523 16.7206 16.4943 16.4393 16.213C16.158 15.9317 16 15.5502 16 15.1523C16 14.7545 16.158 14.373 16.4393 14.0917C16.7206 13.8104 17.1022 13.6523 17.5 13.6523C17.8978 13.6523 18.2794 13.8104 18.5607 14.0917C18.842 14.373 19 14.7545 19 15.1523C19 15.5502 18.842 15.9317 18.5607 16.213C18.2794 16.4943 17.8978 16.6523 17.5 16.6523ZM6.5 16.6523C6.10218 16.6523 5.72064 16.4943 5.43934 16.213C5.15804 15.9317 5 15.5502 5 15.1523C5 14.7545 5.15804 14.373 5.43934 14.0917C5.72064 13.8104 6.10218 13.6523 6.5 13.6523C6.89782 13.6523 7.27936 13.8104 7.56066 14.0917C7.84196 14.373 8 14.7545 8 15.1523C8 15.5502 7.84196 15.9317 7.56066 16.213C7.27936 16.4943 6.89782 16.6523 6.5 16.6523ZM18.92 6.65234C18.72 6.07234 18.16 5.65234 17.5 5.65234H6.5C5.84 5.65234 5.28 6.07234 5.08 6.65234L3 12.6523V20.6523C3 20.9176 3.10536 21.1719 3.29289 21.3595C3.48043 21.547 3.73478 21.6523 4 21.6523H5C5.26522 21.6523 5.51957 21.547 5.70711 21.3595C5.89464 21.1719 6 20.9176 6 20.6523V19.6523H18V20.6523C18 20.9176 18.1054 21.1719 18.2929 21.3595C18.4804 21.547 18.7348 21.6523 19 21.6523H20C20.2652 21.6523 20.5196 21.547 20.7071 21.3595C20.8946 21.1719 21 20.9176 21 20.6523V12.6523L18.92 6.65234Z" fill="#0a2446"/>
</svg>
