<svg width="31" height="30" viewBox="0 0 31 30" fill="none" xmlns="http://www.w3.org/2000/svg">
<path d="M15.97 25.8C12.22 25.8 8.90497 23.88 6.96997 21C7.01497 18 12.97 16.35 15.97 16.35C18.97 16.35 24.925 18 24.97 21C23.9783 22.4766 22.6388 23.6867 21.0693 24.5238C19.4999 25.3608 17.7487 25.7991 15.97 25.8ZM15.97 4.5C17.1634 4.5 18.308 4.97411 19.152 5.81802C19.9959 6.66193 20.47 7.80653 20.47 9C20.47 10.1935 19.9959 11.3381 19.152 12.182C18.308 13.0259 17.1634 13.5 15.97 13.5C14.7765 13.5 13.6319 13.0259 12.788 12.182C11.9441 11.3381 11.47 10.1935 11.47 9C11.47 7.80653 11.9441 6.66193 12.788 5.81802C13.6319 4.97411 14.7765 4.5 15.97 4.5ZM15.97 0C14.0001 0 12.0496 0.387987 10.2297 1.14181C8.40983 1.89563 6.75625 3.00052 5.36337 4.3934C2.55032 7.20644 0.969971 11.0218 0.969971 15C0.969971 18.9782 2.55032 22.7936 5.36337 25.6066C6.75625 26.9995 8.40983 28.1044 10.2297 28.8582C12.0496 29.612 14.0001 30 15.97 30C19.9482 30 23.7635 28.4196 26.5766 25.6066C29.3896 22.7936 30.97 18.9782 30.97 15C30.97 6.705 24.22 0 15.97 0Z" fill="#EF6C67"/>
</svg>
