<svg width="175" height="175" viewBox="0 0 175 175" fill="none" xmlns="http://www.w3.org/2000/svg">
<rect width="175" height="175" rx="10" fill="#0A2446"/>
<path d="M58.528 86.9184C58.7725 86.4452 59.2617 86.4452 59.5063 86.9184L61.952 91.6505C62.1966 92.1237 62.9303 92.7152 63.5418 92.7152L68.9224 93.4251C69.5339 93.5434 69.6562 93.8983 69.167 94.3715L65.2538 98.0389C64.7646 98.3938 64.5201 99.2219 64.6424 99.8134L65.4984 105.019C65.6207 105.61 65.2538 105.847 64.7647 105.61L59.9954 103.126C59.5063 102.889 58.528 102.889 58.0388 103.126L53.2696 105.61C52.7804 105.847 52.4136 105.61 52.5359 105.019L53.3919 99.8134C53.5142 99.2219 53.2696 98.3938 52.7804 98.0389L48.8672 94.3715C48.3781 94.0166 48.6226 93.5434 49.1118 93.4251L54.4925 92.7152C55.1039 92.5969 55.8376 92.1237 56.0822 91.6505L58.528 86.9184Z" fill="white"/>
<path d="M88.3668 86.9179C88.6114 86.4447 89.1006 86.4447 89.3451 86.9179L91.7909 91.65C92.0355 92.1232 92.7692 92.7148 93.3806 92.7148L98.7613 93.4246C99.3727 93.5429 99.495 93.8978 99.0059 94.371L95.0927 98.0384C94.6035 98.3933 94.3589 99.2214 94.4812 99.8129L95.3372 105.018C95.4595 105.61 95.0927 105.846 94.6035 105.61L89.8343 103.125C89.3451 102.889 88.3668 102.889 87.8777 103.125L83.1085 105.61C82.6193 105.846 82.2524 105.61 82.3747 105.018L83.2307 99.8129C83.353 99.2214 83.1084 98.3933 82.6193 98.0384L78.7061 94.371C78.2169 94.0161 78.4615 93.5429 78.9507 93.4246L84.3313 92.7148C84.9428 92.5964 85.6765 92.1232 85.9211 91.65L88.3668 86.9179Z" fill="white"/>
<path d="M88.3668 86.9179C88.6114 86.4447 89.1006 86.4447 89.3451 86.9179L91.7909 91.65C92.0355 92.1232 92.7692 92.7148 93.3806 92.7148L98.7613 93.4246C99.3727 93.5429 99.495 93.8978 99.0059 94.371L95.0927 98.0384C94.6035 98.3933 94.3589 99.2214 94.4812 99.8129L95.3372 105.018C95.4595 105.61 95.0927 105.846 94.6035 105.61L89.8343 103.125C89.3451 102.889 88.3668 102.889 87.8777 103.125L83.1085 105.61C82.6193 105.846 82.2524 105.61 82.3747 105.018L83.2307 99.8129C83.353 99.2214 83.1084 98.3933 82.6193 98.0384L78.7061 94.371C78.2169 94.0161 78.4615 93.5429 78.9507 93.4246L84.3313 92.7148C84.9428 92.5964 85.6765 92.1232 85.9211 91.65L88.3668 86.9179Z" fill="white"/>
<path d="M88.3668 86.9179C88.6114 86.4447 89.1006 86.4447 89.3451 86.9179L91.7909 91.65C92.0355 92.1232 92.7692 92.7148 93.3806 92.7148L98.7613 93.4246C99.3727 93.5429 99.495 93.8978 99.0059 94.371L95.0927 98.0384C94.6035 98.3933 94.3589 99.2214 94.4812 99.8129L95.3372 105.018C95.4595 105.61 95.0927 105.846 94.6035 105.61L89.8343 103.125C89.3451 102.889 88.3668 102.889 87.8777 103.125L83.1085 105.61C82.6193 105.846 82.2524 105.61 82.3747 105.018L83.2307 99.8129C83.353 99.2214 83.1084 98.3933 82.6193 98.0384L78.7061 94.371C78.2169 94.0161 78.4615 93.5429 78.9507 93.4246L84.3313 92.7148C84.9428 92.5964 85.6765 92.1232 85.9211 91.65L88.3668 86.9179Z" fill="white"/>
<path d="M118.204 86.9194C118.448 86.4462 118.937 86.4462 119.182 86.9194L121.628 91.6515C121.872 92.1247 122.606 92.7162 123.218 92.7162L128.598 93.426C129.21 93.5443 129.332 93.8992 128.843 94.3725L124.93 98.0399C124.44 98.3948 124.196 99.2229 124.318 99.8144L125.174 105.02C125.296 105.611 124.93 105.848 124.44 105.611L119.671 103.127C119.182 102.89 118.204 102.89 117.715 103.127L112.945 105.611C112.456 105.848 112.089 105.611 112.212 105.02L113.068 99.8144C113.19 99.2229 112.945 98.3948 112.456 98.0399L108.543 94.3725C108.054 94.0175 108.298 93.5443 108.788 93.426L114.168 92.7162C114.78 92.5979 115.513 92.1247 115.758 91.6515L118.204 86.9194Z" fill="white"/>
<path d="M118.204 86.9194C118.448 86.4462 118.937 86.4462 119.182 86.9194L121.628 91.6515C121.872 92.1247 122.606 92.7162 123.218 92.7162L128.598 93.426C129.21 93.5443 129.332 93.8992 128.843 94.3725L124.93 98.0399C124.44 98.3948 124.196 99.2229 124.318 99.8144L125.174 105.02C125.296 105.611 124.93 105.848 124.44 105.611L119.671 103.127C119.182 102.89 118.204 102.89 117.715 103.127L112.945 105.611C112.456 105.848 112.089 105.611 112.212 105.02L113.068 99.8144C113.19 99.2229 112.945 98.3948 112.456 98.0399L108.543 94.3725C108.054 94.0175 108.298 93.5443 108.788 93.426L114.168 92.7162C114.78 92.5979 115.513 92.1247 115.758 91.6515L118.204 86.9194Z" fill="white"/>
<path d="M118.204 86.9194C118.448 86.4462 118.937 86.4462 119.182 86.9194L121.628 91.6515C121.872 92.1247 122.606 92.7162 123.218 92.7162L128.598 93.426C129.21 93.5443 129.332 93.8992 128.843 94.3725L124.93 98.0399C124.44 98.3948 124.196 99.2229 124.318 99.8144L125.174 105.02C125.296 105.611 124.93 105.848 124.44 105.611L119.671 103.127C119.182 102.89 118.204 102.89 117.715 103.127L112.945 105.611C112.456 105.848 112.089 105.611 112.212 105.02L113.068 99.8144C113.19 99.2229 112.945 98.3948 112.456 98.0399L108.543 94.3725C108.054 94.0175 108.298 93.5443 108.788 93.426L114.168 92.7162C114.78 92.5979 115.513 92.1247 115.758 91.6515L118.204 86.9194Z" fill="white"/>
<path d="M141.195 71.6572H55.3491C54.0039 71.6572 52.6588 72.0121 51.4359 72.6037L45.5661 75.9162C44.7101 76.3894 45.0769 77.6907 46.0552 77.6907H141.195C142.54 77.6907 143.763 78.7554 143.763 80.1751V113.655C143.763 114.956 142.663 116.139 141.195 116.139H65.0099C63.0533 116.139 60.3629 117.204 59.0177 118.505L50.0907 127.141V121.463C50.0907 118.624 47.7673 116.376 44.8323 116.376H34.8047C33.4596 116.376 32.2367 115.311 32.2367 113.891V76.7443C32.2367 76.5077 32.4813 76.1528 32.6036 76.0345L87.6331 44.0926C87.7554 44.0926 87.8777 44.0926 88 44.0926C88.1223 44.0926 88.2446 44.0926 88.2446 44.0926L105.609 54.1484C107.077 54.9765 108.789 55.0948 110.012 54.385C111.357 53.6752 112.091 52.2555 112.091 50.5993V46.4587H121.385V59.472C121.385 61.6015 122.852 64.2041 124.809 65.2689L125.42 65.6238H134.347C135.203 65.6238 135.57 64.5591 134.836 64.0858L128.11 60.1818C127.988 60.0635 127.744 59.7086 127.744 59.472V45.6306C127.744 42.7913 125.42 40.4252 122.485 40.4252H111.479C108.544 40.4252 106.221 42.673 106.221 45.5122V47.2868L91.5463 38.8873C89.4675 37.7042 86.6548 37.7042 84.5759 38.8873L29.4241 70.8291C27.5897 71.8938 26 74.6148 26 76.626V113.773C26 118.505 29.9132 122.291 34.8047 122.291H44.0986V132.11C44.0986 133.885 44.9546 135.304 46.4221 135.896C46.9112 136.132 47.4004 136.132 47.7673 136.132C48.8678 136.132 49.9684 135.659 50.8245 134.831L63.4201 122.646C63.787 122.291 64.5207 122.054 65.0099 122.054H141.195C146.087 122.054 150 118.269 150 113.537V80.0568C150 75.4429 146.087 71.6572 141.195 71.6572Z" fill="white"/>
<path d="M58.528 86.9184C58.7725 86.4452 59.2617 86.4452 59.5063 86.9184L61.952 91.6505C62.1966 92.1237 62.9303 92.7152 63.5418 92.7152L68.9224 93.4251C69.5339 93.5434 69.6562 93.8983 69.167 94.3715L65.2538 98.0389C64.7646 98.3938 64.5201 99.2219 64.6424 99.8134L65.4984 105.019C65.6207 105.61 65.2538 105.847 64.7647 105.61L59.9954 103.126C59.5063 102.889 58.528 102.889 58.0388 103.126L53.2696 105.61C52.7804 105.847 52.4136 105.61 52.5359 105.019L53.3919 99.8134C53.5142 99.2219 53.2696 98.3938 52.7804 98.0389L48.8672 94.3715C48.3781 94.0166 48.6226 93.5434 49.1118 93.4251L54.4925 92.7152C55.1039 92.5969 55.8376 92.1237 56.0822 91.6505L58.528 86.9184Z" fill="white"/>
<path d="M88.3668 86.9179C88.6114 86.4447 89.1006 86.4447 89.3451 86.9179L91.7909 91.65C92.0355 92.1232 92.7692 92.7148 93.3806 92.7148L98.7613 93.4246C99.3727 93.5429 99.495 93.8978 99.0059 94.371L95.0927 98.0384C94.6035 98.3933 94.3589 99.2214 94.4812 99.8129L95.3372 105.018C95.4595 105.61 95.0927 105.846 94.6035 105.61L89.8343 103.125C89.3451 102.889 88.3668 102.889 87.8777 103.125L83.1085 105.61C82.6193 105.846 82.2524 105.61 82.3747 105.018L83.2307 99.8129C83.353 99.2214 83.1084 98.3933 82.6193 98.0384L78.7061 94.371C78.2169 94.0161 78.4615 93.5429 78.9507 93.4246L84.3313 92.7148C84.9428 92.5964 85.6765 92.1232 85.9211 91.65L88.3668 86.9179Z" fill="white"/>
<path d="M88.3668 86.9179C88.6114 86.4447 89.1006 86.4447 89.3451 86.9179L91.7909 91.65C92.0355 92.1232 92.7692 92.7148 93.3806 92.7148L98.7613 93.4246C99.3727 93.5429 99.495 93.8978 99.0059 94.371L95.0927 98.0384C94.6035 98.3933 94.3589 99.2214 94.4812 99.8129L95.3372 105.018C95.4595 105.61 95.0927 105.846 94.6035 105.61L89.8343 103.125C89.3451 102.889 88.3668 102.889 87.8777 103.125L83.1085 105.61C82.6193 105.846 82.2524 105.61 82.3747 105.018L83.2307 99.8129C83.353 99.2214 83.1084 98.3933 82.6193 98.0384L78.7061 94.371C78.2169 94.0161 78.4615 93.5429 78.9507 93.4246L84.3313 92.7148C84.9428 92.5964 85.6765 92.1232 85.9211 91.65L88.3668 86.9179Z" fill="white"/>
<path d="M118.204 86.9194C118.448 86.4462 118.937 86.4462 119.182 86.9194L121.628 91.6515C121.872 92.1247 122.606 92.7162 123.218 92.7162L128.598 93.426C129.21 93.5443 129.332 93.8992 128.843 94.3725L124.93 98.0399C124.44 98.3948 124.196 99.2229 124.318 99.8144L125.174 105.02C125.296 105.611 124.93 105.848 124.44 105.611L119.671 103.127C119.182 102.89 118.204 102.89 117.715 103.127L112.945 105.611C112.456 105.848 112.089 105.611 112.212 105.02L113.068 99.8144C113.19 99.2229 112.945 98.3948 112.456 98.0399L108.543 94.3725C108.054 94.0175 108.298 93.5443 108.788 93.426L114.168 92.7162C114.78 92.5979 115.513 92.1247 115.758 91.6515L118.204 86.9194Z" fill="white"/>
<path d="M118.204 86.9194C118.448 86.4462 118.937 86.4462 119.182 86.9194L121.628 91.6515C121.872 92.1247 122.606 92.7162 123.218 92.7162L128.598 93.426C129.21 93.5443 129.332 93.8992 128.843 94.3725L124.93 98.0399C124.44 98.3948 124.196 99.2229 124.318 99.8144L125.174 105.02C125.296 105.611 124.93 105.848 124.44 105.611L119.671 103.127C119.182 102.89 118.204 102.89 117.715 103.127L112.945 105.611C112.456 105.848 112.089 105.611 112.212 105.02L113.068 99.8144C113.19 99.2229 112.945 98.3948 112.456 98.0399L108.543 94.3725C108.054 94.0175 108.298 93.5443 108.788 93.426L114.168 92.7162C114.78 92.5979 115.513 92.1247 115.758 91.6515L118.204 86.9194Z" fill="white"/>
<path d="M141.195 71.6572H55.3491C54.0039 71.6572 52.6588 72.0121 51.4359 72.6037L45.5661 75.9162C44.7101 76.3894 45.0769 77.6907 46.0552 77.6907H141.195C142.54 77.6907 143.763 78.7554 143.763 80.1751V113.655C143.763 114.956 142.663 116.139 141.195 116.139H65.0099C63.0533 116.139 60.3629 117.204 59.0177 118.505L50.0907 127.141V121.463C50.0907 118.624 47.7673 116.376 44.8323 116.376H34.8047C33.4596 116.376 32.2367 115.311 32.2367 113.891V76.7443C32.2367 76.5077 32.4813 76.1528 32.6036 76.0345L87.6331 44.0926C87.7554 44.0926 87.8777 44.0926 88 44.0926C88.1223 44.0926 88.2446 44.0926 88.2446 44.0926L105.609 54.1484C107.077 54.9765 108.789 55.0948 110.012 54.385C111.357 53.6752 112.091 52.2555 112.091 50.5993V46.4587H121.385V59.472C121.385 61.6015 122.852 64.2041 124.809 65.2689L125.42 65.6238H134.347C135.203 65.6238 135.57 64.5591 134.836 64.0858L128.11 60.1818C127.988 60.0635 127.744 59.7086 127.744 59.472V45.6306C127.744 42.7913 125.42 40.4252 122.485 40.4252H111.479C108.544 40.4252 106.221 42.673 106.221 45.5122V47.2868L91.5463 38.8873C89.4675 37.7042 86.6548 37.7042 84.5759 38.8873L29.4241 70.8291C27.5897 71.8938 26 74.6148 26 76.626V113.773C26 118.505 29.9132 122.291 34.8047 122.291H44.0986V132.11C44.0986 133.885 44.9546 135.304 46.4221 135.896C46.9112 136.132 47.4004 136.132 47.7673 136.132C48.8678 136.132 49.9684 135.659 50.8245 134.831L63.4201 122.646C63.787 122.291 64.5207 122.054 65.0099 122.054H141.195C146.087 122.054 150 118.269 150 113.537V80.0568C150 75.4429 146.087 71.6572 141.195 71.6572Z" fill="white"/>
</svg>
