<svg width="102" height="83" viewBox="0 0 102 83" fill="none" xmlns="http://www.w3.org/2000/svg">
<path d="M26.6005 41.3498C26.8005 40.9498 27.2005 40.9498 27.4005 41.3498L29.4005 45.3498C29.6005 45.7498 30.2005 46.2498 30.7005 46.2498L35.1005 46.8498C35.6005 46.9498 35.7005 47.2498 35.3005 47.6498L32.1005 50.7498C31.7005 51.0498 31.5005 51.7498 31.6005 52.2498L32.3005 56.6498C32.4005 57.1498 32.1005 57.3498 31.7005 57.1498L27.8005 55.0498C27.4005 54.8498 26.6005 54.8498 26.2005 55.0498L22.3005 57.1498C21.9005 57.3498 21.6005 57.1498 21.7005 56.6498L22.4005 52.2498C22.5005 51.7498 22.3005 51.0498 21.9005 50.7498L18.7005 47.6498C18.3005 47.3498 18.5005 46.9498 18.9005 46.8498L23.3005 46.2498C23.8005 46.1498 24.4005 45.7498 24.6005 45.3498L26.6005 41.3498Z" fill="#0A2446"/>
<path d="M50.9999 41.3498C51.1999 40.9498 51.5999 40.9498 51.7999 41.3498L53.7999 45.3498C53.9999 45.7498 54.5999 46.2498 55.0999 46.2498L59.4999 46.8498C59.9999 46.9498 60.0999 47.2498 59.6999 47.6498L56.4999 50.7498C56.0999 51.0498 55.8999 51.7498 55.9999 52.2498L56.6999 56.6498C56.7999 57.1498 56.4999 57.3498 56.0999 57.1498L52.1999 55.0498C51.7999 54.8498 50.9999 54.8498 50.5999 55.0498L46.6999 57.1498C46.2999 57.3498 45.9999 57.1498 46.0999 56.6498L46.7999 52.2498C46.8999 51.7498 46.6999 51.0498 46.2999 50.7498L43.0999 47.6498C42.6999 47.3498 42.8999 46.9498 43.2999 46.8498L47.6999 46.2498C48.1999 46.1498 48.7999 45.7498 48.9999 45.3498L50.9999 41.3498Z" fill="#0A2446"/>
<path d="M50.9999 41.3498C51.1999 40.9498 51.5999 40.9498 51.7999 41.3498L53.7999 45.3498C53.9999 45.7498 54.5999 46.2498 55.0999 46.2498L59.4999 46.8498C59.9999 46.9498 60.0999 47.2498 59.6999 47.6498L56.4999 50.7498C56.0999 51.0498 55.8999 51.7498 55.9999 52.2498L56.6999 56.6498C56.7999 57.1498 56.4999 57.3498 56.0999 57.1498L52.1999 55.0498C51.7999 54.8498 50.9999 54.8498 50.5999 55.0498L46.6999 57.1498C46.2999 57.3498 45.9999 57.1498 46.0999 56.6498L46.7999 52.2498C46.8999 51.7498 46.6999 51.0498 46.2999 50.7498L43.0999 47.6498C42.6999 47.3498 42.8999 46.9498 43.2999 46.8498L47.6999 46.2498C48.1999 46.1498 48.7999 45.7498 48.9999 45.3498L50.9999 41.3498Z" fill="#0A2446"/>
<path d="M75.4003 41.3498C75.6003 40.9498 76.0003 40.9498 76.2003 41.3498L78.2003 45.3498C78.4003 45.7498 79.0003 46.2498 79.5003 46.2498L83.9003 46.8498C84.4003 46.9498 84.5003 47.2498 84.1003 47.6498L80.9003 50.7498C80.5003 51.0498 80.3003 51.7498 80.4003 52.2498L81.1003 56.6498C81.2003 57.1498 80.9003 57.3498 80.5003 57.1498L76.6003 55.0498C76.2003 54.8498 75.4003 54.8498 75.0003 55.0498L71.1003 57.1498C70.7003 57.3498 70.4003 57.1498 70.5003 56.6498L71.2003 52.2498C71.3003 51.7498 71.1003 51.0498 70.7003 50.7498L67.5003 47.6498C67.1003 47.3498 67.3003 46.9498 67.7003 46.8498L72.1003 46.2498C72.6003 46.1498 73.2003 45.7498 73.4003 45.3498L75.4003 41.3498Z" fill="#0A2446"/>
<path d="M75.4003 41.3498C75.6003 40.9498 76.0003 40.9498 76.2003 41.3498L78.2003 45.3498C78.4003 45.7498 79.0003 46.2498 79.5003 46.2498L83.9003 46.8498C84.4003 46.9498 84.5003 47.2498 84.1003 47.6498L80.9003 50.7498C80.5003 51.0498 80.3003 51.7498 80.4003 52.2498L81.1003 56.6498C81.2003 57.1498 80.9003 57.3498 80.5003 57.1498L76.6003 55.0498C76.2003 54.8498 75.4003 54.8498 75.0003 55.0498L71.1003 57.1498C70.7003 57.3498 70.4003 57.1498 70.5003 56.6498L71.2003 52.2498C71.3003 51.7498 71.1003 51.0498 70.7003 50.7498L67.5003 47.6498C67.1003 47.3498 67.3003 46.9498 67.7003 46.8498L72.1003 46.2498C72.6003 46.1498 73.2003 45.7498 73.4003 45.3498L75.4003 41.3498Z" fill="#0A2446"/>
<path d="M94.2 28.45H24C22.9 28.45 21.8 28.75 20.8 29.25L16 32.05C15.3 32.45 15.6 33.55 16.4 33.55H94.2C95.3 33.55 96.3 34.45 96.3 35.65V63.95C96.3 65.05 95.4 66.05 94.2 66.05H31.9C30.3 66.05 28.1 66.95 27 68.05L19.7 75.35V70.55C19.7 68.15 17.8 66.25 15.4 66.25H7.2C6.1 66.25 5.1 65.35 5.1 64.15V32.75C5.1 32.55 5.3 32.25 5.4 32.15L50.4 5.15C50.5 5.15 50.6 5.15 50.7 5.15C50.8 5.15 50.9 5.15 50.9 5.15L65.1 13.65C66.3 14.35 67.7 14.45 68.7 13.85C69.8 13.25 70.4 12.05 70.4 10.65V7.15H78V18.15C78 19.95 79.2 22.15 80.8 23.05L81.3 23.35H88.6C89.3 23.35 89.6 22.45 89 22.05L83.5 18.75C83.4 18.65 83.2 18.35 83.2 18.15V6.45C83.2 4.05 81.3 2.05 78.9 2.05H69.9C67.5 2.05 65.6 3.95 65.6 6.35V7.85L53.6 0.75C51.9 -0.25 49.6 -0.25 47.9 0.75L2.8 27.75C1.3 28.65 0 30.95 0 32.65V64.05C0 68.05 3.2 71.25 7.2 71.25H14.8V79.55C14.8 81.05 15.5 82.25 16.7 82.75C17.1 82.95 17.5 82.95 17.8 82.95C18.7 82.95 19.6 82.55 20.3 81.85L30.6 71.55C30.9 71.25 31.5 71.05 31.9 71.05H94.2C98.2 71.05 101.4 67.85 101.4 63.85V35.55C101.4 31.65 98.2 28.45 94.2 28.45Z" fill="#0A2446"/>
</svg>
